<svg width="39" height="31" viewBox="0 0 39 31" fill="none" xmlns="http://www.w3.org/2000/svg">
<path d="M1.97084 11.029C4.04884 8.951 14.0579 3.622 19.9889 1.435C21.9199 0.723001 23.9499 0.116002 24.4999 0.0860023C26.5919 -0.0299977 28.1619 1.81395 27.8369 4.00495C27.5879 5.69095 25.4869 7.35391 19.7689 10.3919C15.5169 12.6509 12.0299 14.7489 12.0189 15.0519C12.0089 15.3559 14.3619 16.4299 17.2499 17.4399C22.8059 19.3809 34.1799 25.067 37.4459 27.536C40.7679 30.047 38.1089 30.927 29.9999 29.998C20.2289 28.88 6.88193 24.6129 3.03993 21.3799C-0.568072 18.3449 -1.01516 14.015 1.97084 11.029Z" fill="black"/>
</svg>
