<svg width="31" height="31" viewBox="0 0 31 31" fill="none" xmlns="http://www.w3.org/2000/svg">
<path d="M10.8792 9.01099C1.50219 5.62999 -0.762788 4.03794 0.206212 1.51294C0.529212 0.668939 2.0041 0 3.5391 0C7.1641 0 17.9592 3.45204 24.8492 6.81604C29.3592 9.01704 30.4071 10.011 30.6741 12.338C31.0881 15.952 29.5062 17.6629 19.9982 23.8879C12.0882 29.0659 4.46917 31.835 1.38517 30.652C-0.185833 30.049 0.00616026 29.492 3.07816 25.736C4.98316 23.406 9.52212 19.7 13.1631 17.5C16.8041 15.3 19.7982 13.218 19.8162 12.873C19.8342 12.528 15.8122 10.79 10.8792 9.01099Z" fill="black"/>
</svg>
