<svg width="52" height="36" viewBox="0 0 52 36" fill="none" xmlns="http://www.w3.org/2000/svg">
<path d="M29.5937 22.4329C33.1507 17.9269 38.9227 10.9539 42.4207 6.93594C45.9187 2.91794 49.2937 -0.199074 49.9207 0.0099264C52.7677 0.957926 51.1507 4.38494 43.3827 13.8629C38.8057 19.4479 32.9067 26.6509 30.2747 29.8709C25.1627 36.1209 22.1947 37.2349 19.3377 33.9739C18.4947 33.0109 15.2057 27.9489 12.0267 22.7239C8.84867 17.4989 4.70167 11.2969 2.81067 8.94093C-0.527329 4.78293 -0.941326 1.72393 1.83267 1.72393C4.14367 1.72393 9.12667 7.83993 16.0907 19.2239C19.7917 25.2739 22.8887 30.3139 22.9737 30.4239C23.0587 30.5339 26.0377 26.9379 29.5937 22.4329Z" fill="black"/>
</svg>
