<svg width="31" height="38" viewBox="0 0 31 38" fill="none" xmlns="http://www.w3.org/2000/svg">
<path d="M1.53282 4.77663C0.279824 3.77863 -0.263187 2.52863 0.121813 1.52663C1.14981 -1.15237 3.80282 -0.349381 9.22582 4.28362C12.0478 6.69462 17.8098 10.7636 22.0288 13.3256C29.1508 17.6486 31.7408 20.5806 30.3828 22.7796C29.2998 24.5316 3.45882 37.9786 2.14482 37.4736C-0.418176 36.4906 0.839825 33.8306 5.05883 31.3136C7.39582 29.9186 12.6188 26.9636 16.6648 24.7456L24.0218 20.7136L18.1648 17.2016C14.9438 15.2706 10.3418 12.0496 7.93883 10.0446C5.53483 8.03962 2.65282 5.66863 1.53282 4.77663Z" fill="black"/>
</svg>
