<svg width="195" height="47" viewBox="0 0 195 47" fill="none" xmlns="http://www.w3.org/2000/svg">
<path d="M29.25 20.9982C45.338 12.9352 61.875 4.83719 66 3.00119C80.039 -3.24681 80.731 -0.941839 71.557 21.5102C67.951 30.3362 65 37.9262 65 38.3772C65 38.8282 70.737 37.3212 77.75 35.0272C100.759 27.5012 132.929 21.0352 163.5 17.7922C195.787 14.3672 195 14.3972 195 16.5772C195 18.7542 194.457 18.8732 174 21.1772C132.286 25.8762 85.0369 36.1722 66.3879 44.6282C60.6659 47.2222 59.4071 47.4862 58.2531 46.3322C56.8921 44.9712 59.618 36.7312 69.329 12.8502C71.858 6.63119 71.863 6.55919 69.764 7.22519C68.594 7.59619 52.8071 15.2572 34.6801 24.2492C16.5541 33.2402 1.33606 40.3582 0.862061 40.0652C0.388061 39.7722 0 38.6601 0 37.5941C0 36.0561 6.024 32.6382 29.25 20.9982Z" fill="black"/>
</svg>
