<svg width="135" height="32" viewBox="0 0 135 32" fill="none" xmlns="http://www.w3.org/2000/svg">
<path d="M2.99787 20.5346C7.49787 18.5136 47.9379 1.37663 49.8179 0.693625C53.4609 -0.628375 59.5389 0.025582 61.2569 1.92458C63.6309 4.54758 62.6589 8.45755 57.9649 15.1655C52.7089 22.6765 52.5189 23.0316 54.0159 22.5476C84.0789 12.8316 113.345 4.40456 121.818 3.02456C125.393 2.44256 129.78 1.72662 131.568 1.43362C133.956 1.04262 134.818 1.27665 134.818 2.31765C134.818 4.59065 115.768 12.4906 88.3759 21.5786C59.4319 31.1806 50.1219 33.2336 46.0049 30.9226C41.1189 28.1806 41.7359 24.0396 48.3739 15.0216C50.8949 11.5986 52.7779 8.61856 52.5589 8.39956C52.3409 8.18156 45.6719 10.6306 37.7399 13.8426C11.4839 24.4746 0.768868 27.2926 0.0368677 23.7586C-0.206132 22.5846 0.748866 21.5456 2.99787 20.5346Z" fill="black"/>
</svg>
