<svg width="160" height="45" viewBox="0 0 160 45" fill="none" xmlns="http://www.w3.org/2000/svg">
<path d="M2.68433 30.0329C7.44833 26.6589 52.1563 4.23487 58.4343 2.06987C68.9393 -1.55113 75.0064 -0.343019 73.5504 5.08098C73.2164 6.32598 69.7713 11.613 65.8953 16.832C59.1533 25.909 53.1493 36.392 54.1303 37.374C54.8583 38.101 63.7653 35.2349 85.9343 27.1419C97.2093 23.0249 112.829 17.4759 120.644 14.8099C136.863 9.27686 157.766 4.27591 159.1 5.60991C160.662 7.17191 137.511 17.34 105.434 29.18C67.8363 43.058 62.1614 44.8439 55.6574 44.8439C49.3434 44.8439 46.9263 42.9249 46.9563 37.9389C46.9833 33.5519 49.3963 28.0709 55.3643 18.8459C57.8553 14.9949 59.4833 11.8439 58.9813 11.8439C58.4793 11.8439 51.4003 15.0469 43.2513 18.9609C12.7423 33.6169 3.29932 37.6279 1.57532 36.6629C-0.90668 35.2739 -0.395671 32.2139 2.68433 30.0329Z" fill="black"/>
</svg>
