<svg width="161" height="34" viewBox="0 0 161 34" fill="none" xmlns="http://www.w3.org/2000/svg">
<path d="M100.408 18.4925C124.307 8.71648 134.291 5.25148 146.855 2.37248C159.249 -0.46752 160.855 -0.607561 160.855 1.15544C160.855 4.53844 94.2844 32.7054 84.1674 33.6034C79.5394 34.0144 78.7154 33.7785 76.5304 31.4205C73.7914 28.4655 71.8554 22.0185 71.8554 15.8525C71.8554 13.4345 71.3273 11.5615 70.5643 11.2685C69.0643 10.6925 55.7714 14.7474 26.4684 24.7184C4.72739 32.1174 -0.553684 33.1894 0.0443157 30.0834C0.465316 27.8984 10.4864 23.5595 39.4434 13.0245C65.0344 3.71446 70.8504 2.2355 74.6764 4.0695C77.5914 5.4665 78.2303 7.13552 79.7103 17.2095C80.2663 20.9955 81.1133 24.4844 81.5913 24.9624C82.0853 25.4564 90.2293 22.6565 100.408 18.4925Z" fill="black"/>
</svg>
