<svg width="94" height="36" viewBox="0 0 94 36" fill="none" xmlns="http://www.w3.org/2000/svg">
<path d="M52.0175 26.0332C54.2555 24.2452 63.9865 17.5502 73.6425 11.1532C83.2985 4.75719 91.7695 -0.256812 92.4675 0.0101882C95.8895 1.32419 92.3745 4.70922 76.4905 15.3942C68.1005 21.0382 58.3645 27.8472 54.8555 30.5242C43.9515 38.8422 41.3685 36.7602 39.4025 18.0692L38.2355 6.9732L21.2355 20.6132C11.8855 28.1142 3.4335 34.2592 2.4545 34.2672C-0.757504 34.2952 -0.833485 31.1712 2.32351 28.8912C3.92451 27.7352 9.66651 23.1872 15.0815 18.7862C42.4735 -3.47681 42.6535 -3.5078 44.1405 13.7832C45.1305 25.2982 45.8575 29.2832 46.9695 29.2832C47.5075 29.2832 49.7785 27.8212 52.0175 26.0332Z" fill="black"/>
</svg>
