<svg width="221" height="54" viewBox="0 0 221 54" fill="none" xmlns="http://www.w3.org/2000/svg">
<path d="M0 44.6977C0 42.1567 45.379 10.2497 59.992 2.51571C66.231 -0.786286 68.993 -0.830311 71.07 2.33969C72.559 4.61369 72.552 6.13671 70.976 21.8207C69.054 40.9547 69.479 47.8737 72.575 47.8737C73.649 47.8737 81.159 44.8917 89.264 41.2467C120.429 27.2307 143.246 18.4097 163.981 12.3597C177.696 8.35771 218.414 -0.297291 219.722 0.510709C220.15 0.775709 220.5 1.60368 220.5 2.35068C220.5 3.25468 217.235 4.43667 210.75 5.87967C164.722 16.1257 141.792 23.7277 97 43.5877C73.37 54.0647 72.073 54.4787 69.051 52.4997C65.181 49.9637 64.149 44.9417 64.931 32.4587C65.313 26.3617 66.043 18.0607 66.553 14.0117C67.062 9.96269 67.22 6.2297 66.903 5.7167C65.88 4.0617 47.02 15.9397 20.292 35.0747C4.20399 46.5917 0 48.5857 0 44.6977Z" fill="black"/>
</svg>
