<svg width="142" height="33" viewBox="0 0 142 33" fill="none" xmlns="http://www.w3.org/2000/svg">
<path d="M93.3094 15.4403C111.733 7.57132 116.807 5.74131 129.859 2.25331C139.642 -0.359691 142.186 -0.618689 141.628 1.05531C140.944 3.10631 121.237 13.4454 99.8594 22.9694C75.7084 33.7284 72.3915 34.3233 64.3215 29.3403C59.9955 26.6683 54.7264 21.0193 51.9744 16.1023C51.1094 14.5563 50.6285 14.5674 45.2015 16.2504C41.9885 17.2474 31.1144 21.2034 21.0384 25.0414C10.9614 28.8804 2.04245 31.7613 1.21845 31.4453C0.343448 31.1103 -0.147507 29.9314 0.0394929 28.6154C0.457493 25.6734 7.74444 21.7584 27.8594 13.6724C41.1134 8.34438 44.2875 7.43638 49.7635 7.40138L56.1664 7.36134L60.3664 13.3613C65.4594 20.6383 70.2785 24.2244 73.7845 23.3444C75.1455 23.0024 83.9314 19.4463 93.3094 15.4403Z" fill="black"/>
</svg>
