<svg width="124" height="61" viewBox="0 0 124 61" fill="none" xmlns="http://www.w3.org/2000/svg">
<path d="M2.10886 6.69104C0.681862 4.53404 -0.242117 2.13403 0.0558832 1.35803C0.966883 -1.01697 3.42786 -0.222962 6.12986 3.31804C9.33186 7.51704 13.9778 18.418 20.0628 36.009C25.0758 50.504 27.7929 55.947 30.0169 55.947C30.7789 55.947 36.2979 52.95 42.2809 49.288C61.2239 37.692 73.5699 30.618 95.1599 18.99C106.71 12.769 117.407 6.81904 118.931 5.76704C121.987 3.65904 123.66 4.07204 123.66 6.93404C123.66 9.12903 119.867 11.495 93.1599 25.959C82.7099 31.619 65.1729 41.662 54.1889 48.278C30.5239 62.532 28.3549 63.102 23.2069 56.408C21.3149 53.948 18.3849 47.301 15.7129 39.408C10.2359 23.228 5.47386 11.776 2.10886 6.69104Z" fill="black"/>
</svg>
