<svg width="104" height="89" viewBox="0 0 104 89" fill="none" xmlns="http://www.w3.org/2000/svg">
<path fill-rule="evenodd" clip-rule="evenodd" d="M24.701 0.536082C23.6311 1.60708 23.853 7.11909 25.557 21.7651C26.412 29.1131 26.9621 35.2751 26.7791 35.4581C26.5961 35.6411 21.6059 36.2831 15.6899 36.8851C3.43494 38.1311 0 39.1471 0 41.5241C0 43.0391 1.342 43.1281 14.5 42.4891C26.759 41.8931 29 42.0051 29 43.2191C29 44.0081 29.267 45.9901 29.594 47.6221L30.187 50.5911L19.844 51.8402C8.23199 53.2432 2.86597 54.7462 2.19897 56.7832C1.74197 58.1792 6.29205 58.0812 25.5291 56.2822L31.559 55.7181L33.173 60.7662L34.787 65.8132L30.644 66.3001C28.365 66.5671 21.908 67.3101 16.295 67.9521C5.36304 69.2011 2.249 70.5052 3.349 73.3712C3.897 74.8002 4.81396 75.0221 8.26196 74.5621C10.593 74.2511 18.125 73.7041 25 73.3461L37.5 72.6951L39 77.0501C41.281 83.6721 42.918 81.4271 41.657 73.4041C41.568 72.8401 44.566 72.2781 48.537 72.1141L55.574 71.8251L58.861 79.8641C63.507 91.2271 65.0211 90.7111 63.0141 78.4511C61.8461 71.3201 62.207 70.9411 70.183 70.9191C76.441 70.9021 75.896 70.2942 78.013 79.6572C79.806 87.5872 81 86.9792 81 78.1372V70.2521L91.006 69.2391C100.28 68.2991 103.024 67.5952 101.879 66.4492C101.629 66.1992 96.7161 65.6372 90.9621 65.1992L80.5 64.4041L80.205 58.2722L79.911 52.1401L90.205 50.9421C102.144 49.5521 104 49.1281 104 47.7851C104 47.1831 99.237 46.8692 91.75 46.9752L79.5 47.1491L79.1961 43.0961L78.892 39.0432L83.1961 38.4761C85.5631 38.1651 90.1801 37.5712 93.4561 37.1572C102.756 35.9812 100.673 34.4601 89 33.9041L78.5 33.4041L77.7751 22.5372C77.0601 11.8272 76.1121 8.90412 73.3531 8.90412C70.9221 8.90412 69.822 14.0821 70.167 23.9041L70.5 33.4041H63.5341H56.568L55.291 21.9471C54.042 10.7481 52.5459 6.83016 50.0959 8.34516C49.3929 8.77916 49 13.6591 49 21.9631V34.9041H42.079C34.031 34.9041 35.0479 36.7561 32.4659 17.4041C31.5859 10.8041 30.33 4.28509 29.675 2.91609C28.478 0.415087 26.0061 -0.767918 24.701 0.536082ZM71.8101 44.1541L72.121 47.9041L67.0601 48.0711C64.2771 48.1621 61.22 48.2751 60.267 48.3211C59.017 48.3811 58.3641 47.3612 57.9261 44.6622C57.5911 42.6042 57.564 40.6732 57.866 40.3712C58.168 40.0692 61.359 39.9531 64.958 40.1131L71.5 40.4041L71.8101 44.1541ZM50.575 44.4511C50.941 46.4011 51.025 48.2122 50.762 48.4752C50.5 48.7382 47.352 49.2271 43.767 49.5611L37.25 50.1701L36.764 46.2872C36.497 44.1512 36.468 42.0661 36.698 41.6541C36.929 41.2421 39.996 40.9041 43.514 40.9041H49.9091L50.575 44.4511ZM73.3581 56.6541C74.7241 64.9151 74.7311 64.9041 67.5451 64.9041H61.091L60.458 61.1541C60.11 59.0921 59.618 56.6432 59.364 55.7142C58.994 54.3552 59.7471 53.9481 63.2021 53.6391C73.2521 52.7381 72.6831 52.5691 73.3581 56.6541ZM52.358 56.6541C52.629 57.6171 53.131 59.8022 53.473 61.5112C54.087 64.5732 54.0271 64.6282 49.4091 65.2612C40.4541 66.4892 40.195 66.3902 39.458 61.4752C39.093 59.0392 39.0921 56.5642 39.4561 55.9752C39.8201 55.3862 42.7609 54.9041 45.9919 54.9041C50.7309 54.9041 51.96 55.2421 52.358 56.6541Z" fill="black"/>
</svg>
