<svg width="76" height="54" viewBox="0 0 76 54" fill="none" xmlns="http://www.w3.org/2000/svg">
<path fill-rule="evenodd" clip-rule="evenodd" d="M15.1955 2.15421C14.7555 2.84221 14.5465 7.04324 14.7305 11.4912L15.0655 19.5772L8.31546 20.6952C0.931465 21.9192 -0.724495 22.8972 0.256505 25.4532C0.816505 26.9122 1.89049 27.0442 8.29349 26.4442L15.6845 25.7513L16.2465 28.5782C16.5555 30.1322 17.0934 33.0632 17.4414 35.0902C18.1424 39.1672 18.8216 38.8112 7.46256 40.3142C3.04256 40.8982 1.29545 42.1543 2.40445 43.9493C2.94245 44.8203 5.52145 45.0212 11.4255 44.6532L19.6935 44.1372L21.3705 48.5273C23.3395 53.6833 24.8765 53.3932 24.8765 47.8642C24.8765 43.5582 25.3145 43.2972 33.5645 42.6772L37.7525 42.3632L39.0645 47.7082C39.7865 50.6472 40.8265 53.1322 41.3765 53.2282C41.9265 53.3252 42.7815 50.6722 43.2775 47.3322L44.1785 41.2613L52.7775 40.0282C63.7325 38.4572 65.9845 37.8893 65.3465 36.8553C65.0615 36.3953 60.1155 36.2862 54.3525 36.6122L43.8765 37.2052V30.6003V23.9951L47.1265 23.4832C48.9135 23.2022 55.1015 22.2622 60.8765 21.3932C74.7065 19.3152 75.8765 19.0412 75.8765 17.8852C75.8765 17.2832 69.4965 16.9042 59.3765 16.9042H42.8765L42.8615 12.1542C42.8435 6.55621 41.8375 4.57624 39.2565 5.05924C37.7825 5.33624 37.1765 6.75924 36.4505 11.6582C35.7365 16.4822 35.1415 17.9042 33.8405 17.9042C32.9135 17.9042 30.1075 18.1852 27.6035 18.5282L23.0515 19.1523L22.3825 13.2782C21.5285 5.78523 21.0865 4.25719 19.2395 2.41019C17.4065 0.57619 16.2505 0.503208 15.1955 2.15421ZM36.2405 29.5442C37.3875 37.9112 37.5255 37.6892 30.9495 38.0652C25.1185 38.3992 25.0135 38.3572 24.4495 35.5292C24.1345 33.9482 23.8765 30.9102 23.8765 28.7792V24.9042H29.7405H35.6045L36.2405 29.5442Z" fill="black"/>
</svg>
