<svg width="37" height="43" viewBox="0 0 37 43" fill="none" xmlns="http://www.w3.org/2000/svg">
<path d="M8.55512 5.8876C1.24312 5.1866 -0.784908 4.0836 0.254092 1.3746C0.825092 -0.1134 1.89509 -0.25441 8.40509 0.29559C17.2671 1.04459 22.1571 3.28358 29.1481 9.79458C37.8811 17.9266 39.1201 24.4476 33.1811 31.0216C28.7161 35.9636 24.392 38.2636 14.428 40.9976C6.00904 43.3076 0.363101 43.2986 0.363101 40.9756C0.363101 39.9526 3.9001 38.4696 11.8631 36.1516C23.7591 32.6886 28.3681 30.1126 30.8011 25.5676C32.0401 23.2516 32.0181 22.4986 30.6201 19.5676C29.0441 16.2626 22.7441 10.4896 17.8631 7.8786C16.4881 7.1426 12.2991 6.2466 8.55512 5.8876Z" fill="black"/>
</svg>
