<svg width="31" height="43" viewBox="0 0 31 43" fill="none" xmlns="http://www.w3.org/2000/svg">
<path d="M1.49391 18.4618C3.19091 14.3998 10.0199 6.74779 15.5349 2.72879C20.6419 -0.992213 25.57 -0.892226 25.57 2.93377C25.57 4.97477 25.072 5.44176 22.856 5.47976C17.57 5.56876 6.75399 16.7688 5.50099 23.4518C4.66899 27.8838 5.42301 30.6858 8.45301 34.4338C10.708 37.2218 11.454 37.4688 19.026 37.9338C23.506 38.2088 27.4899 38.1148 27.8789 37.7258C29.2639 36.3388 31.299 38.6368 30.61 40.8088C29.983 42.7828 29.247 42.9338 20.225 42.9338C9.29299 42.9338 7.79991 42.3048 2.99891 35.6778C-0.360087 31.0398 -0.949092 24.3078 1.49391 18.4618Z" fill="black"/>
</svg>
