<svg width="136" height="84" viewBox="0 0 136 84" fill="none" xmlns="http://www.w3.org/2000/svg">
<path d="M15.8669 60.824C7.91692 45.076 -2.58298 3.63103 0.576023 0.472034C0.962023 0.0860339 1.93692 -0.100958 2.74192 0.0550417C3.78592 0.258042 5.13097 4.93702 7.42197 16.34C10.826 33.279 15.5789 48.398 20.6429 58.4C26.0979 69.173 35.7029 75.675 49.3749 77.853C67.5009 80.741 92.1159 72.475 105.992 58.841C114.074 50.9 117.817 43.794 121.907 28.632C123.582 22.422 125.68 15.405 126.568 13.041C128.521 7.846 132.499 4.28303 134.496 5.94103C135.595 6.85303 135.404 7.79503 133.432 11.196C132.11 13.475 130.042 18.94 128.837 23.34C125.249 36.429 122.721 44.098 120.594 48.34C113.542 62.409 98.5729 74.156 80.6549 79.684C51.3159 88.734 26.2759 81.445 15.8669 60.824Z" fill="black"/>
</svg>
