<svg width="142" height="79" viewBox="0 0 142 79" fill="none" xmlns="http://www.w3.org/2000/svg">
<path d="M13.3199 29.4366C24.6639 12.3466 37.6668 3.5356 55.3328 0.967597C65.1938 -0.465403 84.9828 -0.276406 93.4948 1.33359C111.215 4.68359 129.215 17.6456 135.707 31.7296C140.158 41.3856 142.139 51.5576 141.381 60.8516C140.286 74.2576 139.884 75.8516 137.592 75.8516C135.591 75.8516 135.546 75.4996 136.133 64.5466C137.176 45.0876 133.215 33.0066 122.246 22.1906C114.733 14.7826 102.879 8.56163 91.8328 6.23063C86.0858 5.01863 80.9428 4.77658 69.8328 5.19858C50.5898 5.92858 41.5458 8.5536 31.8588 16.2186C17.9078 27.2586 6.49478 50.0106 4.98579 69.7886C4.39979 77.4676 4.12583 78.3516 2.33283 78.3516C0.579831 78.3516 0.295834 77.5856 0.0358341 72.1406C-0.520166 60.5036 5.46089 41.2766 13.3199 29.4366Z" fill="black"/>
</svg>
