<svg width="475" height="19" viewBox="0 0 475 19" fill="none" xmlns="http://www.w3.org/2000/svg">
<path d="M391.016 6.9071L422.017 3.50123C455.645 -0.192549 472.574 -0.948992 474.339 1.16245C476.262 3.4615 474.135 4.35096 466.019 4.63884C458.717 4.89793 435.391 7.11362 394.516 11.4318C380.606 12.902 373.625 12.9506 326.513 11.9103C297.637 11.272 259.16 10.045 241.01 9.18335C215.201 7.95739 194.604 7.73702 146.506 8.16983C80.9223 8.76047 80.6453 8.77736 35.5014 14.9528C0.929038 19.683 0 19.7564 0 17.7691C0 14.9201 5.80522 13.6286 38.2625 9.25879C64.7336 5.69505 75.886 4.66367 96.5038 3.87052C138.949 2.23854 208.303 2.39539 243.01 4.20406C260.105 5.0935 300.255 6.06231 332.513 6.3621L391.016 6.9071Z" fill="black"/>
</svg>
