<svg width="538" height="11" viewBox="0 0 538 11" fill="none" xmlns="http://www.w3.org/2000/svg">
<path d="M355.485 1.61838C376.935 1.02354 398.759 0.394451 403.983 0.220031C423.939 -0.44438 519.89 0.519422 528.317 1.46916C537.152 2.46426 538.925 3.00975 537.614 4.33152C537.231 4.71766 491.146 5.36993 435.202 5.78027C366.678 6.28336 322.882 7.05066 300.988 8.13348C249.49 10.6782 181.412 11.5775 111.603 10.6348C76.3459 10.1589 45.4731 9.53184 42.9982 9.24248C40.5233 8.95212 29.8358 7.95705 19.2492 7.0305C4.71481 5.75915 0 5.01705 0 4.00279C0 1.47924 5.49777 1.24837 23.999 2.99156C34.1736 3.95138 58.2476 5.21068 77.4968 5.79141C124.018 7.19584 252.791 6.24507 288.988 4.23066C304.113 3.3888 334.036 2.21423 355.485 1.61838Z" fill="black"/>
</svg>
