<svg width="446" height="16" viewBox="0 0 446 16" fill="none" xmlns="http://www.w3.org/2000/svg">
<path d="M268.5 1.98621C281.7 1.61021 326.25 0.992244 367.5 0.612244C408.75 0.232244 443.138 -0.0417511 443.917 0.00524892C444.697 0.0512489 445.511 0.62124 445.728 1.27124C446.835 4.59624 442.294 4.84726 366.068 5.67926C264.17 6.79126 152.141 9.96321 65.5 14.1892C26.352 16.0992 3.79103 15.8093 1.34603 13.3643C-2.17797 9.84026 2.44003 6.23621 7.01603 8.93921C10.347 10.9072 28.233 11.1473 55.5 9.58826C64.85 9.05426 96.35 7.71925 125.5 6.62225C174.256 4.78725 203.9 3.82621 268.5 1.98621Z" fill="black"/>
</svg>
