<svg width="527" height="18" viewBox="0 0 527 18" fill="none" xmlns="http://www.w3.org/2000/svg">
<path d="M89.9257 3.24741C99.5827 1.73742 110.508 1.01601 132.421 0.440638C168.014 -0.494955 295.934 0.169996 316.903 1.39863C345.774 3.09068 415.826 3.65731 450.89 2.48319C475.523 1.65761 490.119 1.62745 503.884 2.3732C524.571 3.49377 527.771 3.90653 526.864 5.33572C526.505 5.90136 517.27 6.28106 503.871 6.28106C491.555 6.28106 466.046 6.98688 447.186 7.84848C408.506 9.61744 373.982 9.25822 320.403 6.52932C295.124 5.24227 269.249 4.86843 203.914 4.84799C113.207 4.81878 118.208 4.58898 77.4269 10.6582C32.0394 17.4137 1.36351 19.7776 0.116632 16.6145C-0.708286 14.5223 2.90334 13.096 9.02773 13.096C19.2937 13.096 53.8493 8.8892 89.9257 3.24741Z" fill="black"/>
</svg>
