<svg width="579" height="25" viewBox="0 0 579 25" fill="none" xmlns="http://www.w3.org/2000/svg">
<path d="M427.995 2.0414C497.574 1.46735 559.454 0.711855 565.504 0.36286C571.555 0.0128725 577.091 -0.104098 577.808 0.101136C580.262 0.806067 578.643 4.51514 575.523 5.33707C567.108 7.55597 515.412 8.70603 313.486 11.1688C268.383 11.7181 225.18 12.6134 217.48 13.1567C209.779 13.7 187.052 15.4589 166.976 17.0651C122.936 20.5888 102.55 21.7418 68.969 22.6093C54.943 22.9722 33.8625 23.7733 22.1227 24.391C2.95433 25.3983 -3.42812 25.1624 1.69925 23.6355C9.58681 21.2868 46.9465 17.7145 75.4695 16.5813C98.7312 15.6572 131.435 13.3391 166.476 10.1308C238.125 3.57024 236.521 3.61982 427.995 2.0414Z" fill="black"/>
</svg>
