<svg width="1502" height="45" viewBox="0 0 1502 45" fill="none" xmlns="http://www.w3.org/2000/svg">
<path d="M948 2.80512C983.475 2.19712 1020.6 1.35417 1030.5 0.933167C1076.3 -1.01583 1167.28 0.232149 1206 3.34015C1216.18 4.15715 1231.47 4.83616 1240 4.85016C1264.88 4.89116 1300.54 7.4432 1338 11.8642C1370.05 15.6462 1417.07 17.0452 1439 14.8692C1469.25 11.8672 1475.1 11.5951 1485.06 12.7271C1494.48 13.7991 1502.99 16.2082 1501.75 17.4532C1501.44 17.7612 1492.48 18.1862 1481.84 18.3972C1471.2 18.6092 1458.9 19.2432 1454.5 19.8082C1428.3 23.1702 1384.55 21.9681 1328.5 16.3461C1309.8 14.4711 1286.62 12.4912 1277 11.9472C1257.81 10.8622 1148.15 9.3622 1092 9.4162C1009 9.4952 844.238 12.7642 766.5 15.8742C752.2 16.4462 714.175 17.5712 682 18.3742C649.825 19.1772 616.525 20.2772 608 20.8192C578.868 22.6702 529.527 24.8252 492.5 25.8632C457.426 26.8462 439.236 27.725 409.5 29.871C402.35 30.388 381.425 31.5241 363 32.3981C344.575 33.2711 317.8 35.1402 303.5 36.5502C279.753 38.8922 271.608 39.1801 209.5 39.8781C155.032 40.4901 138.018 41.0041 124 42.4611C110.687 43.8441 99.203 44.2472 76 44.1442C48.219 44.0212 44.208 43.7832 31 41.4782C23.025 40.0862 12.8 38.6401 8.27804 38.2651C3.75604 37.8901 0.296038 37.197 0.587038 36.725C1.59904 35.088 13.757 35.8791 28.592 38.5471C42.451 41.0391 45.436 41.224 71 41.183C91.574 41.15 103.663 40.607 119 39.027C152.189 35.61 166.88 34.8411 217 33.8991C253.983 33.2041 268.453 32.5491 282.355 30.9421C315.558 27.1041 330.404 25.8931 363 24.3671C380.875 23.5301 404.275 22.1791 415 21.3661C446.751 18.9571 447.95 18.8891 486.5 17.3211C506.85 16.4931 547.35 14.4961 576.5 12.8831C628.367 10.0121 660.286 9.0072 767.5 6.8692C796.65 6.2872 834.675 5.38415 852 4.86115C869.325 4.33815 912.525 3.41312 948 2.80512Z" fill="black"/>
</svg>
