<svg width="1525" height="28" viewBox="0 0 1525 28" fill="none" xmlns="http://www.w3.org/2000/svg">
<path d="M1229 2.84048C1271.5 5.69348 1294.45 5.39044 1337.5 1.40444C1360.34 -0.710555 1379.16 -0.45148 1401.1 2.28152C1441.98 7.37152 1445.8 7.48556 1500.14 5.24856C1516.81 4.56256 1525.38 5.23146 1524.73 7.16946C1524.01 9.32446 1508.63 12.9685 1489.5 15.5135C1473.22 17.6785 1468.21 17.9565 1454.5 17.4505C1436.79 16.7975 1416.27 14.8134 1399.5 12.1334C1384.93 9.80445 1352.64 9.84749 1330 12.2255C1301.23 15.2485 1276.51 15.4145 1243 12.8115C1207.87 10.0825 1204.68 10.0595 1024.5 11.2525C901.732 12.0645 888.069 11.9915 861.5 10.3765C824.988 8.15749 776.491 8.7085 739.5 11.7615C725.75 12.8975 703.475 14.2815 690 14.8385C676.525 15.3945 649.3 16.5845 629.5 17.4815C597.413 18.9345 583.314 18.9805 499.79 17.9055C448.249 17.2415 405.638 16.9715 405.099 17.3045C404.559 17.6385 371.129 18.3445 330.809 18.8745C290.489 19.4045 250.975 20.2825 243 20.8245C235.025 21.3675 217.475 22.2815 204 22.8555C190.525 23.4305 169.6 24.3465 157.5 24.8915C118.987 26.6265 78.636 27.3736 38.681 27.0926C2.533 26.8376 -0.114996 26.7006 0.194004 25.0926C0.502004 23.4906 4.508 23.3205 55.513 22.7465C85.756 22.4055 121.75 21.6025 135.5 20.9615C163.288 19.6665 229.537 15.2765 243.5 13.8045C248.45 13.2825 277.475 12.4295 308 11.9075C338.525 11.3865 376.55 10.4706 392.5 9.87356C419.826 8.84956 506.901 9.65545 559 11.4145C586.238 12.3345 676.121 8.35149 733 3.70449C768.782 0.781493 828.863 0.112538 861.516 2.27554C890.987 4.22654 970.68 4.38351 1113.5 2.77151C1188.03 1.93051 1215.69 1.94648 1229 2.84048Z" fill="black"/>
</svg>
