<svg width="436" height="15" viewBox="0 0 436 15" fill="none" xmlns="http://www.w3.org/2000/svg">
<path d="M143 4.69526C178.078 2.97226 231.95 1.08929 269 0.290295C317.223 -0.749705 422.41 1.1803 432.797 3.2953C436.816 4.1133 436.966 7.33927 432.969 6.96827C431.611 6.84327 408.225 6.25026 381 5.65126C310.487 4.10126 235.888 5.37328 144.5 9.68428C121.95 10.7483 85.05 12.0813 62.5 12.6473C39.95 13.2123 17.832 13.9243 13.35 14.2303C4.225 14.8523 0 14.1673 0 12.0673C0 11.2903 1.013 10.2542 2.25 9.76625C3.487 9.27725 27 8.36225 54.5 7.73225C82 7.10225 121.825 5.73626 143 4.69526Z" fill="black"/>
</svg>
