<svg width="362" height="16" viewBox="0 0 362 16" fill="none" xmlns="http://www.w3.org/2000/svg">
<path d="M209.034 3.93044C261.994 2.04444 296.434 0.807414 303.461 0.538414C307.311 0.390414 322.048 0.182424 336.211 0.0744243C361.36 -0.116576 361.961 -0.0745596 361.961 1.87844C361.961 3.39344 361.294 3.87945 359.211 3.88045C353.743 3.88545 292.577 5.91543 253.461 7.38943C191.05 9.74143 144.492 10.8515 106.961 10.8805C71.3513 10.9085 49.6683 11.7925 20.6733 14.3985C8.73333 15.4715 3.31833 15.6044 1.92333 14.8574C-2.62967 12.4214 1.28233 9.88747 9.64533 9.85647C12.8443 9.84547 22.6613 9.15745 31.4613 8.32845C42.1583 7.32145 69.5273 6.51047 114.034 5.88247C150.649 5.36547 193.399 4.48744 209.034 3.93044Z" fill="black"/>
</svg>
