<svg width="523" height="14" viewBox="0 0 523 14" fill="none" xmlns="http://www.w3.org/2000/svg">
<path d="M3.57255 6.18922C11.1203 4.18862 39.6285 1.39031 61.9353 0.45995C79.3878 -0.268386 156.128 0.857767 172.534 2.08237C183.897 2.93088 215.15 3.33497 266.617 3.29768C330.536 3.25209 347.699 2.92884 367.206 1.40379C387.072 -0.148195 396.172 -0.303628 425.758 0.403987C445.025 0.865024 469.797 1.04219 480.807 0.797687C513.637 0.0672789 521.118 0.219555 522.492 1.64307C524.281 3.49655 521.411 5.49405 512.836 8.36595L505.829 10.7126L445.276 10.3872C391.138 10.0961 382.124 10.2868 360.2 12.1838C336.878 14.202 330.853 14.2745 237.091 13.6633C182.868 13.3089 107.426 12.967 69.442 12.9017L0.380693 12.7847L0.0694426 9.99254C-0.204801 7.53194 0.210568 7.08021 3.57255 6.18922Z" fill="black"/>
</svg>
