<svg width="417" height="20" viewBox="0 0 417 20" fill="none" xmlns="http://www.w3.org/2000/svg">
<path d="M251.053 2.78324C281.028 2.17024 316.128 1.32823 329.053 0.911231C361.104 -0.121769 392.581 -0.295803 405.397 0.488197C414.859 1.0672 416.053 1.3472 416.053 2.9882C416.053 4.7362 414.69 4.83722 390.803 4.84922C376.916 4.85622 352.053 5.29422 335.553 5.82322C319.053 6.35222 281.703 7.25923 252.553 7.83823C183.337 9.21423 151.922 10.3612 116.553 12.8022C100.603 13.9032 75.8527 15.2602 61.5527 15.8162C47.2527 16.3732 28.4176 17.4952 19.6966 18.3112C8.75465 19.3342 3.25365 19.4792 1.94665 18.7792C-2.44935 16.4272 0.968648 13.8402 8.50265 13.8182C11.8306 13.8082 18.6027 13.3692 23.5527 12.8412C28.5027 12.3142 44.7027 11.4122 59.5527 10.8372C74.4026 10.2622 99.3776 8.90123 115.053 7.81223C150.488 5.35123 181.401 4.20824 251.053 2.78324Z" fill="black"/>
</svg>
