<svg width="193" height="169" viewBox="0 0 193 169" fill="none" xmlns="http://www.w3.org/2000/svg">
<path d="M97.75 1.66172C98.987 1.58572 114.85 1.2217 133 0.852701C191.986 -0.346299 190.121 -0.361314 191.52 1.32469C193.202 3.35169 192.163 4.19869 187.697 4.43669C182.87 4.69468 109.129 6.77268 104.25 6.78867C100.812 6.79967 100.5 7.0337 100.5 9.6027C100.5 11.1447 102.055 17.9107 103.955 24.6397C108.511 40.7777 117.19 83.6497 123.622 121.801C126.038 136.129 126.428 157.301 124.316 159.414C123.221 160.509 117.142 161.07 97.946 161.847C84.226 162.403 61.525 163.967 47.5 165.324C33.475 166.681 17.05 167.906 11 168.046C0.582 168.288 0 168.195 0 166.301C0 164.496 0.927 164.225 9.5 163.52C14.725 163.09 30.925 161.641 45.5 160.3C60.075 158.959 79.2 157.608 88 157.299C96.8 156.989 107.713 156.485 112.25 156.178L120.5 155.621L120.482 145.461C120.472 139.873 119.833 131.251 119.062 126.301C114.417 96.4977 103.407 41.8267 98.986 26.6127C96.615 18.4557 95.5 12.5677 95.5 8.2097C95.5 2.2707 95.665 1.79072 97.75 1.66172Z" fill="black"/>
</svg>
