<svg width="160" height="175" viewBox="0 0 160 175" fill="none" xmlns="http://www.w3.org/2000/svg">
<path d="M82.8044 56.9523C85.2344 10.7983 85.8404 2.74032 86.9914 1.35332C88.5285 -0.498675 91.8234 -0.436679 92.5504 1.45832C92.8684 2.28732 92.4304 5.77432 91.5774 9.20832C90.1834 14.8193 89.3984 25.3873 87.2644 67.2543L86.6114 80.0553L121.844 79.8883C157.919 79.7163 162.072 80.1193 157.686 83.3603C155.831 84.7303 129.267 85.9523 101.319 85.9523H86.0504L85.7095 126.202C85.4015 162.604 85.1934 166.858 83.5304 170.702C82.2454 173.672 81.0904 174.952 79.6924 174.952C78.0084 174.952 77.8024 174.517 78.3884 172.202C80.4534 164.044 80.8984 155.193 80.9034 122.202L80.9094 85.9523L60.6594 85.9613C46.5484 85.9673 34.9524 86.6053 22.4094 88.0653C12.5094 89.2173 3.50942 90.2253 2.40942 90.3063C-0.262585 90.5013 -0.966568 86.3633 1.60143 85.5543C6.77943 83.9223 32.3834 81.7243 55.2684 80.9463C69.4904 80.4633 81.2384 79.9293 81.3744 79.7603C81.5094 79.5903 82.1534 69.3273 82.8044 56.9523Z" fill="black"/>
</svg>
