<svg width="112" height="120" viewBox="0 0 112 120" fill="none" xmlns="http://www.w3.org/2000/svg">
<path d="M56.0224 24.7337C56.0224 8.37967 56.3564 1.82568 57.2354 0.94768C60.1144 -1.93232 60.5255 0.702688 60.7915 23.7357L61.0604 47.0457L68.7915 46.4007C73.0435 46.0457 84.2854 45.4607 93.7724 45.1017C110.972 44.4507 111.022 44.4547 111.022 46.6047C111.022 47.7897 110.46 48.7577 109.772 48.7547C106.722 48.7407 63.4154 51.8927 62.4864 52.1947C60.4384 52.8627 62.8494 76.3957 67.6944 103.031C69.7574 114.375 70.1074 118.075 69.2014 118.981C67.4704 120.712 66.1574 118.952 64.4845 112.659C62.0795 103.61 58.1185 77.9457 57.2075 65.5047C56.7335 59.0397 56.0434 53.4477 55.6744 53.0787C55.3044 52.7087 46.3444 53.1607 35.7624 54.0817C-2.13059 57.3807 0.0224179 57.3277 0.0224179 54.9627C0.0224179 53.8157 0.386476 52.6527 0.832476 52.3777C1.27748 52.1017 13.8775 50.8487 28.8325 49.5917L56.0224 47.3067V24.7337Z" fill="black"/>
</svg>
