<svg width="166" height="168" viewBox="0 0 166 168" fill="none" xmlns="http://www.w3.org/2000/svg">
<path fill-rule="evenodd" clip-rule="evenodd" d="M49.94 0.752536C37.242 2.28554 31.6111 5.69652 19.2971 19.3145C17.8441 20.9225 14.106 24.4395 10.991 27.1315C-10.126 45.3805 -0.117954 70.9495 35.032 88.5555C38.383 90.2335 41.818 92.6655 42.666 93.9605C44.116 96.1725 44.039 96.5035 41.373 99.4865C35.997 105.503 35.362 113.85 39.373 125.738C40.394 128.763 41.753 133.178 42.393 135.55C43.977 141.417 49.241 146.958 59.885 153.963C74.231 163.405 82.709 167.112 90.94 167.543C97.012 167.86 98.404 167.594 101.44 165.535C110.721 159.24 113.14 143.337 106.301 133.584C105.278 132.124 104.44 130.661 104.44 130.334C104.44 130.006 106.385 129.738 108.762 129.738C115.306 129.738 121.893 127.05 126.404 122.539C128.624 120.319 130.44 118.119 130.44 117.651C130.44 117.183 133.028 115.151 136.19 113.135C153.981 101.798 160.302 91.8675 163.918 69.5725C166.689 52.4875 165.872 45.2815 160.223 36.9725C156.488 31.4785 144.579 23.1245 137.583 21.0905C133.41 19.8775 130.926 18.2785 127.032 14.2995C120.894 8.02553 111.715 3.30752 101.44 1.14252C94.357 -0.34948 91.429 -0.363464 72.44 1.00254C71.065 1.10154 66.79 0.922533 62.94 0.605533C59.09 0.288533 53.24 0.354536 49.94 0.752536ZM101.855 6.71552C110.338 8.88552 118.108 12.6915 121.563 16.3685L123.789 18.7375L120.364 18.7955C118.481 18.8265 113.899 19.6455 110.182 20.6155C103.908 22.2515 103.318 22.2595 101.932 20.7285C101.111 19.8215 100.44 17.7315 100.44 16.0835C100.44 12.6365 97.746 9.70952 91.883 6.78452L87.94 4.81751L91.03 4.77753C92.73 4.75553 97.6011 5.62752 101.855 6.71552ZM64.055 8.20252C63.167 9.55752 62.44 11.5485 62.44 12.6255C62.44 15.6075 66.679 20.0105 72.607 23.1865C75.54 24.7585 78.1291 26.2015 78.3611 26.3945C78.5921 26.5875 77.854 27.7565 76.721 28.9915C73.394 32.6175 60.3641 52.9005 58.7091 57.0285C57.8741 59.1145 57.0091 60.6396 56.7881 60.4186C56.5671 60.1976 55.483 53.7666 54.38 46.1276C51.889 28.8786 50.326 23.9885 45.947 19.7445C42.936 16.8255 41.649 16.3285 35.795 15.8195L29.091 15.2375L33.315 12.3165C39.993 7.70053 46.786 5.80751 56.805 5.77051L65.67 5.73752L64.055 8.20252ZM92.19 12.8915C96.024 15.2615 96.3661 16.7375 93.08 16.7375C91.781 16.7375 89.061 17.8625 87.035 19.2375C85.009 20.6125 82.872 21.7375 82.286 21.7375C80.263 21.7375 69.3271 15.3955 68.4171 13.6945C67.4681 11.9205 68.8691 10.1225 72.8651 7.98954C75.1951 6.74554 87.153 9.77951 92.19 12.8915ZM42.436 23.5795C45.88 27.0235 46.794 30.2305 49.416 48.0765C51.615 63.0405 55.5391 80.1965 58.0061 85.6335C58.8541 87.5035 59.164 89.4136 58.696 89.8816C57.659 90.9186 46.831 88.2185 43.631 86.1245C41.187 84.5255 30.831 69.3725 26.903 61.6495C20.474 49.0065 18.594 36.3155 21.925 28.0415C23.31 24.6005 24.362 23.5815 27.777 22.3705C34.66 19.9315 39.159 20.3025 42.436 23.5795ZM98.102 26.5045C97.159 27.4465 95.866 27.6905 94.353 27.2095L92.044 26.4765L94.3711 24.5925C96.2001 23.1115 97.0031 22.9605 98.1201 23.8865C99.3471 24.9045 99.344 25.2615 98.102 26.5045ZM129.326 28.6205C130.455 32.1875 130.492 34.2375 129.526 39.6425C127.793 49.3395 127.571 49.4606 121.755 43.8546C118.969 41.1686 113.457 37.0835 109.507 34.7765C101.349 30.0125 101.317 28.8925 109.267 26.3565C116.297 24.1135 117.511 23.9115 122.94 24.0815C127.928 24.2375 127.943 24.2475 129.326 28.6205ZM143.425 29.5215C150.329 33.4865 157.144 40.3956 159.034 45.3456C160.322 48.7176 160.592 51.6065 160.168 57.5035C159.495 66.8865 156.997 79.1735 154.296 86.3915C152.049 92.3975 144.568 101.178 137.628 105.952L133.121 109.054L133.998 98.1455C135.429 80.3525 134.967 69.1406 132.504 61.8816L130.347 55.5255L132.63 48.8816C134.275 44.0906 134.916 39.9405 134.926 33.9995C134.942 24.6135 134.91 24.6305 143.425 29.5215ZM15.163 37.4875C15.156 41.7495 15.712 47.2626 16.4 49.7376C18.094 55.8316 23.437 66.8976 28.351 74.4875C30.576 77.9256 32.1601 80.7375 31.8701 80.7375C30.2151 80.7375 19.848 73.1025 15.223 68.4775C6.66596 59.9205 3.46998 51.2786 5.88898 43.2396C6.98898 39.5846 13.5431 29.7375 14.8751 29.7375C15.0411 29.7375 15.17 33.2255 15.163 37.4875ZM92.566 33.8555C90.905 39.9945 90.473 43.3955 90.999 46.1975C91.558 49.1775 91.1281 49.9195 86.0841 54.6895C82.3501 58.2215 79.1291 62.6745 76.1571 68.4165L71.7561 76.9156L70.348 73.5765C69.508 71.5855 68.965 67.0086 69.002 62.2376C69.091 50.9386 71.839 44.3875 79.968 36.0965L86.275 29.6645L89.607 31.0685C91.563 31.8935 92.786 33.0445 92.566 33.8555ZM111.744 42.4746C115.486 44.9436 118.399 47.1116 118.217 47.2936C118.035 47.4766 115.873 47.1595 113.413 46.5895C110.953 46.0195 106.168 45.7996 102.779 46.0996C97.818 46.5396 96.504 46.3476 96.03 45.1126C95.398 43.4636 96.158 39.3275 97.617 36.4815C98.459 34.8385 98.723 34.8305 101.728 36.3555C103.495 37.2525 108.002 40.0056 111.744 42.4746ZM117.139 53.5836C119.369 54.7216 121.454 56.3316 121.772 57.1616C122.322 58.5936 116.035 67.6336 113.326 69.3086C112.019 70.1156 106.562 64.3745 101.403 56.7625C98.631 52.6735 98.523 52.2226 100.155 51.5226C103.173 50.2266 112.865 51.4036 117.139 53.5836ZM103.782 68.3835L108.439 73.5295L103.689 76.5746C101.077 78.2486 95.695 80.9986 91.728 82.6855C84.653 85.6936 84.44 85.7215 80.478 84.1365C78.257 83.2475 76.44 81.8535 76.44 81.0375C76.44 77.8285 85.737 61.7025 89.597 58.2145L93.6001 54.5985L96.363 58.9175C97.882 61.2935 101.221 65.5535 103.782 68.3835ZM66.806 77.8456C68.851 81.7876 69.33 83.8045 68.841 86.4125C68.488 88.2935 67.694 89.6555 67.071 89.4485C65.241 88.8405 60.507 76.5755 60.472 72.3535C60.454 70.2175 61.003 66.6175 61.69 64.3535L62.94 60.2376L63.536 66.4636C63.901 70.2876 65.163 74.6786 66.806 77.8456ZM121.568 69.4985C120.376 71.7255 116.44 75.3315 116.44 74.1975C116.44 73.3835 121.441 67.7375 122.162 67.7375C122.354 67.7375 122.086 68.5305 121.568 69.4985ZM129.933 75.6685C130.316 79.4805 130.318 84.0186 129.937 85.7516L129.245 88.9035L127.689 86.5706C126.833 85.2876 125.063 83.0726 123.754 81.6486L121.375 79.0605L124.658 73.9576C126.463 71.1506 128.232 68.8276 128.589 68.7956C128.945 68.7636 129.55 71.8566 129.933 75.6685ZM112.44 78.1306C112.44 78.3466 111.742 78.7915 110.888 79.1195C109.998 79.4605 109.597 79.2926 109.947 78.7266C110.534 77.7756 112.44 77.3206 112.44 78.1306ZM125.125 92.5175L127.666 96.7986L125.052 100.749C121.428 106.225 116.096 108.738 108.102 108.738C103.641 108.738 101.309 108.284 100.45 107.25C98.454 104.845 101.338 104.442 108.549 106.118C114.816 107.575 117.392 107.088 115.931 104.723C114.467 102.355 108.377 100.738 100.923 100.738C93.6241 100.738 93.12 100.581 87.353 96.5135C80.598 91.7495 80.9891 90.9326 90.0851 90.8076C95.9421 90.7276 105.815 87.8315 112.44 84.2495L116.94 81.8166L119.762 85.0266C121.314 86.7925 123.728 90.1635 125.125 92.5175ZM67.008 101.405C71.593 108.568 69.442 108.923 60.312 102.512C54.083 98.1365 53.3191 97.2916 54.9901 96.6176C56.0621 96.1846 58.461 95.9215 60.32 96.0335C63.208 96.2075 64.181 96.9885 67.008 101.405ZM81.69 99.0366C83.753 100.175 85.44 101.481 85.44 101.939C85.44 102.743 77.507 98.9736 74.44 96.7126C72.006 94.9186 77.307 96.6176 81.69 99.0366ZM54.685 104.778C58.125 107.551 60.715 110.135 60.44 110.521C60.165 110.908 57.328 112.969 54.135 115.101C50.942 117.233 47.612 120.072 46.736 121.409C45.86 122.746 44.766 123.464 44.306 123.004C42.661 121.359 41.509 112.072 42.503 108.471C43.365 105.35 46.902 99.7375 48.008 99.7375C48.24 99.7375 51.245 102.006 54.685 104.778ZM128.025 109.257C127.241 112.381 122.281 114.762 116.722 114.686L112.94 114.634L118.023 112.678C120.818 111.603 124.157 109.603 125.443 108.234C128.177 105.325 128.936 105.625 128.025 109.257ZM104.44 116.219C107.756 117.932 112.323 119.305 115.94 119.677L121.94 120.295L118.795 121.988C114.555 124.27 108.528 125.128 102.785 124.267C98.666 123.649 97.073 122.619 90.739 116.478C86.725 112.585 83.44 109.11 83.44 108.756C83.44 107.762 98.276 113.034 104.44 116.219ZM76.3391 118.398C91.1811 126.44 95.446 129.507 97.019 133.274C98.959 137.915 97.9621 141.238 93.6461 144.527C90.3481 147.041 89.3891 147.238 80.4601 147.238C71.356 147.238 70.4201 147.035 63.2771 143.503C56.2851 140.046 47.44 132.39 47.44 129.795C47.44 126.871 63.2581 113.785 66.8391 113.748C67.3331 113.742 71.6081 115.835 76.3391 118.398ZM105.103 149.43C103.231 160.965 95.725 165.22 84.336 161.201C79.932 159.647 63.2111 150.633 63.7451 150.1C63.9031 149.941 66.262 150.486 68.987 151.311C75.852 153.389 88.3921 153.321 92.6211 151.182C97.0061 148.965 100.274 145.916 102.207 142.238L103.784 139.238L104.704 142.731C105.209 144.652 105.389 147.666 105.103 149.43Z" fill="black"/>
</svg>
