<svg width="264" height="251" viewBox="0 0 264 251" fill="none" xmlns="http://www.w3.org/2000/svg">
<path fill-rule="evenodd" clip-rule="evenodd" d="M125.685 0.359408C81.5854 3.89541 46.5623 25.5584 37.4613 54.9294C36.0953 59.3364 34.9644 60.7404 29.4064 64.9294C17.9254 73.5824 10.0574 85.3724 6.13438 99.8024C3.76938 108.498 2.79635 124.952 4.20335 132.439C5.07735 137.09 4.92435 139.714 3.32835 147.439C-5.32065 189.3 3.01034 219.871 26.8783 233.858C39.0023 240.964 55.2313 244.205 69.7743 242.426C78.1473 241.402 78.4413 241.439 84.5943 244.303C93.9783 248.67 101.604 250.302 112.635 250.302C132.521 250.302 148.851 243.885 153.987 234.052C155.322 231.496 155.866 231.302 161.714 231.302C168.866 231.302 177.672 229.907 184.604 227.676C187.206 226.839 193.456 225.309 198.492 224.277C214.196 221.06 223.573 215.042 229.109 204.628C232.49 198.268 234.848 187.745 233.879 183.336C233.376 181.044 234.148 179.382 238.213 174.012C245.895 163.863 251.372 147.633 251.372 135.019C251.372 131.158 252.118 128.892 254.849 124.453C265.018 107.925 266.931 83.9724 259.496 66.2754C253.648 52.3574 239.192 36.3554 222.834 25.6924C212.433 18.9124 205.788 15.8984 188.126 9.94739C164.499 1.98639 144.22 -1.12759 125.685 0.359408ZM154.081 6.49341L161.872 7.68341L150.372 9.3494C144.047 10.2654 137.184 11.4934 135.121 12.0784C132.976 12.6864 127.408 12.9134 122.121 12.6074C111.187 11.9754 104.107 13.1404 93.8014 17.2674C81.5594 22.1694 72.9384 28.3844 59.8724 41.7284C49.3694 52.4554 44.9113 56.3024 42.9823 56.3024C41.8333 56.3024 45.5203 47.9184 48.9273 42.7864C60.1353 25.8994 85.4894 11.8854 113.872 6.89041C123.9 5.12541 143.842 4.92841 154.081 6.49341ZM187.672 16.2254C208.033 21.5004 225.701 36.3414 235.154 56.1084C239.755 65.7314 240.515 74.3324 237.467 82.3024C234.325 90.5154 233.87 91.0534 231.683 89.1294C229.093 86.8494 222.547 83.6964 217.695 82.3894C213.929 81.3754 213.004 80.4294 208.067 72.5354C205.063 67.7324 201.703 61.7224 200.601 59.1804C196.737 50.2664 169.96 29.4984 151.119 20.8024C146.352 18.6024 142.434 16.4974 142.412 16.1244C142.39 15.7514 144.959 15.1544 148.122 14.7974C151.285 14.4414 154.322 13.9614 154.872 13.7314C157.52 12.6234 180.522 14.3734 187.672 16.2254ZM107.5 22.2884C96.9743 27.4354 88.1854 32.9604 80.3724 39.3394C77.2894 41.8574 73.9034 43.4784 69.6224 44.4854C66.1854 45.2954 63.3724 45.6644 63.3724 45.3074C63.3724 44.3764 74.9514 34.2984 81.0054 29.9604C90.3244 23.2834 105.355 17.6034 114.283 17.3854C117.187 17.3144 116.178 18.0444 107.5 22.2884ZM143.816 23.2074C152.19 26.5704 163.263 32.8324 172.263 39.2944L177.654 43.1644L169.022 42.9834C164.275 42.8844 160.387 42.5394 160.382 42.2194C160.376 41.8984 158.685 39.9244 156.622 37.8334C146.193 27.2584 130.434 27.3994 116.872 38.1894C107.981 45.2624 102.824 48.0154 100.276 47.0494C98.9544 46.5484 94.7903 45.3714 91.0243 44.4344L84.1753 42.7304L90.2034 38.5014C99.1684 32.2134 107.752 27.5354 118.372 23.1514C129.59 18.5194 132.159 18.5254 143.816 23.2074ZM146.154 36.8554C149.832 38.3914 155.372 42.9554 155.372 44.4494C155.372 44.8744 153.649 45.7384 151.542 46.3694C148.221 47.3644 147.172 47.2404 143.633 45.4354C141.39 44.2914 136.252 42.2424 132.217 40.8834L124.879 38.4134L128.376 36.8964C132.938 34.9184 141.47 34.8984 146.154 36.8554ZM240.536 47.2494C253.731 61.8074 258.876 74.1434 258.702 90.8024C258.619 98.7084 258.047 102.477 255.966 108.802C254.519 113.202 252.761 117.822 252.059 119.069C250.866 121.19 250.641 120.856 248.6 113.916C247.308 109.526 244.67 103.943 242.14 100.246L237.864 93.9984L240.868 87.9374C243.605 82.4154 243.872 80.9824 243.872 71.8394C243.872 62.5744 243.62 61.2704 240.597 54.8874C238.796 51.0844 235.742 45.7724 233.809 43.0824C228.826 36.1454 232.579 38.4714 240.536 47.2494ZM131.594 46.2064C134.638 47.2544 138.314 48.7324 139.763 49.4914L142.398 50.8714L133.292 57.1394C128.284 60.5864 123.823 63.2714 123.379 63.1044C121.001 62.2144 112.417 53.0244 112.998 51.9924C113.366 51.3374 114.749 49.3404 116.07 47.5524C118.977 43.6224 123.055 43.2684 131.594 46.2064ZM91.4253 49.8824C95.2463 50.7514 98.3724 51.6844 98.3724 51.9544C98.3724 52.2254 97.2334 54.3894 95.8414 56.7644C94.4504 59.1394 92.8363 63.7774 92.2563 67.0704C91.4013 71.9264 90.7353 73.2714 88.7403 74.1804C85.1913 75.7974 85.1324 75.6924 87.2684 71.5054C90.2764 65.6104 90.8073 61.0444 88.9123 57.3794C87.1623 53.9954 82.0343 50.3124 79.0633 50.3064C78.0683 50.3044 77.5324 49.8524 77.8724 49.3024C78.7594 47.8664 83.4443 48.0674 91.4253 49.8824ZM177.367 52.9494C182.352 58.6274 186.217 69.2084 187.905 81.8024L188.575 86.8024L184.987 80.9544C180.445 73.5504 172.832 64.8174 166.982 60.3024C161.444 56.0274 161.046 53.3254 165.622 51.0474C170.942 48.4004 173.775 48.8594 177.367 52.9494ZM189.023 54.4704C195.222 61.0264 197.372 65.2074 197.366 70.6924C197.36 76.1194 195.854 82.8864 194.459 83.7484C193.997 84.0344 192.878 80.2144 191.972 75.2614C190.198 65.5624 187.432 57.6004 184.32 53.2294C183.249 51.7244 182.372 50.2094 182.372 49.8624C182.372 48.7014 185.84 51.1044 189.023 54.4704ZM82.2334 57.2274C84.3334 58.3524 84.8194 59.8324 84.3844 63.7884C84.0974 66.4054 80.1293 74.1744 77.4773 77.3124L75.3724 79.8024L73.3854 77.4574C69.0224 72.3094 68.6054 63.7374 72.4134 57.4764C74.0654 54.7594 74.6024 54.5084 77.1844 55.2484C78.7844 55.7074 81.0564 56.5984 82.2334 57.2274ZM104.434 58.8654C103.904 60.4804 102.98 63.7154 102.382 66.0524C101.567 69.2384 100.804 70.3024 99.3334 70.3024C96.3654 70.3024 96.8383 65.7654 100.467 59.4384C103.714 53.7754 106.224 53.4134 104.434 58.8654ZM145.604 60.0524C142.907 63.2154 139.729 67.2174 138.542 68.9474C136.451 71.9964 136.255 72.0614 132.128 71.0594C129.787 70.4914 127.505 69.6984 127.056 69.2984C125.667 68.0594 145.92 54.3024 149.132 54.3024C149.893 54.3024 148.314 56.8754 145.604 60.0524ZM65.6114 60.5524C63.7074 67.0344 64.8934 74.1104 68.8974 80.1614C71.9424 84.7624 72.0494 84.4654 64.2284 93.1354L59.5843 98.2834L53.6264 91.9144C46.4164 84.2074 42.9314 77.5884 43.8584 73.3644C44.2164 71.7344 46.2564 67.6984 48.3904 64.3964C51.7544 59.1914 52.9093 58.1964 57.0713 56.9174C59.7123 56.1054 63.0604 55.4104 64.5124 55.3724L67.1534 55.3024L65.6114 60.5524ZM156.372 58.8424C156.372 60.4924 152.068 67.3774 148.729 71.0674C145.883 74.2124 144.499 75.0874 143.451 74.4014C142.247 73.6154 142.312 73.0434 143.872 70.6624C147.866 64.5664 156.372 56.5234 156.372 58.8424ZM115.074 62.4984C116.888 64.2564 118.372 66.2244 118.372 66.8714C118.372 67.9384 108.452 69.6234 107.484 68.7214C106.698 67.9884 109.668 59.3024 110.704 59.3024C111.294 59.3024 113.261 60.7404 115.074 62.4984ZM169.993 70.4844C176.218 76.9694 182.415 85.7784 183.933 90.3024C185.324 94.4474 184.428 103.576 182.428 105.636C180.709 107.408 180.536 107.289 177.407 102.205C172.893 94.8694 163.988 85.8054 157.144 81.5804C153.969 79.6214 151.372 77.7324 151.372 77.3834C151.372 77.0344 153.144 74.3894 155.311 71.5074C157.477 68.6244 159.532 65.3744 159.878 64.2844C160.736 61.5814 162.463 62.6394 169.993 70.4844ZM31.5553 77.5444C24.8523 88.7034 19.0664 100.42 13.1554 114.802L8.22337 126.802L8.72935 117.302C9.34135 105.814 12.7023 93.6674 17.4463 85.7964C21.7863 78.5974 35.7023 65.0604 36.1853 67.5684C36.3673 68.5134 34.2843 73.0024 31.5553 77.5444ZM107.872 75.3024C107.532 75.8524 106.804 76.3024 106.254 76.3024C105.704 76.3024 105.532 75.8524 105.872 75.3024C106.212 74.7524 106.94 74.3024 107.49 74.3024C108.04 74.3024 108.212 74.7524 107.872 75.3024ZM126.627 79.2094C128.142 81.9064 129.111 84.8194 128.78 85.6814C128.191 87.2154 126.832 87.5804 117.039 88.8324C114.38 89.1724 110.443 90.0714 108.289 90.8314L104.372 92.2134V88.2764C104.372 84.5734 104.775 84.0404 111.122 79.3554C120.244 72.6204 122.912 72.5954 126.627 79.2094ZM204.672 81.1274C201.545 81.5374 201.506 81.4814 202.111 77.5064L202.613 74.2104L204.883 77.5064L207.154 80.8024L204.672 81.1274ZM100.372 77.7434C100.372 79.0864 99.9193 80.4644 99.3653 80.8064C98.0993 81.5894 96.9654 78.8054 97.7344 76.8024C98.6424 74.4364 100.372 75.0534 100.372 77.7434ZM133.372 77.3024C133.372 77.8524 132.922 78.3024 132.372 78.3024C131.822 78.3024 131.372 77.8524 131.372 77.3024C131.372 76.7524 131.822 76.3024 132.372 76.3024C132.922 76.3024 133.372 76.7524 133.372 77.3024ZM93.2724 83.9544C93.3274 84.5874 91.9454 86.0094 90.2004 87.1144C87.3004 88.9504 86.8284 88.9914 84.7004 87.5974C83.4204 86.7584 82.3724 85.6644 82.3724 85.1654C82.3724 84.6664 84.5104 82.9024 87.1224 81.2444L91.8724 78.2304L92.5224 80.5164C92.8804 81.7734 93.2174 83.3204 93.2724 83.9544ZM140.372 79.2674C140.372 79.7974 139.451 80.7244 138.326 81.3264C136.437 82.3384 136.379 82.2644 137.567 80.3624C138.918 78.1984 140.372 77.6304 140.372 79.2674ZM35.6164 87.1324C35.2254 92.5954 35.5394 94.8904 37.1824 98.6054C39.4484 103.728 44.1394 107.292 48.6224 107.298C50.1354 107.3 51.3724 107.558 51.3724 107.872C51.3724 108.185 49.9814 110.463 48.2814 112.934C46.5814 115.405 43.7724 120.436 42.0393 124.115C39.0543 130.451 38.8884 131.432 38.8804 142.802C38.8724 154.625 38.9284 154.918 42.6434 162.699C44.9754 167.584 46.1804 171.332 45.8014 172.526C45.2414 174.289 44.5264 174.4 37.5304 173.809C30.1324 173.184 29.7433 173.021 26.0763 168.982C21.1263 163.532 12.2964 145.871 11.6874 140.2C11.0224 134.01 16.3834 119.036 26.9574 97.5524C31.6274 88.0654 35.5953 80.3024 35.7763 80.3024C35.9573 80.3024 35.8854 83.3754 35.6164 87.1324ZM156.996 87.8954C160.364 90.2764 164.906 94.3784 167.089 97.0124C171.515 102.352 176.87 111.137 176.143 111.864C175.884 112.123 172.215 109.576 167.989 106.203C158.924 98.9674 147.165 92.0644 140.929 90.3184L136.478 89.0724L141.582 85.2364C147.395 80.8684 146.941 80.7904 156.996 87.8954ZM43.1183 87.6444C43.7053 88.9324 46.7513 92.7574 49.8863 96.1444L55.5874 102.302H51.7024C44.9044 102.302 40.3724 96.9154 40.3724 88.8344C40.3724 84.7704 41.5723 84.2504 43.1183 87.6444ZM214.619 90.6934C219.315 96.3124 225.968 99.6564 230.688 98.7714C233.774 98.1924 234.405 98.4794 236.72 101.514C242.302 108.832 247.333 124.638 245.293 128.449C243.753 131.327 232.708 138.022 227.4 139.295C217.594 141.648 209.688 138.607 203.221 129.995C195.428 119.619 194.276 117.078 193.658 108.899C193.126 101.861 193.295 100.991 196.482 94.4044C200.074 86.9784 200.568 86.6004 206.91 86.4184C210.518 86.3144 211.34 86.7704 214.619 90.6934ZM81.3724 91.8174C81.3724 92.0614 79.5724 93.1804 77.3724 94.3024C72.8234 96.6234 72.5254 96.3004 75.4394 92.2074C77.1524 89.8024 77.8384 89.4814 79.4394 90.3384C80.5024 90.9074 81.3724 91.5724 81.3724 91.8174ZM225.468 91.0184C227.065 91.9614 228.372 93.0984 228.372 93.5434C228.372 94.5254 222.753 91.7274 221.876 90.3094C220.965 88.8354 222.178 89.0744 225.468 91.0184ZM95.3724 91.7714C95.3724 92.7004 94.7904 93.0164 93.7884 92.6314C92.5134 92.1424 92.4644 91.8594 93.5384 91.1784C95.3144 90.0524 95.3724 90.0714 95.3724 91.7714ZM123.687 97.8904C122.196 102.266 121.979 102.451 118.998 101.89C117.279 101.567 113.622 100.44 110.872 99.3874L105.872 97.4734L108.872 96.2704C111.341 95.2814 117.157 94.1944 124.061 93.4334C124.918 93.3394 124.813 94.5864 123.687 97.8904ZM133.831 96.5524C135.58 100.739 136.812 107.302 135.849 107.302C133.545 107.302 127.371 104.821 127.367 103.894C127.358 101.806 130.773 93.3024 131.621 93.3024C132.09 93.3024 133.085 94.7644 133.831 96.5524ZM89.8254 96.4634C92.2384 97.5624 93.3054 99.3024 91.5674 99.3024C91.1244 99.3024 87.7523 101.784 84.0733 104.819L77.3854 110.335L73.3783 107.806C71.1753 106.415 69.3804 104.945 69.3904 104.539C69.4034 103.996 79.8784 98.5784 87.0754 95.3924C87.1874 95.3424 88.4244 95.8244 89.8254 96.4634ZM146.651 98.4064C153.155 101.651 170.372 114.065 170.372 115.51C170.372 115.969 169.279 116.843 167.943 117.452C164.131 119.188 156.531 115.779 154.716 111.518C152.805 107.034 149.547 105.643 145.658 107.654L142.668 109.201L141.392 103.501C140.691 100.367 139.901 97.2404 139.638 96.5524C138.944 94.7454 139.727 94.9524 146.651 98.4064ZM99.9134 102.369C100.811 103.821 100.476 104.022 95.8724 104.798L91.8724 105.472L94.8724 103.394C98.2974 101.021 98.9934 100.879 99.9134 102.369ZM62.3363 107.052C62.3173 107.465 61.6493 110.502 60.8523 113.802C60.0553 117.102 59.3963 121.058 59.3883 122.594C59.3793 124.129 58.0614 128.19 56.4584 131.619C53.3494 138.268 50.3724 148.505 50.3724 152.547C50.3724 155.986 48.2784 161.623 47.3714 160.628C46.9574 160.174 45.8344 157.387 44.8764 154.435C42.1904 146.163 43.1033 134.611 47.1203 126.027C50.3453 119.134 55.2893 111.385 58.5263 108.148C60.4053 106.269 62.4013 105.695 62.3363 107.052ZM104.372 110.146C104.372 110.61 107.101 113.786 110.435 117.205C113.77 120.624 116.358 123.797 116.185 124.255C115.795 125.295 105.832 122.353 93.4534 117.543L84.0334 113.883L87.4104 112.505C93.6314 109.966 104.372 108.472 104.372 110.146ZM119.002 111.552C118.671 112.789 118.393 114.449 118.386 115.239C118.377 116.175 117.326 115.674 115.372 113.802C111.484 110.077 111.59 109.302 115.989 109.302C119.251 109.302 119.546 109.522 119.002 111.552ZM71.6734 114.216C71.2334 114.555 69.5754 115.95 67.9894 117.317L65.1064 119.802L65.8304 115.81C66.8184 110.357 67.1114 110.085 69.9754 111.962C71.3504 112.862 72.1144 113.877 71.6734 114.216ZM131.44 111.893C134.428 112.768 137.259 113.852 137.732 114.303C138.209 114.757 137.832 117.411 136.889 120.25C134.998 125.945 135.116 125.923 126.512 122.203C123.537 120.916 122.327 119.861 122.703 118.881C123.007 118.09 123.556 115.837 123.925 113.873C124.293 111.909 124.913 110.302 125.302 110.302C125.691 110.302 128.453 111.018 131.44 111.893ZM185.979 111.884C185.645 112.754 185.372 113.879 185.372 114.384C185.372 114.889 184.922 115.302 184.372 115.302C183.255 115.302 183.001 112.006 184.039 110.969C185.304 109.703 186.584 110.307 185.979 111.884ZM90.3724 121.969C96.1474 124.26 104.359 127.142 108.622 128.373C116.348 130.603 116.372 130.621 116.372 134.041V137.472L111.817 133.462C106.24 128.553 99.9704 126.302 91.8754 126.302C84.3064 126.302 77.3534 128.293 71.1244 132.244L66.3774 135.255L69.0104 131.029C73.3004 124.145 78.5603 117.192 79.2403 117.508C79.5873 117.67 84.5974 119.677 90.3724 121.969ZM147.764 118.823C150.568 120.661 150.22 124.898 147.186 125.861C144.724 126.643 144.744 126.669 143.898 121.552C143.122 116.854 143.91 116.298 147.764 118.823ZM177.815 121.239C179.524 123.127 179.237 125.302 177.278 125.302C176.741 125.302 175.144 124.544 173.73 123.617C171.31 122.031 171.264 121.854 172.956 120.617C175.316 118.891 175.739 118.946 177.815 121.239ZM169.64 127.14L172.407 128.965L169.842 130.133C166.089 131.844 164.823 131.587 163.584 128.868C162.749 127.036 162.771 126.314 163.674 125.947C165.807 125.08 166.823 125.283 169.64 127.14ZM194.5 127.052C195.743 128.638 195.708 128.673 194.122 127.43C192.456 126.123 191.927 125.302 192.75 125.302C192.957 125.302 193.745 126.09 194.5 127.052ZM158.372 130.302C159.333 132.098 159.132 132.302 156.407 132.302C153.074 132.302 152.096 129.782 155.122 128.991C156.084 128.74 156.969 128.482 157.087 128.418C157.205 128.354 157.783 129.202 158.372 130.302ZM99.2774 132.275C104.149 133.672 108.996 137.218 112.09 141.647C114.573 145.202 114.666 145.685 113.324 148.055C111.299 151.629 101.245 156.924 92.6224 158.958C87.9364 160.063 85.3724 161.157 85.3724 162.052C85.3724 165.327 75.1464 159.495 70.7264 153.699C67.0434 148.871 66.9154 143.487 70.3954 139.763C76.6544 133.064 89.9814 129.609 99.2774 132.275ZM126.118 133.84C132.228 136.393 133.372 137.986 133.372 143.941C133.372 148.461 132.918 149.767 130.387 152.536C126.835 156.423 126.375 156.024 123.367 146.447C121.521 140.566 120.666 132.302 121.904 132.302C122.197 132.302 124.093 132.994 126.118 133.84ZM181.372 137.967C181.372 143.76 176.314 150.302 171.834 150.302H168.606L167.739 143.552L166.872 136.802L171.872 134.748C176.295 132.931 177.132 132.858 179.122 134.113C180.451 134.951 181.372 136.529 181.372 137.967ZM213.327 151.302C222.959 164.129 229.807 178.302 226.372 178.302C225.822 178.302 225.372 177.094 225.372 175.618C225.372 171.623 221.943 165.278 217.134 160.376C212.692 155.847 202.506 150.304 198.622 150.303C197.385 150.302 196.372 149.938 196.372 149.493C196.372 149.048 194.817 146.101 192.915 142.944C190.109 138.284 189.632 136.747 190.381 134.778L191.303 132.352L198.748 137.077C204.812 140.926 207.516 143.564 213.327 151.302ZM245.847 140.552C244.408 151.141 239.824 163.228 234.614 170.174L232.085 173.545L229.856 168.068C228.63 165.055 225.208 159.054 222.25 154.731C219.292 150.408 216.574 146.406 216.211 145.837C215.778 145.16 217.224 144.92 220.39 145.144C226.781 145.595 234.706 143.175 240.872 138.888C243.622 136.976 246.027 135.387 246.216 135.357C246.405 135.327 246.239 137.664 245.847 140.552ZM144.341 141.38C142.364 146.395 137.584 155.674 138.971 151.802C139.504 150.316 142.849 138.571 143.314 136.552C143.346 136.414 144.04 136.302 144.857 136.302C146.104 136.302 146.02 137.12 144.341 141.38ZM161.931 139.679C162.259 140.986 162.605 144.175 162.7 146.764L162.872 151.472L152.872 154.773C147.372 156.588 142.741 157.957 142.581 157.814C142.422 157.671 143.176 156.035 144.257 154.178C145.339 152.321 147.43 147.764 148.904 144.052L151.585 137.302H156.459C160.758 137.302 161.404 137.583 161.931 139.679ZM188.872 146.302L190.423 149.302H187.398C185.734 149.302 184.372 149.098 184.372 148.849C184.372 148.123 186.662 143.302 187.007 143.302C187.179 143.302 188.019 144.652 188.872 146.302ZM65.8974 169.421C66.8384 171.281 68.7504 174.326 70.1454 176.189L72.6833 179.576L67.7774 178.884C62.0914 178.082 59.2643 175.354 56.8833 168.374C54.8403 162.387 55.0143 157.678 57.4773 152.302L59.5393 147.802L61.8623 156.921C63.1403 161.937 64.9554 167.562 65.8974 169.421ZM20.3064 170.219C22.0794 172.457 23.9614 175.853 24.4894 177.764C25.7924 182.482 29.1954 186.302 40.2654 195.473C48.2804 202.113 49.9913 204.073 51.9253 208.831C55.4163 217.42 60.3173 224.92 66.5813 231.258L72.2904 237.034L66.0813 237.649C49.9633 239.245 30.7593 232.662 20.1803 221.915C14.4513 216.094 9.16537 205.775 6.79136 195.774C4.24636 185.049 4.86636 161.315 7.95836 151.108C8.30336 149.969 9.88239 152.156 12.7774 157.781C15.1464 162.384 18.5344 167.981 20.3064 170.219ZM122.298 158.48C122.506 160.384 110.325 163.562 101.372 163.939L91.8724 164.34L98.3724 162.564C105.685 160.567 112.656 156.794 116.36 152.83L118.848 150.167L120.536 153.984C121.464 156.084 122.257 158.107 122.298 158.48ZM193.365 157.552C194.794 161.463 195.896 177.079 194.995 180.668L194.352 183.23L180.112 178.243C172.28 175.501 165.324 173.062 164.655 172.823C163.966 172.578 167.221 168.513 172.155 163.459L180.872 154.529L186.524 154.415C192.029 154.305 192.207 154.387 193.365 157.552ZM208.455 159.876C215.421 164.231 220.372 172.026 220.372 178.64C220.372 181.808 220.08 182.116 216.122 183.11C208.314 185.073 206.892 185.249 203.372 184.686L199.872 184.126V172.964C199.872 166.825 199.501 160.351 199.048 158.578L198.225 155.355L201.548 156.496C203.376 157.123 206.484 158.645 208.455 159.876ZM169.372 156.743C169.372 156.986 168.922 157.462 168.372 157.802C167.822 158.142 167.372 157.943 167.372 157.361C167.372 156.779 167.822 156.302 168.372 156.302C168.922 156.302 169.372 156.5 169.372 156.743ZM161.372 159.868C161.372 165.755 149.707 170.447 141.524 167.85C137.975 166.724 139.007 165.639 146.622 162.495C157.475 158.014 161.372 157.319 161.372 159.868ZM81.8724 167.756C91.7354 171.115 113.349 169.468 122.671 164.648C124.259 163.826 125.734 163.331 125.95 163.546C126.782 164.378 115.583 174.84 109.967 178.477C104.42 182.07 103.594 182.302 96.3423 182.302C85.8193 182.302 83.0884 181.607 78.6344 177.795C74.9744 174.661 70.4074 167.469 68.8794 162.431C68.1714 160.095 68.2233 160.104 72.5163 163.057C74.9123 164.705 79.1224 166.82 81.8724 167.756ZM155.372 176.835C155.372 180.674 137.494 204.757 135.859 203.122C135.631 202.895 136.047 200.705 136.783 198.255C137.519 195.806 138.435 191.094 138.818 187.784L139.514 181.767L146.693 179.126C154.474 176.265 155.372 176.028 155.372 176.835ZM178.846 183.338C184.65 185.518 190.068 187.302 190.886 187.302C192.858 187.302 192.76 188.629 190.46 193.092C187.817 198.219 182.796 202.785 176.872 205.446C172.868 207.245 170.08 207.689 162.872 207.674C157.922 207.663 151.315 207.099 148.189 206.421L142.505 205.188L148.935 197.224C152.471 192.844 156.705 186.604 158.345 183.356L161.326 177.45L164.809 178.412C166.725 178.941 173.042 181.158 178.846 183.338ZM43.1224 179.887C44.9434 180.254 45.3724 181.011 45.3724 183.856C45.3724 187.951 44.5474 187.731 37.8724 181.864L33.8724 178.348L37.3724 178.891C39.2974 179.189 41.8854 179.638 43.1224 179.887ZM57.5434 184.052C59.4834 185.565 64.6264 189.687 68.9714 193.212L76.8724 199.623L71.8614 199.038C65.9774 198.351 56.2963 194.907 53.4693 192.495C52.2733 191.476 51.2174 188.913 50.8144 186.052C50.2144 181.791 50.3444 181.302 52.0804 181.302C53.1454 181.302 55.6034 182.539 57.5434 184.052ZM133.689 187.552C133.419 189.889 132.535 193.909 131.727 196.484L130.256 201.166L126.826 199.142C119.359 194.737 115.708 186.917 120.622 185.853C126.297 184.625 131.974 183.507 133.027 183.409C133.805 183.337 134.021 184.69 133.689 187.552ZM228.285 190.814C226.236 201.899 220.069 210.355 210.457 215.259C204.685 218.203 204.448 217.827 209.066 213.052C215.149 206.762 221.053 197.793 222.952 191.955C224.8 186.278 227.271 182.801 228.551 184.081C229.005 184.535 228.886 187.565 228.285 190.814ZM84.3024 187.469C91.7704 189.374 93.5834 189.501 99.3034 188.521C102.882 187.908 105.939 187.535 106.096 187.693C106.253 187.85 104.242 189.137 101.627 190.553L96.8724 193.128L87.5234 190.695C78.5094 188.349 71.3074 185.425 74.3404 185.342C75.1474 185.32 79.6304 186.277 84.3024 187.469ZM218.372 189.621C218.372 192.266 210.594 203.707 204.893 209.448C201.431 212.935 196.463 216.609 192.719 218.452L186.393 221.566L170.421 221.106L154.449 220.646L150.51 216.224C148.344 213.792 146.642 211.724 146.728 211.629C146.814 211.534 150.706 211.944 155.376 212.54C174.569 214.99 188.587 208.678 195.87 194.306L198.436 189.242L203.154 189.815C205.749 190.131 209.897 189.969 212.372 189.455C214.847 188.941 217.209 188.472 217.622 188.412C218.035 188.351 218.372 188.895 218.372 189.621ZM109.372 193.802C109.372 194.7 108.469 195.289 107.122 195.27C104.928 195.239 104.921 195.202 106.813 193.77C109.224 191.947 109.372 191.949 109.372 193.802ZM87.2364 196.27C88.2644 196.827 88.1034 197.139 86.5804 197.537C85.4424 197.835 83.3194 197.213 81.7164 196.113L78.8724 194.16L82.3724 194.846C84.2974 195.223 86.4864 195.864 87.2364 196.27ZM115.872 196.302C116.212 196.852 116.013 197.302 115.431 197.302C114.849 197.302 114.372 196.852 114.372 196.302C114.372 195.752 114.57 195.302 114.813 195.302C115.056 195.302 115.532 195.752 115.872 196.302ZM104.889 200.218C108.618 201.179 108.987 201.596 110.028 206.028C110.645 208.654 111.044 210.92 110.915 211.065C110.583 211.436 104.002 208.673 96.4814 205.005L90.0893 201.888L93.9814 200.179C96.1214 199.239 98.5474 198.631 99.3724 198.827C100.197 199.023 102.68 199.649 104.889 200.218ZM74.2704 203.935C83.2084 204.237 84.1064 204.479 92.6244 208.878C97.5504 211.422 104.571 214.532 108.226 215.788L114.872 218.073L111.872 219.283C103.322 222.731 92.2263 221.497 79.4903 215.681C72.7793 212.617 55.9894 202.109 54.8454 200.258C54.5854 199.838 56.7354 200.422 59.6224 201.556C63.2574 202.984 67.7634 203.715 74.2704 203.935ZM121.622 204.995C124.234 205.931 126.372 207.024 126.372 207.423C126.372 208.464 121.339 214.302 120.442 214.302C119.715 214.302 114.372 205.161 114.372 203.917C114.372 202.877 116.663 203.217 121.622 204.995ZM66.5074 214.818C76.3404 220.88 88.3254 225.383 96.8724 226.226L103.872 226.917L98.0104 229.604C91.4854 232.595 82.9964 235.302 80.1424 235.302C77.4694 235.302 64.3863 221.761 61.0603 215.552C59.5133 212.664 58.4584 210.302 58.7154 210.302C58.9724 210.302 62.4794 212.334 66.5074 214.818ZM141.14 214.942C144.047 216.944 146.235 218.772 146.002 219.005C145.59 219.418 134.584 217.702 131.138 216.688C129.64 216.247 129.776 215.851 132.138 213.771C133.642 212.448 135.093 211.351 135.363 211.334C135.634 211.316 138.233 212.94 141.14 214.942ZM126.729 225.221C130.108 226.826 136.459 228.876 140.843 229.775C145.227 230.675 148.946 231.543 149.107 231.704C149.268 231.865 148.534 233.098 147.476 234.443C144.964 237.636 136.146 241.907 128.197 243.781C116.547 246.528 97.6623 245.138 89.6593 240.945C86.8043 239.449 87.0934 239.122 92.8724 237.311C98.2844 235.614 111.304 228.843 116.027 225.268C118.142 223.667 120.033 222.345 120.229 222.33C120.425 222.315 123.35 223.615 126.729 225.221ZM149.372 225.431C150.272 225.951 149.071 226.035 146.372 225.64C139.225 224.593 136.18 223.333 142.372 223.985C145.397 224.303 148.547 224.954 149.372 225.431ZM158.622 225.964C157.935 226.242 156.81 226.242 156.122 225.964C155.435 225.687 155.997 225.46 157.372 225.46C158.747 225.46 159.31 225.687 158.622 225.964Z" fill="black"/>
</svg>
