<svg width="188" height="72" viewBox="0 0 188 72" fill="none" xmlns="http://www.w3.org/2000/svg">
<path d="M14.3973 48.8388C29.1733 31.0108 52.4743 7.28389 59.7093 2.69489C64.9163 -0.607107 65.1523 -0.651171 66.8173 1.35383C68.8013 3.74383 67.3753 9.11565 61.4033 21.7467C55.1333 35.0107 48.5113 50.8808 49.0313 51.3998C49.2243 51.5938 52.7413 47.6309 56.8463 42.5949C82.8963 10.6339 96.0363 -1.70113 100.28 1.82087C103.05 4.11987 102.25 7.18065 93.3723 28.2467C90.8453 34.2416 88.9343 39.3037 89.1263 39.4947C89.3173 39.6857 90.9633 37.7677 92.7843 35.2327C96.7373 29.7287 111.236 14.8147 114.919 12.4647C117.971 10.5177 120.81 11.2457 120.81 13.9747C120.81 15.0287 119.035 19.4209 116.865 23.7369C109.962 37.4659 106.765 49.8459 110.123 49.8459C111.983 49.8459 115.582 45.7728 123.377 34.8458C137.651 14.8358 145.161 6.84577 149.695 6.84577C153.031 6.84577 153.208 10.7308 150.454 23.5518C147.445 37.5618 146.063 49.2879 147.486 48.7299C148.025 48.5189 152.702 43.4238 157.879 37.4088C170.701 22.5088 187.81 9.83373 187.81 15.2327C187.81 15.9957 184.548 19.2379 180.56 22.4359C172.371 29.0049 169.863 31.5368 158.603 44.5998C149.986 54.5958 147.063 56.2798 143.646 53.2148C141.743 51.5068 141.615 50.6119 142.163 42.8459C142.492 38.1709 143.465 31.1958 144.324 27.3458C147.481 13.1898 147.611 13.6588 142.133 19.4078C139.48 22.1918 134.166 28.9418 130.324 34.4078C126.481 39.8738 121.128 46.7089 118.429 49.5959C114.165 54.1559 113.018 54.8459 109.7 54.8459C105.202 54.8459 103.81 52.9948 103.81 47.0168C103.81 42.8678 106.966 31.4738 109.535 26.3458C110.988 23.4468 110.901 23.4777 106.96 27.2637C104.717 29.4187 98.7033 36.4878 93.5963 42.9738C88.4893 49.4598 83.5273 55.0378 82.5693 55.3708C79.7923 56.3348 78.5423 54.885 79.1143 51.363C79.6563 48.022 85.9533 31.4958 92.1723 17.0958C94.1313 12.5588 95.3693 8.84577 94.9233 8.84577C93.3973 8.84577 75.2913 28.335 64.6173 41.467C52.6073 56.245 49.7713 58.8459 45.6753 58.8459C42.7643 58.8459 42.2943 57.9479 42.7983 53.3559C43.1243 50.3959 50.2433 32.9079 56.4043 19.9359C59.3853 13.6599 61.6103 8.3128 61.3513 8.0528C61.0913 7.7928 54.7383 13.6027 47.2343 20.9627C35.7963 32.1827 19.8653 50.1559 5.15928 68.4299C2.71528 71.4679 1.73328 72.0819 0.78228 71.1689C-1.50272 68.9749 0.697274 65.3668 14.3973 48.8388Z" fill="black"/>
</svg>
