<svg width="133" height="141" viewBox="0 0 133 141" fill="none" xmlns="http://www.w3.org/2000/svg">
<path d="M84.6388 19.4972C85.5348 6.18918 86.0608 3.19509 87.9338 0.772085C89.5628 -1.33592 92.3568 1.1122 93.0048 5.2152C94.5628 15.0702 95.8198 34.3492 96.6378 60.9172C97.6358 93.2982 98.7738 101.229 105.339 121.501L109.062 133.001L110.344 113.001C112.152 84.7712 113.77 74.8491 121.885 42.2511C127.98 17.7661 129.312 13.5011 130.858 13.5011C133.768 13.5011 133.158 19.0341 128.116 38.3871C118.968 73.4951 117.466 82.6102 115.243 116.511C114.354 130.065 113.414 138.109 112.605 139.084C110.554 141.555 107.4 140.309 105.042 136.095C102.385 131.348 96.3898 111.137 94.1868 99.5012C92.8398 92.3862 90.8928 54.3591 90.7098 31.5841C90.6418 23.1771 89.3298 28.5812 87.0268 46.7512C83.1228 77.5642 81.7968 90.1882 80.2088 111.677C78.5618 133.962 77.8178 137.501 74.7798 137.501C70.9208 137.501 66.8358 127.414 62.8348 108.001C59.9598 94.0572 58.9998 85.2891 56.6498 51.5461C55.5208 35.3461 54.3898 21.884 54.1358 21.63C53.8818 21.376 53.6738 24.9822 53.6738 29.6442C53.6738 37.0632 50.5778 72.7012 49.2128 81.0012C48.9408 82.6512 48.0248 95.0132 47.1758 108.471C46.3279 121.93 45.1798 133.395 44.6258 133.949C42.9358 135.639 40.3688 133.275 37.5558 127.436C32.1328 116.181 28.7618 96.3232 26.6178 63.0012C25.9798 53.1012 25.3368 44.8682 25.1878 44.7062C25.0388 44.5442 24.5978 47.9193 24.2078 52.2063C23.8178 56.4933 22.4408 69.2262 21.1478 80.5012C19.8558 91.7762 18.0758 107.301 17.1938 115.001C16.3118 122.701 15.3858 129.595 15.1368 130.321C14.8868 131.047 13.6988 131.497 12.4958 131.321C9.10583 130.825 9.08084 130.665 4.72984 81.0012C0.0838366 27.9682 -0.706165 15.481 0.509835 14.265C3.65484 11.12 4.44483 15.5052 7.66483 54.0012C9.41383 74.9012 11.0948 95.7241 11.4018 100.275C11.7078 104.826 12.1348 108.373 12.3508 108.158C12.8838 107.625 16.2138 80.2752 18.6408 56.5012C20.5518 37.7852 23.1498 20.1581 24.2628 18.3561C25.3668 16.5701 28.6388 17.5171 29.0828 19.7511C29.3288 20.9891 30.2618 35.0512 31.1568 51.0012C32.9208 82.4662 34.6478 98.3592 37.7128 111.347C40.7928 124.4 41.3218 124.101 42.0948 108.874C42.4818 101.244 43.9058 84.2012 45.2598 71.0012C46.6128 57.8012 48.1378 39.3511 48.6488 30.0011C49.1838 20.2151 50.2378 10.8171 51.1338 7.85509C52.7898 2.37609 55.3418 0.32703 57.2538 2.94103C58.4568 4.58603 58.5828 5.95521 61.6788 51.0012C62.7748 66.9512 64.3678 84.9512 65.2178 91.0012C66.7918 102.211 71.2698 122.798 72.7168 125.487C73.9128 127.708 74.4118 124.362 75.6918 105.501C76.8008 89.1682 79.1868 66.7431 82.1818 44.5011C83.0328 38.1761 84.1388 26.9242 84.6388 19.4972Z" fill="black"/>
</svg>
