<svg width="530" height="43" viewBox="0 0 530 43" fill="none" xmlns="http://www.w3.org/2000/svg">
<path d="M351.052 13.2552C360.964 6.95121 369.785 2.20525 373.966 0.92525C381.594 -1.40975 388.037 0.560244 397.581 8.14424C411.335 19.0742 417.086 20.3123 440.594 17.4043C462.867 14.6503 496.022 14.8703 513.966 17.8923C526.724 20.0403 530.155 21.1322 528.705 22.5832C528.359 22.9282 512.189 23.5813 492.771 24.0333C473.138 24.4903 450.364 25.6012 441.466 26.5352C432.594 27.4672 422.417 27.9642 418.622 27.6522C409.599 26.9092 401.377 22.9632 392.618 15.1712C388.853 11.8202 384.301 8.5942 382.503 8.0002C377.46 6.3362 371.465 8.90823 354.353 20.0772C336.951 31.4352 331.659 33.9742 323.834 34.7132C315.367 35.5122 309.192 33.5382 297.74 26.3692C292.089 22.8322 285.03 19.2213 282.053 18.3453C271.886 15.3523 261.004 18.2872 242.352 29.0532C236.436 32.4682 228.191 36.8882 224.03 38.8752C217.065 42.2022 215.751 42.4872 207.465 42.4792C199.673 42.4712 197.794 42.1153 193.465 39.8253C187.829 36.8453 183.121 32.5672 174.631 22.7142C166.083 12.7942 159.094 9.8073 149.672 12.0483C146.809 12.7293 138.84 15.6453 131.965 18.5283C115.067 25.6143 106.966 27.9922 97.3725 28.6812C83.8175 29.6552 76.2415 27.0123 59.1495 15.3463C54.0255 11.8493 48.9035 8.98824 47.7675 8.98824C44.3365 8.98824 39.8615 12.4333 31.7415 21.3253C20.0315 34.1503 12.8715 36.6743 6.64452 30.1753C3.04752 26.4213 0.958507 19.9353 0.272507 10.3983C-0.250493 3.12627 -0.120501 2.23522 1.5515 1.59322C3.6985 0.770219 5.9655 3.21929 5.9655 6.36129C5.9655 10.3353 10.1895 23.8802 11.9155 25.4432C14.6995 27.9622 17.9645 26.0602 28.7625 15.6252C40.3655 4.4122 43.4965 2.59225 50.0995 3.22725C53.7705 3.58025 57.0744 5.0652 64.1114 9.5262C78.7424 18.8022 83.5995 20.4943 95.4655 20.4553C106.159 20.4193 106.582 20.3012 138.257 8.60421C146.386 5.60221 149.356 4.99025 155.757 4.99825C166.905 5.01225 171.836 7.59127 183.622 19.5703C195.379 31.5193 201.061 34.5252 210.335 33.6972C215.546 33.2322 219.467 31.6422 236.465 23.1032C260.46 11.0502 264.982 9.61924 277.361 10.1602C286.034 10.5402 286.894 10.7913 295.466 15.4503C312.84 24.8913 314.073 25.4002 320.629 25.8182C326.228 26.1742 327.78 25.8243 334.292 22.7313C338.333 20.8123 345.875 16.5482 351.052 13.2552Z" fill="black"/>
</svg>
