<svg width="372" height="40" viewBox="0 0 372 40" fill="none" xmlns="http://www.w3.org/2000/svg">
<path d="M126.03 15.478C140.055 10.842 156.93 5.48304 163.53 3.57104C177.609 -0.507955 176.509 -0.333041 177.85 1.28296C179.465 3.22896 177.699 9.48995 172.549 20.0699C170.064 25.1769 168.03 30.459 168.03 31.809C168.03 34.078 168.32 34.224 171.873 33.748C173.986 33.464 180.849 31.11 187.123 28.516C255.432 0.271992 279.374 -6.26798 268.302 6.34302C261.772 13.78 255.03 27.131 255.03 32.626C255.03 35.49 255.068 35.494 259.223 33.072C267.639 28.165 308.529 14.001 331.194 8.14197C343.203 5.03797 366.897 0 369.488 0C370.336 0 371.03 0.36704 371.03 0.81604C371.03 1.83904 333.804 13.831 304.03 22.4C291.655 25.962 275.455 30.901 268.03 33.377C252.709 38.484 252.03 38.355 252.03 30.329C252.03 25.22 254.172 19.406 258.69 12.25C260.513 9.362 261.586 7 261.074 7C258.453 7 227.938 17.86 209.03 25.522C174.697 39.435 169.133 40.9601 165.603 37.4301C161.784 33.6111 162.493 28.458 168.584 15.748C170.492 11.766 171.609 8.35995 171.066 8.17896C170.523 7.99796 154.88 12.863 136.304 18.99C86.013 35.579 72.992 39.2539 64.03 39.3879L56.53 39.5L56.223 36.34C56.015 34.191 57.214 30.602 59.973 25.113C64.341 16.425 64.895 14 62.509 14C61.672 14 50.9849 18.547 38.7589 24.105C9.76294 37.287 1.98795 40.3579 0.746949 39.1169C0.205949 38.5759 -0.00505252 37.542 0.276947 36.817C0.735947 35.639 17.432 27.844 49.53 13.822C60.61 8.98202 65.62 7.98995 67.83 10.2C70.15 12.52 69.188 19.448 65.549 26.63C63.6339 30.408 62.0589 33.798 62.049 34.161C62.004 35.755 85.047 29.026 126.03 15.478Z" fill="black"/>
</svg>
