<svg width="427" height="51" viewBox="0 0 427 51" fill="none" xmlns="http://www.w3.org/2000/svg">
<path d="M50.53 28.002C117.332 12.648 145.251 6.93906 176.03 2.33906C195.65 -0.592935 201.099 -0.719866 204.07 1.68513C207.833 4.73313 206.039 7.61006 192.38 20.4331C178.225 33.7231 173.23 39.729 175.26 41.017C177.665 42.544 189.692 41.8451 220.073 38.4161C295.582 29.8911 323.15 27.9621 380.78 27.1661C422.489 26.5901 426.03 26.6701 426.03 28.1971C426.03 29.1081 425.647 29.8541 425.178 29.8541C424.71 29.8541 411.097 31.1851 394.928 32.8111C367.437 35.5761 355.969 36.5681 290.03 41.8841C276.005 43.0151 250.805 45.2981 234.03 46.9581C217.255 48.6181 197.455 50.0591 190.03 50.1611C173.6 50.3871 169.534 49.3051 167.372 44.1301C164.962 38.3631 168.689 32.2511 182.764 18.8861C192.514 9.62906 193.985 7.85408 191.915 7.85408C184.9 7.85408 137.55 16.6371 78.03 28.9781C56.855 33.3681 30.98 38.4831 20.53 40.3431C1.81895 43.6751 -2.31105 43.6951 1.07295 40.4371C1.87395 39.6661 24.13 34.07 50.53 28.002Z" fill="black"/>
</svg>
