<svg width="237" height="36" viewBox="0 0 237 36" fill="none" xmlns="http://www.w3.org/2000/svg">
<path d="M89.7404 10.5561C93.3264 5.92507 98.0394 2.79609 103.738 1.26209C109.612 -0.319907 111.515 -0.377912 116.055 0.882088C120.955 2.24409 124.487 6.02009 126.484 12.0331L128.146 17.0351L129.91 14.2001C134.408 6.97108 141.66 2.86209 150.468 2.55109C157.112 2.31709 160.423 4.50408 164.006 11.4971L166.585 16.5281L168.198 13.7171C173.582 4.33508 190.024 4.58407 195.45 14.1301L197.473 17.6881L200.731 13.8061C204.565 9.23907 209.858 7.44507 217.598 8.08707C224.35 8.64607 228.6 11.8961 232.739 19.6611C235.493 24.8281 236.861 29.8641 235.51 29.8641C235.28 29.8641 234.42 30.1221 233.599 30.4371C232.518 30.8521 231.35 29.3261 229.368 24.9101C224.579 14.2371 219.231 11.2641 209.626 13.9311C206.62 14.7661 205.106 16.1101 202.388 20.3591C200.498 23.3141 198.476 26.0251 197.896 26.3841C196.256 27.3971 194.365 25.2671 193.072 20.9501C191.532 15.8091 186.855 11.8641 182.302 11.8641C175.479 11.8641 172.785 14.5501 168.943 25.1831C168.186 27.2801 167.37 27.9211 165.761 27.6831C164.001 27.4241 163.246 26.0501 161.71 20.3141C159.133 10.6911 156.558 7.60609 151.163 7.68009C142.327 7.80209 133.194 14.8251 131.43 22.8531C131.083 24.4331 130.131 26.2811 129.314 26.9591C127.089 28.8051 125.112 26.2941 123.286 19.3031C121.093 10.9061 119.271 7.90508 115.376 6.27808C111.636 4.71508 105.335 5.56809 99.9164 8.37009C96.1844 10.3001 91.1414 16.5311 90.4684 20.0431C90.1714 21.5951 89.6624 24.2401 89.3364 25.9211C88.8744 28.3061 88.2874 28.9111 86.6694 28.6711C84.9904 28.4231 84.3504 27.1651 83.3174 22.0791C82.6144 18.6221 80.9824 13.8971 79.6894 11.5791L77.3394 7.36408L71.1184 7.53907C63.5434 7.75207 56.4124 10.0071 51.0674 13.8781C46.5904 17.1221 41.9364 24.2761 41.9134 27.9521C41.8914 31.3191 40.5214 33.1251 38.3084 32.6991C36.7974 32.4091 36.2904 31.0861 35.7224 25.9521C34.8334 17.9061 30.7704 9.35107 26.8834 7.34107C24.3124 6.01107 23.5724 6.02309 20.0114 7.44709C15.1474 9.39409 11.0824 15.3101 7.09345 26.2511C4.11745 34.4151 2.74344 36.4861 1.01544 35.4181C-0.763557 34.3181 -0.244562 30.7671 2.88544 22.6401C6.37744 13.5721 9.77743 7.91507 13.4924 4.99207C16.9174 2.29807 23.4304 0.52209 26.7894 1.36509C30.4604 2.28709 36.6304 9.13708 38.0464 13.8641C38.7054 16.0641 39.4004 17.8641 39.5894 17.8641C39.7784 17.8641 41.5824 16.0391 43.5974 13.8091C48.4364 8.45309 54.0254 5.2881 61.9424 3.4221C75.4404 0.241097 80.8034 1.77908 85.0184 10.0401L87.0524 14.0271L89.7404 10.5561Z" fill="black"/>
</svg>
