<svg width="294" height="106" viewBox="0 0 294 106" fill="none" xmlns="http://www.w3.org/2000/svg">
<path d="M86.5 10.1975C128.592 6.18555 176.301 2.97946 234.5 0.253456C238.35 0.0734563 252.569 -0.0354636 266.099 0.0105364C292.929 0.103536 294 0.321496 294 5.6945C294 11.5485 290.94 12.2906 222 23.1556C160.45 32.8556 100.387 43.3155 101.254 44.1835C101.431 44.3605 108.984 43.8635 118.038 43.0785C189.893 36.8545 278.452 34.6605 288.214 38.8645C294.087 41.3925 294.403 46.7034 288.859 49.6704C286.19 51.0994 279.98 52.1335 253.456 55.5655C205.883 61.7215 156.047 70.2544 112 79.7854C99.075 82.5814 87.15 85.2215 85.5 85.6515C83.85 86.0815 89.925 86.1314 99 85.7644C108.075 85.3964 131.925 85.1425 152 85.1995C191.917 85.3135 208.065 86.4484 244 91.6654C277.535 96.5344 280.32 97.0544 280.813 98.5354C281.193 99.6744 279.388 99.8025 270.386 99.2775C235.798 97.2595 192.974 96.4025 152 96.9085C105.274 97.4855 87.02 98.5285 43.5 103.106C13.181 106.295 8.775 106.483 6.604 104.682C4.166 102.659 4.936 98.3795 8 96.9195C11.781 95.1175 65.314 81.3025 92.644 75.0755C126.755 67.3035 161.602 60.4975 197 54.6935C213.775 51.9425 231.55 49.0195 236.5 48.1975L245.5 46.7035L225.5 47.1885C164.393 48.6715 100.479 53.2605 33.5 60.9755C15.389 63.0615 3.655 64.0025 2.25 63.4805C0.61 62.8715 0 61.8405 0 59.6795C0 58.0485 0.446997 56.4375 0.991997 56.1005C2.671 55.0625 66.819 40.8585 98 34.6195C128.376 28.5425 177.588 20.0776 214.5 14.5826C226.05 12.8626 236.4 11.0495 237.5 10.5525C239.245 9.76353 239.182 9.70146 237 10.0605C235.625 10.2875 225.05 10.7405 213.5 11.0685C174.669 12.1685 125.075 15.1105 60.629 20.1365C15.997 23.6175 2.488 24.1935 1.538 22.6565C1.118 21.9765 1.235 20.9605 1.797 20.3985C2.953 19.2425 46.007 14.0575 86.5 10.1975Z" fill="black"/>
</svg>
