<svg width="335" height="105" viewBox="0 0 335 105" fill="none" xmlns="http://www.w3.org/2000/svg">
<path d="M17.756 7.5561C29.578 6.1361 116.032 2.48219 183 0.573193C198.675 0.126193 233.1 -0.109879 259.5 0.0501213C309.365 0.351121 319.365 1.09611 327.083 5.08711C331.203 7.21811 331.048 10.8262 326.75 12.8342C322.594 14.7762 317.697 15.4912 270.5 21.0482C188.357 30.7192 95.342 44.1312 38.5 54.5002C24.914 56.9782 29.952 56.9892 66.029 54.5592C162.136 48.0862 214.596 45.9931 258 46.8991C310.999 48.0051 335 51.0762 335 56.7502C335 59.1412 326.062 60.6581 295.168 63.5131C258.209 66.9291 227.852 70.5621 187 76.4581C137.356 83.6221 55.491 97.2291 60.699 97.4511C61.908 97.5021 78.333 95.7611 97.199 93.5811C181.116 83.8861 257.755 77.5362 290.5 77.5642C302.886 77.5752 305.716 78.2361 304.701 80.8821C304.208 82.1661 302.652 82.3301 295.305 81.8731C276.014 80.6711 185.326 88.0311 90.182 98.5201C37.672 104.309 26.152 105.125 24.216 103.188C21.575 100.548 24.368 98.8602 35.816 96.1772C56.184 91.4032 130.387 78.9381 182 71.6191C235.253 64.0681 268.603 60.5761 311.5 58.0621C322.622 57.4101 329.358 56.5692 328.703 55.9132C327.658 54.8692 304.812 52.5502 286.103 51.5902C237.201 49.0822 187.512 50.5451 81.5 57.6181C56.75 59.2691 28.411 60.7151 18.525 60.8321C2.37796 61.0221 0.515959 60.8732 0.214959 59.3612C0.029959 58.4362 0.740962 57.2181 1.79296 56.6551C3.97396 55.4871 47.078 47.7311 88.484 41.0541C141.884 32.4441 206.606 23.8102 279.5 15.5732C327.635 10.1342 331.012 9.39116 319.865 6.69416C301.283 2.19916 266.642 2.42809 115.5 8.04609C22.767 11.4931 11.576 12.1101 7.81096 13.9881C3.91396 15.9321 3.99996 15.9421 3.99996 13.5701C3.99996 10.7201 8.76796 8.6361 17.756 7.5561Z" fill="black"/>
</svg>
