<svg width="531" height="64" viewBox="0 0 531 64" fill="none" xmlns="http://www.w3.org/2000/svg">
<path d="M305.443 24.9023C327.96 10.2563 340.719 4.56725 358.121 1.41425C362.148 0.684251 369.943 0.0503153 375.443 0.0053153C395.973 -0.164685 408.757 3.71525 427.048 15.6693C441.312 24.9903 446.683 27.3282 458.617 29.4092C470.004 31.3952 481.505 31.2693 504.443 28.9073C525.759 26.7123 530.943 26.4983 530.943 27.8123C530.943 28.9173 516.114 34.3953 506.202 36.9533C488.621 41.4883 463.441 41.9063 449.104 37.9013C439.108 35.1083 434.092 32.4003 421.72 23.1153C415.437 18.3993 408.159 13.9383 403.793 12.1263C378.834 1.76629 350.698 4.59735 326.434 19.9103C322.039 22.6833 312.593 29.2173 305.443 34.4283C291.122 44.8663 279.864 50.9053 269.943 53.4733C262.174 55.4833 244.254 55.7482 235.443 53.9822C219.449 50.7762 199.098 42.0054 180.943 30.4934C166.833 21.5464 158.005 17.3003 148.533 14.9063C139.035 12.5063 134.287 12.4063 126.466 14.4433C114.467 17.5683 106.077 22.5513 92.1253 34.8373C65.0493 58.6803 53.5794 64.7242 37.3784 63.6852C21.8474 62.6882 11.8733 51.8053 3.46731 26.6863C-1.03469 13.2303 -1.14969 7.78333 3.10531 9.41633C3.84431 9.69933 6.47234 15.1762 8.94534 21.5862C20.9423 52.6732 31.3474 60.4863 51.3524 53.4273C59.6064 50.5143 67.9582 45.0973 84.3402 32.0283C91.0482 26.6773 99.2363 20.6592 102.536 18.6542C115.99 10.4822 133.014 5.99925 145.422 7.36225C158.996 8.85325 167.527 12.1133 185.008 22.4903C222.926 44.9983 248.818 50.9683 273.229 42.8333C281.079 40.2173 286.751 37.0603 305.443 24.9023Z" fill="black"/>
</svg>
