<svg width="275" height="54" viewBox="0 0 275 54" fill="none" xmlns="http://www.w3.org/2000/svg">
<path d="M33.8835 18.8517C42.9585 11.6087 52.6335 4.37689 55.3835 2.78089C61.1165 -0.54811 62.1585 -0.720314 63.8955 1.37269C64.9135 2.59969 64.7595 4.73669 63.0845 12.6227C60.4605 24.9797 58.4315 42.9199 59.2755 46.2859L59.9245 48.8718L65.1155 46.241C71.8155 42.846 87.7765 32.9719 102.639 23.0259C117.127 13.3319 125.363 8.52486 132.967 5.32386C139.498 2.57486 141.915 2.28972 143.684 4.05872C145.633 6.00772 145.095 9.18969 141.324 17.9977C134.594 33.7227 132.006 47.2018 135.465 48.5288C137.926 49.4728 150.342 42.0699 175.384 24.7249C199.136 8.27386 206.803 4.64668 209.913 8.39368C210.979 9.67768 210.121 12.0868 204.665 23.1438C197.807 37.0418 196.266 41.3589 197.816 42.3179C199.592 43.4149 208.423 39.209 232.384 25.854C256.532 12.395 272.579 4.55167 274.076 5.47767C276.006 6.66967 274.549 8.62178 270.134 10.7648C267.522 12.0318 255.542 18.6758 243.513 25.5288C204.84 47.5608 197.602 50.5209 193.496 45.9839C190.653 42.8429 191.872 37.3038 198.298 24.1438L203.857 12.7587L198.871 15.5587C196.128 17.0987 187.472 22.7998 179.634 28.2278C163.88 39.1388 148.736 48.8738 142.819 51.8918C137.536 54.5868 132.434 54.482 130.441 51.636C127.029 46.766 129.096 33.2218 135.566 18.0548C137.516 13.4878 138.837 9.47983 138.507 9.14783C137.389 8.03083 123.488 15.6549 107.884 25.9429C63.5115 55.1989 57.4445 57.801 54.7295 48.741C53.3505 44.138 54.6625 27.1029 57.3725 14.4279C58.1875 10.6159 58.7005 7.34269 58.5115 7.15369C58.0195 6.66169 48.8015 13.6139 29.8835 28.7449C9.28951 45.2169 3.43648 49.2848 1.43848 48.5188C-1.67052 47.3248 0.0544844 44.9328 8.63348 38.5398C13.4465 34.9538 24.8085 26.0937 33.8835 18.8517Z" fill="black"/>
</svg>
