<svg width="317" height="90" viewBox="0 0 317 90" fill="none" xmlns="http://www.w3.org/2000/svg">
<path d="M90.9999 24.8632C159.179 12.9492 209.062 5.13826 243 1.06226C260.732 -1.06774 268.717 -0.00780869 267.859 4.36219C267.341 6.99819 264.186 8.79222 263.107 7.06422C262.123 5.48722 262.033 5.49924 213.5 13.4122C177.62 19.2632 129.891 27.6792 129.313 28.2572C129.114 28.4552 141.675 28.4032 157.226 28.1412C214.849 27.1712 284.731 31.0702 305.5 36.4142C314.206 38.6542 316.5 40.6332 316.5 45.9032C316.5 54.2232 313.158 55.0811 260 60.4161C190.953 67.3451 153.144 71.9272 82.0409 81.9812C29.8209 89.3642 -0.19511 91.3502 6.92589 86.9492C9.72489 85.2192 33.6449 78.6632 45.9349 76.2582C96.0359 66.4512 171.528 56.3452 247.75 49.2412C264.387 47.6912 278 46.1381 278 45.7911C278 45.4451 273.613 44.8532 268.25 44.4772C262.887 44.1012 252.2 43.3623 244.5 42.8333C236.8 42.3053 208 41.5953 180.5 41.2553C110.13 40.3853 56.6169 42.7492 21.4999 48.2782C12.9479 49.6242 5.62289 50.3113 4.45889 49.8753C-1.17611 47.7663 -1.21911 41.7282 4.38589 39.3862C6.20889 38.6252 16.2049 36.8342 26.5999 35.4082C36.9949 33.9812 65.9749 29.2362 90.9999 24.8632Z" fill="black"/>
</svg>
