<svg width="268" height="72" viewBox="0 0 268 72" fill="none" xmlns="http://www.w3.org/2000/svg">
<path d="M10.7499 23.0382C17.4509 19.5162 148.169 5.9492 218.5 1.4762C248.697 -0.444795 265.44 -0.491782 266.96 1.34022C268.897 3.67422 267.762 6.26117 264 8.08717C262.075 9.02117 242.5 13.4292 220.5 17.8812C170.072 28.0872 143.096 34.1402 106.5 43.4622C75.4339 51.3742 75.5479 51.1362 103.922 48.8712C143.165 45.7382 200.234 45.7552 220 48.9052C230.442 50.5692 250.96 54.8202 257.946 56.7662C271.778 60.6212 268.33 60.8882 204.73 60.8882C128.007 60.8882 98.0559 62.3692 32.4999 69.4072C19.8499 70.7652 8.18494 71.8792 6.57894 71.8822C1.04594 71.8932 -2.06406 66.0952 1.54094 62.4902C3.47594 60.5542 13.2429 57.4462 42.9999 49.2932C93.7969 35.3762 138.087 24.7952 185 15.3682C199.575 12.4402 210.07 10.0082 208.322 9.9662C200.263 9.7692 126.66 16.3992 64.3059 22.9382C9.97194 28.6372 8.99994 28.6892 8.99994 25.9232C8.99994 24.8432 9.78694 23.5442 10.7499 23.0382Z" fill="black"/>
</svg>
