<svg width="370" height="55" viewBox="0 0 370 55" fill="none" xmlns="http://www.w3.org/2000/svg">
<path d="M303.084 15.339C317.538 10.458 329.885 7.15692 348.03 3.32092C364.715 -0.206084 370.425 -0.818021 369.824 0.984979C368.989 3.49098 338.56 14.7499 309.142 23.4369C289.189 29.3289 286.622 29.7119 283.859 27.2119C281.634 25.1989 281.555 22.9399 283.543 18.1809C284.375 16.1899 284.835 14.338 284.564 14.068C283.633 13.137 266.104 21.1129 254.262 27.8559C247.74 31.57 236.397 38.4918 229.056 43.2378C216.692 51.2318 214.081 52.4228 210.03 51.9158C207.624 51.6148 205.885 48.5979 206.543 45.8669C207.457 42.0729 213.27 33.7339 221.304 24.6949C225.278 20.2229 229.826 15.026 231.41 13.146L234.291 9.72692L230.41 10.4239C224.477 11.4889 205.111 17.4599 196.354 20.9239C185.237 25.3219 167.843 34.2728 151.237 44.1388C134.548 54.0548 129.331 55.9499 125.546 53.4689C123.599 52.1939 123.032 50.9779 123.039 48.0939C123.052 43.0229 127.076 36.3629 137.075 24.8669C145.305 15.4039 145.326 15.3659 142.434 15.0829C134.442 14.3029 96.2719 27.3028 72.0299 39.0608C53.2289 48.1808 50.4909 49.1839 48.0199 47.8619C43.4919 45.4379 44.4549 42.491 55.0909 26.23C62.9069 14.282 64.0639 11.8669 61.9729 11.8669C58.4389 11.8669 30.6349 25.0549 12.6399 35.2679C5.05688 39.5709 2.43787 40.6209 1.41087 39.7689C-0.955126 37.8049 1.57087 35.318 12.2599 29.09C39.0039 13.505 60.7319 4.66295 66.7049 6.93395C70.9589 8.55095 69.4489 13.877 60.6999 28.116C56.5649 34.846 53.2919 40.4619 53.4269 40.5969C53.5619 40.7319 60.3369 37.4809 68.4839 33.3729C94.5069 20.2509 125.983 9.1659 140.102 8.1499C148.571 7.5409 151.665 8.56596 152.6 12.288C153.446 15.659 151.282 19.242 141.73 30.282C137.108 35.624 132.295 41.8309 131.033 44.0749L128.739 48.1569L131.364 47.4979C134.123 46.8059 135.379 46.0908 157.03 32.8998C178.904 19.5728 199.011 10.7229 219.525 5.39294C229.909 2.69594 239.866 2.10289 241.83 4.06689C243.507 5.74389 243.327 10.999 241.501 13.604C240.661 14.804 235.508 20.852 230.05 27.042C224.593 33.233 220.276 38.4459 220.457 38.6269C220.637 38.8079 226.353 35.3139 233.158 30.8639C254.645 16.8099 277.967 5.86694 286.43 5.86694C292.127 5.86694 293.417 7.48694 292.804 13.8719C292.54 16.6189 292.394 18.8669 292.48 18.8669C292.567 18.8669 297.338 17.28 303.084 15.339Z" fill="black"/>
</svg>
