<svg width="419" height="64" viewBox="0 0 419 64" fill="none" xmlns="http://www.w3.org/2000/svg">
<path d="M231.28 38.9743C244.579 32.7023 253.897 28.7772 296.53 11.4832C311.93 5.2362 325.002 0.0732015 325.58 0.00920146C327.106 -0.159799 329.03 2.03128 329.03 3.93828C329.03 4.84328 328.13 6.39823 327.03 7.39323C325.93 8.38824 325.028 9.69626 325.025 10.2983C325.022 10.9003 321.595 15.2182 317.41 19.8932C310.686 27.4042 303.347 36.8932 304.262 36.8932C304.443 36.8932 308.402 35.2852 313.06 33.3202C338.112 22.7532 374.776 11.2172 407.791 3.51421C418.173 1.09121 421.672 1.47525 415.99 4.41325C409.427 7.80725 374.35 21.1222 348.03 30.2103C332.905 35.4333 316.593 41.0982 311.782 42.7992C302.116 46.2182 297.901 46.6482 296.041 44.4062C293.463 41.3002 298.138 31.8372 308.126 19.9412C311.53 15.8872 313.689 12.8232 312.923 13.1322C312.157 13.4422 301.405 17.8242 289.03 22.8722C233.662 45.4552 213.571 53.0932 212.046 52.1392C208.684 50.0372 209.836 46.5452 218.024 34.0252C222.468 27.2302 226.158 21.3833 226.223 21.0323C226.289 20.6813 225.926 19.3852 225.418 18.1532L224.493 15.9123L206.511 21.9772C185.723 28.9882 162.813 37.9492 141.727 47.3172C126.095 54.2612 121.594 55.2462 120.548 51.9502C119.685 49.2302 122.583 44.0242 131.403 32.4512C135.57 26.9832 138.826 22.3553 138.637 22.1673C137.5 21.0303 93.069 38.7913 68.03 50.3923C42.735 62.1113 38.019 64.0262 35.245 63.7052C33.761 63.5332 32.414 62.6902 32.251 61.8312C32.089 60.9712 34.785 55.3372 38.243 49.3092C45.651 36.3962 48.5949 30.1252 47.6789 29.2082C46.8259 28.3552 38.568 31.7772 18.21 41.4212C6.88695 46.7852 1.56995 48.8333 0.846945 48.1103C0.272945 47.5363 0.11597 46.5632 0.49697 45.9462C0.87897 45.3292 8.24198 41.3052 16.86 37.0042C42.314 24.2992 50.065 21.8202 53.056 25.4252C55.232 28.0462 52.21 35.7232 42.381 52.5442L39.956 56.6962L56.243 48.4942C65.201 43.9832 78.155 37.9072 85.03 34.9922C97.294 29.7912 143.604 13.8932 146.491 13.8932C148.787 13.8932 150.306 17.5082 149.02 19.9112C148.119 21.5962 134.377 39.1003 129.196 45.1633C128.364 46.1363 134.624 43.5802 143.107 39.4822C161.935 30.3862 179.404 23.3743 200.53 16.4342C220.665 9.81925 233.44 6.4532 235.461 7.2282C237.193 7.8932 237.611 12.4162 236.03 13.3932C235.48 13.7332 235.03 15.4642 235.03 17.2392C235.03 19.6392 232.978 23.4472 227.03 32.0862C222.63 38.4772 219.03 43.9412 219.03 44.2282C219.03 44.5152 224.543 42.1513 231.28 38.9743Z" fill="black"/>
</svg>
