<svg width="356" height="29" viewBox="0 0 356 29" fill="none" xmlns="http://www.w3.org/2000/svg">
<path d="M210.879 14.9294C215.381 14.9294 221.116 13.3624 238.057 7.50142C249.867 3.41642 260.935 0.041415 262.653 0.00141502C264.37 -0.038585 267.745 0.774445 270.153 1.80745C274.296 3.58545 275.467 3.61545 292.03 2.36445C301.655 1.63745 319.767 1.0174 332.28 0.9864C351.861 0.9374 355.03 1.13839 355.03 2.42939C355.03 3.25439 354.563 3.92939 353.993 3.92939C353.422 3.92939 345.659 4.81338 336.743 5.89338C320.086 7.91038 291.361 9.92939 279.311 9.92939C274.022 9.92939 271.496 9.3874 267.924 7.4864L263.334 5.04243L251.932 9.08943C245.661 11.3154 236.03 14.7304 230.53 16.6784C223.004 19.3434 218.376 20.3374 211.823 20.6954C203.119 21.1694 203.116 21.1694 199.944 17.9964L196.771 14.8234L184.65 19.2854C163.106 27.2174 153.974 28.7344 150.55 24.9514C148.747 22.9594 148.767 18.0844 150.595 13.5314C151.311 11.7494 150.982 11.6764 145.191 12.3314C135.701 13.4054 124.86 16.5384 109.547 22.6324C93.827 28.8894 89.221 29.5673 85.791 26.1293C83.792 24.1263 83.534 22.8804 83.566 15.3964C83.585 10.7394 83.36 6.91243 83.066 6.89143C82.771 6.87043 74.88 10.7444 65.53 15.5014C41.515 27.7184 36.667 27.9224 34.006 16.8314C32.573 10.8574 30.094 8.76339 25.883 9.97139C22.239 11.0164 11.991 16.8295 6.36896 21.0415C2.34096 24.0585 0.0299683 24.2215 0.0299683 21.4895C0.0299683 19.5715 6.25198 15.1194 15.79 10.2114C29.056 3.38538 33.916 4.55841 37.903 15.5484C39.576 20.1614 39.861 20.4204 43.101 20.2644C45.204 20.1634 53.41 16.5874 64.323 11.0144C74.11 6.01735 82.972 1.92939 84.017 1.92939C87.574 1.92939 88.91 5.47239 88.316 13.3304C87.875 19.1584 88.082 20.8384 89.402 22.1584C91.443 24.1994 92.965 23.7883 108.03 17.1243C122.646 10.6593 135.345 6.97943 145.593 6.24043C156.259 5.47143 158.379 6.51735 157.794 12.2644C157.561 14.5554 156.993 17.2885 156.532 18.3385C155.754 20.1105 156.032 20.2014 160.41 19.6014C163.004 19.2454 172.51 16.4474 181.534 13.3834C194.861 8.85837 198.326 8.01744 199.986 8.90644C201.11 9.50744 202.03 10.4014 202.03 10.8934C202.03 13.3754 205.436 14.9294 210.879 14.9294Z" fill="black"/>
</svg>
