<svg width="271" height="34" viewBox="0 0 271 34" fill="none" xmlns="http://www.w3.org/2000/svg">
<path d="M136 22.4716C175.539 12.3216 204.333 6.96861 244 2.39361C267.403 -0.305393 271 -0.523454 271 0.755546C271 1.95355 268.647 2.43555 214.5 12.3335C189.2 16.9585 157.51 23.2386 144.078 26.2896C106.748 34.7676 95.668 35.5975 90.38 30.3095C88.343 28.2725 88.158 27.5476 89.065 25.1396C90.454 21.4496 96.13 15.6365 103.263 10.5995C106.432 8.36154 108.877 6.38261 108.696 6.20061C108.514 6.01961 102.546 7.38157 95.433 9.22857C55.095 19.7036 46.537 21.8466 37 23.8646C24.9 26.4246 0 27.8406 0 25.9686C0 25.2406 2.4 24.8375 6.75 24.8345C16.535 24.8285 29.513 22.4895 51.83 16.7105C111.922 1.1475 114.069 0.64455 115.831 1.73455C117.945 3.04055 116.119 5.44357 109.184 10.4786C100.726 16.6196 92 24.7295 92 26.4485C92 28.9915 96.137 30.1175 103.429 29.5585C107.318 29.2605 121.975 26.0716 136 22.4716Z" fill="black"/>
</svg>
