<svg width="408" height="47" viewBox="0 0 408 47" fill="none" xmlns="http://www.w3.org/2000/svg">
<path d="M161.535 14.2641C176.156 6.08714 184.286 2.45915 191.535 0.874153C199.147 -0.789847 202.514 -0.338865 218.757 4.51813C247.077 12.9861 265.101 14.8951 309.035 14.0781C325.81 13.7661 347.41 12.7911 357.035 11.9121C373.207 10.4341 399.498 7.02114 404.785 5.71314C406.55 5.27614 407.035 5.58413 407.035 7.14313C407.035 8.74913 405.835 9.42713 400.785 10.6771C380.367 15.7311 337.126 19.3741 297.552 19.3721C260.334 19.3711 243.815 17.3641 218.262 9.73914C208.913 6.94914 201.097 5.19615 198.112 5.21915C191.669 5.26915 181.249 9.39414 165.322 18.2001C144.086 29.9411 140.534 29.9941 128.056 18.7561C118.546 10.1911 113.634 7.94314 106.406 8.84614C92.7169 10.5561 81.0369 15.5241 57.0189 29.8521C47.9859 35.2411 37.4479 40.9892 33.6009 42.6252C20.4669 48.2152 9.60189 47.1991 3.08189 39.7731C-0.341114 35.8751 -1.06011 30.7301 1.67089 29.6821C4.19189 28.7151 6.53489 30.7892 6.53489 33.9872C6.53489 36.3972 7.27689 37.2551 11.0349 39.1921C19.6929 43.6531 28.8159 40.6561 55.9139 24.4451C81.6619 9.04314 94.5319 4.08016 109.035 3.96116C117.993 3.88816 120.181 4.89413 129.74 13.4831C138.268 21.1451 141.798 22.7861 146.822 21.4231C148.864 20.8691 155.485 17.6481 161.535 14.2641Z" fill="black"/>
</svg>
