<svg width="262" height="127" viewBox="0 0 262 127" fill="none" xmlns="http://www.w3.org/2000/svg">
<path d="M22.5 27.8247C56.175 18.9517 164.5 3.93368 221.5 0.23668C232.202 -0.45732 253.401 0.467687 257.489 1.80669C259.967 2.61869 261.611 3.82868 261.838 5.00768C262.134 6.54768 261.856 6.73568 260.351 6.00768C257.23 4.49768 220.626 5.11067 203 6.96867C158.644 11.6447 105.042 18.8867 68.115 25.1936C20.251 33.3686 3.443 38.3897 5.551 43.8827C7.326 48.5097 22.397 55.3097 39 58.9747C61.794 64.0067 88.51 66.0097 154 67.5957C225.442 69.3267 242 71.0197 242 76.5897C242 81.2137 235.149 83.4197 195.448 91.5787C156.568 99.5687 139.272 103.32 83 115.97C29.738 127.943 32.374 127.416 32.092 126.141C31.871 125.137 38.742 123.109 79.541 112.14C111.008 103.68 138.563 97.3547 186.377 87.6187C224.714 79.8117 233.539 77.8177 232.839 77.1177C231.751 76.0297 203.739 74.4487 162 73.1217C94.027 70.9587 73.469 69.5987 48.5 65.6117C19.152 60.9257 0 51.6897 0 42.2217C0 36.2497 6.631 32.0067 22.5 27.8247Z" fill="black"/>
</svg>
