<svg width="529" height="65" viewBox="0 0 529 65" fill="none" xmlns="http://www.w3.org/2000/svg">
<path d="M148.493 18.5451C168.89 9.80506 193.101 2.90407 211.533 0.576066C221.362 -0.665934 243.256 0.213003 250.387 2.136C266.53 6.488 275.98 14.059 285.536 30.297C295.438 47.122 302.08 52.3411 316.583 54.6951C326.171 56.2501 335.647 54.998 367.166 48.011C412.259 38.014 436.41 35.135 475.387 35.109C498.783 35.094 526.345 36.7121 527.819 38.1861C529.783 40.1501 524.645 40.6201 457.387 44.6381C426.759 46.4671 411.95 48.567 368.387 57.255C343.586 62.202 338.902 62.8531 327.387 62.9491C302.408 63.1591 291.871 56.9701 279.704 34.9441C276.819 29.7201 272.891 23.615 270.977 21.379C254.838 2.52505 218.09 -0.127936 172.564 14.2741C149.902 21.4431 133.742 28.7971 106.387 44.3881C77.5213 60.8421 66.9382 64.5961 49.4772 64.5751C37.8162 64.5611 31.5883 63.144 22.9433 58.536C9.23229 51.228 -0.995733 33.2711 0.0772665 18.3891C0.334266 14.8251 0.767291 14.0331 2.60229 13.7721C5.02229 13.4281 4.90923 13.137 6.96923 24.985C8.50423 33.806 13.7812 44.355 19.0342 49.1C24.8842 54.386 34.1393 58.4071 43.6423 59.7931C50.4043 60.7781 53.2162 60.7141 60.5822 59.4091C72.6122 57.2761 82.0553 53.292 103.851 41.152C126.228 28.689 133.975 24.7651 148.493 18.5451Z" fill="black"/>
</svg>
