<svg width="422" height="47" viewBox="0 0 422 47" fill="none" xmlns="http://www.w3.org/2000/svg">
<path d="M96.53 13.5572C127.528 6.71524 157.411 1.44221 172.53 0.147207C174.73 -0.0417929 177.129 -0.0498593 177.862 0.129141C178.594 0.309141 179.784 0.455191 180.505 0.455191C182.632 0.455191 183.216 3.59225 181.452 5.54125C180.558 6.52925 173.76 11.7342 166.346 17.1072C152.983 26.7912 140.547 38.5702 141.334 40.7982C141.976 42.6162 151.83 41.8242 182.53 37.4892C239.492 29.4452 294.189 24.3882 377.51 19.4632C415.306 17.2292 422.886 17.0342 421.48 18.3312C420.957 18.8122 406.58 20.4091 389.53 21.8791C276.822 31.5971 226.603 36.6421 180.256 42.9051C153.213 46.5591 142.331 47.2222 138.964 45.4202C136.666 44.1902 136.447 40.4831 138.445 36.6191C140.6 32.4511 154.409 19.7142 164.936 12.1832C176.253 4.08722 176.424 4.13125 150.467 8.41625C116.393 14.0403 76.042 22.8131 30.171 34.5721C4.83997 41.0651 -2.09701 42.1822 0.780989 39.3042C3.09599 36.9892 61.403 21.3112 96.53 13.5572Z" fill="black"/>
</svg>
