<svg width="355" height="17" viewBox="0 0 355 17" fill="none" xmlns="http://www.w3.org/2000/svg">
<path d="M94.4904 6.70004C101.07 4.37904 108.478 1.85503 110.953 1.09003C117.912 -1.05897 124.324 -0.0929804 133.9 4.54602C139.429 7.22402 143.715 8.63803 146.307 8.63803C148.485 8.63803 157.243 6.80002 165.77 4.55502C184.43 -0.360978 189.531 -0.590966 208.757 2.61703L223.061 5.00302L237.911 3.17602C248.819 1.83502 255.242 1.54803 262.107 2.09503C267.247 2.50503 288.778 3.13204 309.953 3.48904C336.91 3.94304 349.077 4.49604 350.535 5.33304C353.648 7.12004 355.249 9.42304 354.585 11.156C354.067 12.504 353.491 12.443 350.013 10.668C346.258 8.75303 344.236 8.63903 314.243 8.65503C296.758 8.66403 276.308 8.12904 268.797 7.46704C256.708 6.40004 253.346 6.47803 239.51 8.14703C222.954 10.144 221.907 10.098 197.754 6.29504C187.503 4.68104 183.359 5.17203 165.162 10.16C147.928 14.884 142.964 14.82 132.488 9.74502C128.069 7.60402 123.103 5.57203 121.453 5.22903C118.119 4.53803 111.191 6.36402 94.9534 12.214C86.7024 15.187 82.9534 16.007 77.4534 16.045C71.0474 16.09 69.7754 15.726 62.4534 11.755C54.5564 7.47203 54.3574 7.42403 46.9534 7.98703C42.8284 8.30103 35.1784 9.42501 29.9534 10.485C18.9254 12.722 4.84637 14.056 1.95637 13.139C-0.427628 12.382 -0.709648 9.10602 1.53535 8.24502C2.40535 7.91102 6.34337 7.63803 10.2874 7.63803C14.2304 7.63803 22.1814 6.71603 27.9554 5.59003C33.7294 4.46303 42.5034 3.29702 47.4534 2.99802C55.8534 2.49102 56.7874 2.63403 61.4534 5.14303C64.2034 6.62104 67.8034 8.55504 69.4534 9.44104C74.4034 12.099 81.3394 11.34 94.4904 6.70004Z" fill="black"/>
</svg>
