<svg width="706" height="46" viewBox="0 0 706 46" fill="none" xmlns="http://www.w3.org/2000/svg">
<path d="M199.388 18.167C209.729 9.47802 219.41 3.79404 227.633 1.58304C230.617 0.781036 235.805 0.0948656 239.161 0.0588656C248.538 -0.0421344 250.801 1.94398 258.059 16.648C265.963 32.66 269.195 36.0019 276.759 35.9859C281.338 35.9769 283.917 34.0229 295.554 21.7429C303.913 12.9219 306.975 10.4088 312.883 7.51883C321.311 3.39683 331.916 0.992948 341.674 0.992948C352.035 0.992948 353.829 2.27892 358.996 13.4109C366.551 29.6899 374.067 35.272 388.624 35.417C398.032 35.511 401.04 33.719 408.006 23.867C410.677 20.09 414.375 15.8449 416.225 14.4339C425.027 7.72087 441.074 2.99295 455.059 2.99295C463.321 2.99295 464.859 3.30294 470.432 6.08694C477.259 9.49894 480.54 12.995 485.082 21.7C487.47 26.277 488.818 27.7249 491.503 28.5989C497.791 30.6449 501.013 28.9999 510.95 18.6739C517.674 11.6849 521.548 8.5249 525.749 6.5989C534.465 2.6039 546.804 0.00802774 557.113 2.77398e-05C569.098 -0.00897226 573.48 2.16683 585.506 14.1018C598.279 26.7778 606.956 30.361 615.868 26.637C617.652 25.892 623.03 21.6519 627.819 17.2149C634.21 11.2939 638.059 8.56885 642.292 6.96585C656.649 1.52885 677.795 -0.599113 686.596 2.50589C693.175 4.82689 699.012 10.21 702.483 17.158C705.64 23.474 706.444 27.9929 704.411 27.9929C703.78 27.9929 699.392 24.2691 694.661 19.7171C688.605 13.8911 684.841 11.0791 681.943 10.2171C676.431 8.57807 662.624 8.69591 654.332 10.4529C643.357 12.7789 639.286 15.1319 630.844 24.0269C620.962 34.4389 617.26 36.4529 608.059 36.4199C597.496 36.382 591.563 33.2369 579.143 21.0889C573.597 15.6639 567.484 10.417 565.559 9.42898C558.455 5.78298 538.017 8.14705 526.691 13.9261C522.63 15.9971 516.865 21.951 511.864 29.24C507.509 35.585 502.526 37.9929 493.747 37.9929C484.812 37.9929 481.496 35.8219 475.722 26.1939C469.362 15.5879 463.604 11.9929 452.975 11.9929C442.326 11.9929 425.505 17.0251 420.226 21.7901C419.188 22.7271 416.384 26.5129 413.995 30.2039C406.247 42.1719 397.144 46.34 383.156 44.325C367.398 42.055 358.872 35.618 351.198 20.201C346.263 10.284 345.679 10.027 332.993 12.178C318.239 14.681 313.464 17.4038 300.543 30.6848C293.669 37.7518 287.763 42.905 285.211 44.064C272.478 49.845 257.598 41.6248 251.075 25.2058C247.182 15.4048 243.962 10.311 241.228 9.62503C237.974 8.80803 228.31 11.4009 221.059 15.0369C217.759 16.6919 211.009 21.4259 206.059 25.5559C194.552 35.1589 189.612 38.4429 182.664 41.1079C174.93 44.0759 164.746 44.234 160.89 41.447C158.108 39.436 153.899 32.0288 150.169 22.5808C147.338 15.4128 144.352 14.0009 132.005 13.9969C118.969 13.9919 115.639 15.6198 101.059 29.1228C85.8862 43.1758 81.6012 44.901 71.4422 41.041C63.9202 38.183 59.0382 34.422 55.0522 28.417C51.1172 22.489 44.6752 16.775 39.4822 14.606C36.5842 13.396 35.4622 13.3819 32.1692 14.5149C26.1412 16.5889 18.3712 22.4211 10.0962 31.0821C5.93923 35.4331 2.11923 38.9929 1.60823 38.9929C-5.28077 38.9929 11.3842 18.5629 24.6522 10.7429C29.6322 7.80795 32.0612 6.99295 35.8362 6.99295C43.9452 6.99295 52.7432 12.9549 59.6582 23.1389C63.8802 29.3559 67.0662 31.8489 74.3822 34.6599C78.5262 36.2519 78.8782 36.2349 82.8822 34.2639C85.1792 33.1329 92.5372 27.039 99.2322 20.721C113.925 6.85498 115.867 5.98292 131.987 6.01492C149.093 6.04892 152.298 8.09186 160.33 24.0799L165.059 33.4929L170.184 33.4571C177.351 33.4071 187.7 27.988 199.388 18.167Z" fill="black"/>
</svg>
