<svg width="680" height="65" viewBox="0 0 680 65" fill="none" xmlns="http://www.w3.org/2000/svg">
<path d="M613.834 25.1397C619.212 17.6027 629.244 5.47979 632.914 2.08279C636.286 -1.03821 638.306 -0.754115 643.893 3.63089C646.555 5.72089 652.783 10.2688 657.733 13.7388C667.534 20.6108 679.233 31.4509 679.233 33.6629C679.233 38.4569 653.41 24.3328 640.463 12.4568C638.114 10.3028 636.05 8.71879 635.876 8.93679C630.682 15.4448 620.409 31.3598 617.647 37.1768C612.557 47.8948 609.145 49.2648 604.2 42.5728C602.884 40.7908 597.908 35.6217 593.142 31.0857C588.377 26.5497 583.921 21.4929 583.239 19.8489C582.558 18.2039 581.57 17.1247 581.043 17.4497C579.459 18.4297 571.558 31.2298 567.25 39.7998C562.398 49.4488 560.582 50.0187 553.961 43.9717C551.635 41.8487 545.683 37.5118 540.734 34.3338C535.784 31.1558 528.554 25.4719 524.667 21.7029L517.599 14.8499L514.432 17.1858C509.689 20.6848 507.283 24.1659 501.233 36.2759C493.595 51.5659 494.427 51.4518 475.137 39.8308C466.665 34.7268 455.747 27.8318 450.875 24.5088L442.018 18.4668L440.095 20.8997C436.826 25.0357 429.476 40.9488 427.193 48.8328C424.996 56.4218 422.513 59.8328 419.186 59.8328C418.182 59.8328 414.519 57.3257 411.047 54.2617C407.574 51.1987 399.558 45.2818 393.233 41.1148C378.971 31.7188 370.608 24.9867 366.815 19.8477L363.896 15.8948L357.83 19.1138C345.826 25.4838 334.624 39.3257 332.09 50.9197C330.804 56.8027 329.123 58.8328 325.536 58.8328C321.734 58.8328 296.305 34.2567 287.944 22.5017C286.722 20.7837 286.167 20.9888 278.926 25.8318C270.339 31.5758 264.531 37.8068 256.876 49.4868C252.348 56.3948 251.375 57.3328 248.733 57.3328C246.207 57.3328 245.437 56.6968 243.86 53.3098C242.673 50.7598 239.743 47.5767 235.86 44.6187C227.097 37.9417 223.42 33.8358 221.371 28.4378L219.575 23.7049L214.465 27.7437C204.084 35.9487 198.648 42.5998 189.888 57.8108C186.481 63.7258 182.558 66.1298 179.43 64.2197C178.497 63.6497 176.46 60.7418 174.905 57.7578C170.598 49.4958 165.164 42.9777 152.928 31.3987L141.77 20.8389L132.217 30.5857C126.963 35.9467 119.525 44.8238 115.689 50.3118C105.268 65.2228 102.061 65.5498 92.4778 52.6768C89.1178 48.1628 83.1428 38.6957 79.1998 31.6377C75.2578 24.5807 71.2087 17.7999 70.2028 16.5699L68.3738 14.3328L64.2168 18.3328C61.9308 20.5328 54.6538 29.4547 48.0458 38.1587C32.1718 59.0687 28.8168 61.0649 21.1658 54.1529C17.1738 50.5469 15.9958 48.3968 3.2578 21.4668C-1.0492 12.3628 -1.07925 9.96383 3.12975 11.2998C5.98475 12.2058 9.72379 17.9307 17.5788 33.4197C21.2288 40.6177 25.1238 47.3287 26.2348 48.3347C28.1988 50.1117 28.3238 50.0959 30.8338 47.7469C32.2518 46.4199 37.5078 39.9328 42.5128 33.3328C47.5178 26.7328 54.6748 18.2958 58.4158 14.5828C64.3128 8.73279 65.7048 7.83279 68.8578 7.83279C73.7678 7.83279 76.7868 11.2037 86.3908 27.4107C94.0868 40.3967 101.982 51.8328 103.251 51.8328C103.626 51.8328 106.482 48.0019 109.598 43.3199C119.056 29.1079 138.231 10.8328 143.685 10.8328C145.263 10.8328 153.323 17.5868 167.549 30.8328C170.798 33.8578 175.705 39.3527 178.453 43.0447L183.451 49.7559L188.164 42.5447C190.756 38.5777 195.68 32.5338 199.105 29.1138C206.165 22.0618 220.915 11.8328 224.023 11.8328C227.121 11.8328 229.036 14.3359 229.791 19.3709C230.706 25.4699 233.385 29.1257 242.146 36.2317L249.551 42.2368L252.075 38.7847C260.042 27.8877 276.813 14.7897 288.231 10.5457C291.364 9.38168 291.602 9.47384 294.115 12.8098C297.25 16.9738 321.363 41.8328 322.267 41.8328C322.615 41.8328 325.213 38.2807 328.041 33.9397C334.784 23.5867 343.298 15.9919 354.101 10.6939C365.949 4.88287 367.616 5.01784 374.877 12.3828C378.104 15.6548 385.617 21.4828 391.573 25.3328C397.53 29.1828 405.795 34.7147 409.94 37.6267C414.086 40.5387 417.552 42.7887 417.642 42.6267C417.733 42.4647 419.351 38.7328 421.238 34.3328C426.035 23.1488 428.676 18.6688 433.897 12.8618C440.904 5.06784 441.929 5.1458 456.525 14.5928C465.031 20.0978 490.458 34.9869 490.695 34.6009C501.05 17.6799 505.18 12.9408 513.094 8.90383C519.463 5.65483 521.327 6.14082 529.429 13.1648C538.913 21.3868 559.57 35.3208 560.067 33.8308C560.757 31.7598 574.895 13.3898 577.846 10.7298C583.379 5.74076 586.067 6.46072 590.566 14.1377C592.715 17.8047 606.968 31.8328 608.545 31.8328C608.827 31.8328 611.207 28.8207 613.834 25.1397Z" fill="black"/>
</svg>
