<svg width="115" height="27" viewBox="0 0 115 27" fill="none" xmlns="http://www.w3.org/2000/svg">
<path d="M34.598 13.2862C40.594 9.03323 47.75 4.30725 50.5 2.78525C53.25 1.26325 56.737 0.0103373 58.25 0.000337256C60.953 -0.0176627 61.826 0.667269 66.288 6.30527C68.175 8.68927 69.456 9.20916 74.511 9.64316C79.589 10.0792 101.203 7.64135 112.25 5.38535C114.52 4.92135 115 5.17236 115 6.82236C115 9.05436 109.815 10.5442 91.996 13.4342C73.823 16.3812 64.988 14.9353 60.916 8.34628C57.942 3.53429 57.159 3.82146 40 16.0005C28.251 24.3405 23.093 26.9824 18.563 26.9824C14.235 26.9824 12.443 24.6003 10.994 16.9233C9.18702 7.35331 9.22097 7.39616 5.96198 10.5182C2.97698 13.3782 0 13.3264 0 10.4154C0 7.82738 5.85597 2.98227 8.98297 2.98227C12.761 2.98227 13.701 4.43033 15.513 13.0423C16.37 17.1193 17.473 20.8554 17.963 21.3454C19.62 23.0024 23.66 21.0462 34.598 13.2862Z" fill="black"/>
</svg>
