<svg width="589" height="22" viewBox="0 0 589 22" fill="none" xmlns="http://www.w3.org/2000/svg">
<path d="M382.792 3.35386C419.712 3.18486 437.326 2.70787 448.292 1.57987C469.093 -0.56113 491.501 0.0118616 502.792 2.97086C514.238 5.97186 531.998 5.98487 551.292 3.00687C576.252 -0.845128 589.322 -1.00011 588.608 2.56489C588.362 3.79789 586.64 4.22487 580.792 4.50287C576.667 4.69887 565.417 6.06488 555.792 7.53788C532.512 11.1019 514.245 11.2569 501.292 7.99988C488.499 4.78288 474.886 4.38088 451.292 6.52488C435.508 7.95788 421.067 8.36087 382.792 8.43387L334.292 8.52588L313.292 12.3119C267.595 20.5499 247.205 22.0919 217.292 19.5739C192.894 17.5209 182.323 17.4909 164.792 19.4249C144.553 21.6589 118.998 22.3609 106.722 21.0199C100.908 20.3859 89.658 18.5159 81.722 16.8669C65.849 13.5669 65.951 13.5659 39.426 16.9919C21.096 19.3589 2.593 19.5819 0.827995 17.4559C-1.52 14.6259 0.777978 13.9119 12.235 13.9119C18.463 13.9119 30.474 12.9699 38.926 11.8189C61.934 8.68388 70.305 8.86887 88.792 12.9199C103.819 16.2129 104.964 16.3159 126.292 16.3049C140.608 16.2969 153.254 15.7029 162.499 14.6029C180.325 12.4809 193.896 12.4689 218.17 14.5539C247.149 17.0429 269.502 15.1819 317.792 6.26288C332.148 3.61188 332.793 3.58286 382.792 3.35386Z" fill="black"/>
</svg>
