<svg width="413" height="61" viewBox="0 0 413 61" fill="none" xmlns="http://www.w3.org/2000/svg">
<path d="M153.463 30.3288C195.197 12.5428 217.449 4.21178 231.683 1.04378C242.251 -1.30722 246.568 0.243744 246.605 6.40474C246.625 9.74474 245.643 10.9848 234.224 22.0328C221.477 34.3668 214.583 42.5108 214.583 45.2368C214.583 47.7778 220.719 46.2077 242.337 38.1337C300.92 16.2547 343.479 6.34781 395.84 2.40181C410.382 1.30581 413.973 1.4768 412.265 3.1838C411.544 3.9048 387.533 9.85285 342.083 20.5669C305.339 29.2289 289.149 33.7778 253.083 45.5738C228.996 53.4518 224.059 54.7528 217.753 54.8818C210.876 55.0238 210.274 54.8598 208.003 52.2268C202.575 45.9338 206.3 37.7608 221.853 21.8448L232.89 10.5498L227.487 12.1528C217.001 15.2648 197.731 22.8257 166.083 36.2487C128.506 52.1867 116.544 56.7378 106.154 59.0488C96.131 61.2788 90.58 60.5068 87.126 56.4008C82.338 50.7108 84.647 41.2558 94.354 26.8078C96.489 23.6318 98.562 20.4748 98.962 19.7918C99.904 18.1858 88.0739 22.3698 58.0829 34.2498C14.9239 51.3448 5.11495 54.0128 1.23495 49.7088C-0.829045 47.4198 -0.244046 45.5328 2.52795 45.5328C5.91395 45.5328 19.9409 40.3247 45.5829 29.5457C76.7389 16.4487 93.27 10.1438 100.783 8.4908C105.794 7.3888 106.791 7.4388 109.033 8.9078C113.521 11.8488 112.563 15.8558 104.428 28.1878C96.9609 39.5058 93.642 45.8218 93.6049 48.7828C93.5689 51.6488 100.661 50.9588 112.376 46.9558C118.133 44.9888 136.623 37.5068 153.463 30.3288Z" fill="black"/>
</svg>
