<svg width="541" height="20" viewBox="0 0 541 20" fill="none" xmlns="http://www.w3.org/2000/svg">
<path d="M244.441 8.34843C264.557 10.5324 270.626 10.0294 298.5 3.86943C317.834 -0.403574 324.206 -0.924585 330.41 1.26441C339.002 4.29641 351.713 5.88443 375 6.83543C427.998 8.99943 441.485 9.76443 452.5 11.2314C480.043 14.8984 502.633 15.0694 530.469 11.8224C539.04 10.8224 542.181 11.5154 539.813 13.8834C538.404 15.2924 523.44 17.5554 507 18.8454C492.841 19.9564 470.644 18.9154 451 16.2184C440.418 14.7654 425.841 13.9324 374 11.8194C348.285 10.7714 340.562 9.86844 330.791 6.76744C322.669 4.18944 320.982 4.25643 305.822 7.75843C288.006 11.8734 269.326 14.7964 260.842 14.7964C256.905 14.7964 248.13 14.0674 241.342 13.1764C225.547 11.1034 212.98 11.7714 192 15.7994C163.85 21.2034 154.562 20.9614 124 14.0234C109.538 10.7414 106.606 10.3934 93.5 10.4104C81.656 10.4254 75.519 11.0334 60 13.7294C46.765 16.0294 36.752 17.1554 27 17.4404C14.378 17.8094 12.36 17.6254 6.5 15.5734C1.426 13.7954 0 12.8574 0 11.2964C0 8.87343 2.439 8.87142 10.5 11.2864C18.512 13.6864 35.577 12.7684 59 8.67842C75.309 5.83042 80.266 5.36543 94 5.39543C108.777 5.42643 111.241 5.71143 126.227 9.11943C156.223 15.9414 163.305 16.1314 190.066 10.8354C211.261 6.64143 223.545 6.07943 244.441 8.34843Z" fill="black"/>
</svg>
