<svg width="257" height="67" viewBox="0 0 257 67" fill="none" xmlns="http://www.w3.org/2000/svg">
<path d="M126.602 6.44847C146.568 4.39047 176.963 1.92547 199.5 0.534467C202.25 0.364467 215.807 0.144454 229.628 0.0454537C251.253 -0.109546 254.934 0.0814488 256.042 1.41545C257.099 2.68945 257.061 3.23248 255.83 4.46348C254.902 5.39248 237.057 9.53045 208.916 15.3425C134.118 30.7924 110.676 36.0315 72.4999 45.8305C49.9909 51.6085 20.4019 60.6005 21.2169 61.4165C21.4429 61.6425 34.6489 60.9554 50.5639 59.8894C66.4789 58.8234 92.3249 57.4234 108 56.7774C158.417 54.7014 255.592 57.4814 253.454 60.9394C253.114 61.4894 230.28 61.8685 197.191 61.8725C139.368 61.8795 100.535 62.8494 56.9999 65.3744C17.8019 67.6474 9.99994 67.3345 9.99994 63.4855C9.99994 59.8605 18.3389 56.1455 41.8309 49.3075C76.0979 39.3335 116.007 30.2344 195.413 14.2934C223.966 8.56144 247.553 3.64545 247.83 3.36845C249.708 1.49045 178.573 5.57544 134 9.90544C104.799 12.7424 20.7319 23.2224 6.49994 25.8014C1.22894 26.7564 -1.35506 25.8205 0.747941 23.7175C2.56794 21.8975 80.6749 11.1805 126.602 6.44847Z" fill="black"/>
</svg>
