<svg width="343" height="47" viewBox="0 0 343 47" fill="none" xmlns="http://www.w3.org/2000/svg">
<path d="M72.4399 22.8444C89.6499 9.38636 95.5359 5.44737 103.048 2.35837C109.767 -0.403628 115.272 -0.742635 119.332 1.35737C122.691 3.09336 127.223 9.95336 130.922 18.8994C136.368 32.0664 141.118 35.2904 150.888 32.4504C153.91 31.5714 164.378 26.8344 174.149 21.9244C195.392 11.2484 202.306 8.54736 214.039 6.34336C227.49 3.81536 233.58 4.61235 248.225 10.8163C265.707 18.2223 271.429 19.3094 291.914 19.1124C301.264 19.0224 316.279 18.3633 325.281 17.6473C338.96 16.5583 341.732 16.5654 342.164 17.6894C342.447 18.4284 342.282 19.4143 341.797 19.8803C339.596 21.9923 292.372 25.4614 279.914 24.4274C267.699 23.4134 259.1 21.1314 246.454 15.5504C235.121 10.5494 234.743 10.4594 225.414 10.5474C211.89 10.6754 202.229 13.8373 176.914 26.4193C165.364 32.1603 153.617 37.3784 150.808 38.0164C139.405 40.6064 133.498 36.5744 126.265 21.2634C123.631 15.6884 120.256 9.67635 118.763 7.90235C116.256 4.92335 115.713 4.72335 111.641 5.28135C105.318 6.14835 95.3979 11.7014 83.3699 21.1074C64.4859 35.8744 60.09 38.9504 52.5089 42.6974C45.5379 46.1424 44.3899 46.3994 35.966 46.3994C25.041 46.3994 19.573 44.0954 12.908 36.6814C4.65095 27.4974 -3.26405 7.39936 1.37595 7.39936C2.17995 7.39936 3.37595 8.52436 4.03395 9.89936C4.69195 11.2744 7.07995 16.3094 9.34095 21.0894C14.393 31.7704 20.2719 38.0274 27.5169 40.4334C39.3639 44.3684 50.4799 40.0154 72.4399 22.8444Z" fill="black"/>
</svg>
