<svg width="366" height="141" viewBox="0 0 366 141" fill="none" xmlns="http://www.w3.org/2000/svg">
<path d="M49.5 37.8412C106.327 21.4762 193.356 4.50524 240.559 0.585243C259.031 -0.948757 287.001 0.726225 287 3.36723C287 3.73423 278.337 4.05524 267.75 4.08024C247.727 4.12724 237.093 5.03316 208.5 9.12516C156.484 16.5682 84.292 32.4332 40.513 46.0412C22.916 51.5112 20.201 52.8152 28 52.0492C54.423 49.4552 98.555 46.9533 145.5 45.3863C195.665 43.7123 344.568 43.6192 348.25 45.2592C351.876 46.8752 351.922 50.2332 348.336 51.5962C346.871 52.1532 329.434 53.0403 309.586 53.5683C241.025 55.3893 197.453 58.7392 146 66.1452C95.591 73.4002 41.421 84.8472 17 93.4052C8.714 96.3092 8.608 96.3853 12.809 96.4593C15.178 96.5003 35.428 94.5292 57.809 92.0772C139.737 83.1052 193.276 78.9813 259.5 76.5423C304.873 74.8713 344.817 75.6932 358.745 78.5852C367.789 80.4622 367.486 85.1902 358.211 86.8952C356.403 87.2272 340.878 88.1862 323.711 89.0252C259.375 92.1712 213.631 96.6863 161 105.084C107.826 113.568 57.331 125.314 26.036 136.477C7.63 143.043 7.398 141.33 25.5 132.504C45.73 122.641 91.671 111.244 150.061 101.604C206.099 92.3532 257.298 87.2762 323 84.4582C337.575 83.8332 349.879 82.9682 350.341 82.5362C351.969 81.0182 321.099 80.2542 283 80.8692C212.782 82.0042 142 87.0613 50 97.5163C6.124 102.503 0 102.519 0 97.6542C0 94.6192 3.342 92.5532 14.754 88.5342C58.474 73.1332 156.078 56.6872 234.5 51.5072C270.895 49.1032 271.534 48.8092 239.5 49.2102C141.844 50.4322 96.155 51.9362 45.564 55.5922C17.536 57.6182 12.602 57.5442 11.659 55.0882C9.994 50.7482 19.108 46.5942 49.5 37.8412Z" fill="black"/>
</svg>
