<svg width="348" height="62" viewBox="0 0 348 62" fill="none" xmlns="http://www.w3.org/2000/svg">
<path fill-rule="evenodd" clip-rule="evenodd" d="M247.681 1.06309C239.573 1.99409 232.645 4.17314 223.892 8.54514L217.363 11.8061L213.255 7.9741C208.24 3.2971 202.603 1.62716 193.905 2.24216C186.321 2.77916 179.343 5.59813 173.261 10.5821L168.941 14.1211L165.536 11.5241C163.663 10.0951 159.496 7.99513 156.276 6.85813C151.299 5.10013 148.771 4.85915 139.421 5.25315C127.709 5.74615 119.502 8.0871 111.274 13.2811L107.374 15.7431L102.175 10.9631C95.39 4.72411 89.1349 2.59009 79.5419 3.24009C74.9549 3.55109 70.766 4.53911 67.771 6.01511L63.1199 8.30613L60.3829 6.15318C58.8779 4.96918 55.376 3.32617 52.602 2.50217C38.843 -1.58383 21.6609 3.10918 6.80093 15.0122C-3.83907 23.5352 -2.45906 24.0071 14.2419 17.5521C33.8349 9.9801 44.7199 8.22208 52.3309 11.4021C56.9669 13.3391 57.2749 14.2911 54.6849 18.6771C51.5559 23.9771 51.4699 34.5721 54.5229 38.6771C58.7939 44.4211 64.56 44.0951 69.199 37.8481C71.708 34.4681 71.891 24.2402 69.543 18.6322C68.651 16.5022 67.921 14.6451 67.921 14.5051C67.921 14.3651 70.142 13.2952 72.856 12.1272C82.018 8.18617 91.054 9.82114 98.11 16.6961L101.799 20.2901L97.9189 24.8971C92.2919 31.5791 89.9689 37.3531 89.9429 44.7191C89.923 50.2611 90.257 51.3171 93.025 54.4691C95.687 57.5011 96.749 58.0041 100.491 58.0041C104.143 58.0041 105.424 57.4341 108.347 54.5111C112.823 50.0351 114.323 44.5261 113.52 35.5041C113.177 31.6541 112.789 27.1951 112.659 25.5951C112.442 22.9461 113.047 22.3441 119.421 18.8681C134.894 10.4281 152.798 10.1391 163.216 18.1611C164.883 19.4441 164.901 19.8082 163.466 23.2422C159.904 31.7682 162.309 42.7872 168.954 48.3782C177.937 55.9371 184.149 44.8101 178.934 30.5041C177.731 27.2041 176.673 23.4112 176.584 22.0752C176.224 16.7012 191.649 8.99016 199.755 10.4922C203.673 11.2192 209.921 14.6131 209.921 16.0151C209.921 16.4811 207.318 19.3451 204.136 22.3801C190.756 35.1431 186.475 49.5671 193.566 57.9941C198.594 63.9691 206.858 63.1631 214.022 55.9991C220.654 49.3661 223.454 40.3542 222.608 28.3662L222.018 20.0011L231.22 15.6112C236.28 13.1962 242.6 10.7041 245.264 10.0741C250.558 8.82207 261.653 8.46715 264.754 9.45115C266.684 10.0641 266.683 10.1201 264.675 14.2771C261.728 20.3761 261.046 34.4251 263.398 40.5821C267.537 51.4221 281.049 51.7981 287.212 41.2451C289.713 36.9631 290.545 27.3041 288.914 21.4801C288.21 18.9661 286.339 15.1201 284.755 12.9331C282.136 9.31808 282.036 8.89318 283.648 8.23118C284.623 7.83118 288.346 7.54018 291.921 7.58518C299.576 7.67918 307.678 10.5261 313.157 15.0451L316.893 18.1272L312.835 23.5011C302.664 36.9731 302.113 53.3501 311.759 55.4691C317.423 56.7121 324.618 51.8621 328.025 44.5041C330.737 38.6471 330.507 29.8051 327.474 23.2901L325.046 18.0761L328.234 15.3861C331.859 12.3251 342.572 7.0061 345.112 7.0051C347.433 7.0041 348.481 5.03017 346.23 4.89817C339.466 4.50217 332.947 6.4951 326.271 11.0001L321.786 14.0271L317.604 10.6831C305.044 0.641083 291.617 -2.41581 279.084 1.91319C274.495 3.49719 273.163 3.5831 269.584 2.5261C263.498 0.7271 255.346 0.183087 247.681 1.06309ZM278.295 17.2541C283.823 24.5111 283.807 35.5892 278.262 39.9502C275.002 42.5142 274.426 42.5091 271.802 39.8851C269.9 37.9831 269.73 36.9311 270.144 29.6351C270.599 21.6081 272.873 14.0041 274.819 14.0041C275.369 14.0041 276.933 15.4671 278.295 17.2541ZM63.846 32.7322C63.252 34.5312 62.162 36.0041 61.423 36.0041C59.414 36.0041 58.599 30.5212 59.974 26.2572C61.875 20.3602 62.253 20.2291 63.632 24.9901C64.6 28.3331 64.654 30.2842 63.846 32.7322ZM323.873 34.0041C323.882 41.1871 318.231 49.4691 313.753 48.8341C308.996 48.1611 310.651 37.7752 317.123 27.6902L320.347 22.6651L322.108 26.5841C323.076 28.7401 323.87 32.0791 323.873 34.0041ZM214.921 31.8221C214.921 42.3371 208.681 54.0041 203.056 54.0041C198.069 54.0041 198.309 46.8932 203.571 38.7062C206.602 33.9922 212.852 27.0041 214.037 27.0041C214.523 27.0041 214.921 29.1721 214.921 31.8221ZM173.84 38.5041C173.85 42.4701 173.838 42.4831 172.421 40.0041C171.635 38.6291 171.012 35.4791 171.038 33.0041L171.083 28.5041L172.457 31.5041C173.213 33.1541 173.835 36.3041 173.84 38.5041ZM106.904 38.0041C106.921 44.6551 104.381 50.3681 101.206 50.8191C96.5129 51.4861 96.962 42.4851 102.019 34.5101C105.679 28.7391 106.883 29.6001 106.904 38.0041Z" fill="black"/>
</svg>
