<svg width="91" height="43" viewBox="0 0 91 43" fill="none" xmlns="http://www.w3.org/2000/svg">
<path fill-rule="evenodd" clip-rule="evenodd" d="M82.435 5.02502C78.621 7.78902 74.5069 10.7531 73.2929 11.6121C71.1899 13.1001 70.901 12.98 67.198 9.08704C63.785 5.49904 62.772 5.00297 58.905 5.02197C54.413 5.04397 46.93 7.84896 43.797 10.684C42.198 12.131 41.772 12.0069 38.51 9.14294C36.56 7.42994 33.825 5.74304 32.434 5.39404C29.093 4.55604 22.075 5.72495 19.216 7.59595C17.137 8.95695 16.697 8.90702 14.331 7.04602C12.901 5.92102 10.553 5.00203 9.11499 5.00403C5.39699 5.00903 0 8.55099 0 10.985C0 13.358 0.795979 13.469 3.44098 11.468C5.99898 9.53402 10.899 9.57403 11.652 11.535C11.976 12.38 10.847 15.687 9.14203 18.884C1.53503 33.157 3.55397 46.454 12.444 40.629C16.795 37.778 19.462 30.4399 19.482 21.2679C19.5 13.1599 19.543 13.018 22.359 11.851C23.932 11.2 26.484 10.667 28.031 10.667C31.047 10.667 35.791 13.292 36.604 15.412C36.878 16.124 35.216 19.4391 32.911 22.7791C25.879 32.9701 26.458 43 34.078 43C37.498 43 42.227 39.149 44.381 34.61C46.214 30.746 46.489 24.415 44.993 20.481C44.143 18.247 44.339 17.5351 46.243 15.9351C47.484 14.8911 50.8919 13.2619 53.8159 12.3149C59.6539 10.4239 61.015 10.799 64.306 15.209L66.213 17.762L62.607 23.118C60.152 26.763 59 29.604 59 32.014C59 40.046 65.484 42.6701 71.203 36.951C74.193 33.961 74.2419 33.75 73.7889 25.911L73.326 17.9189L82.1629 9.85095C90.3289 2.39595 92.28 0 90.185 0C89.737 0 86.249 2.26102 82.435 5.02502ZM14.673 24.115C14.042 29.442 10.49 38 8.91101 38C6.98501 38 8.04199 29.308 10.589 24.196C13.94 17.473 15.463 17.442 14.673 24.115ZM39.875 30.49C38.856 34.18 35.852 38 33.969 38C30.89 38 32.308 31.907 36.739 26.098C39.193 22.88 39.384 22.805 40.11 24.769C40.534 25.914 40.428 28.488 39.875 30.49ZM68.603 29.2371C68.247 31.0171 67.29 33.1381 66.478 33.951C65.174 35.2541 65 35.101 65 32.649C65 29.386 66.6099 26 68.1599 26C68.8549 26 69.016 27.1721 68.603 29.2371Z" fill="black"/>
</svg>
