<svg width="321" height="57" viewBox="0 0 321 57" fill="none" xmlns="http://www.w3.org/2000/svg">
<path fill-rule="evenodd" clip-rule="evenodd" d="M263.99 4.53428C257.462 11.3453 255.699 21.5972 259.579 30.1532C261.529 34.4502 261.538 34.6843 259.808 36.0163C250.371 43.2803 235.075 44.4683 226.24 38.6213C221.199 35.2853 220.829 33.9323 223.867 29.9483C230.028 21.8723 232.63 9.44525 228.935 5.74925C221.522 -1.66276 209.689 16.5963 213.416 29.6943C214.542 33.6483 214.518 33.7063 210.286 37.4143C207.94 39.4693 202.684 42.8443 198.606 44.9143C186.459 51.0793 176.125 49.9753 171.613 42.0313C170.326 39.7653 170.498 39.1593 173.865 34.0893C177.543 28.5493 181.506 18.8242 181.506 15.3382C181.506 14.2982 180.573 12.2623 179.433 10.8133C171.525 0.759271 158.896 22.1052 163.42 37.8792C164.296 40.9323 164.107 41.2433 158.957 45.2163C153.181 49.6723 143.743 53.1783 137.522 53.1783C128.185 53.1783 114.192 46.3393 111.034 40.2323C109.665 37.5853 109.786 37.3323 115.118 31.6943C122.72 23.6543 126.628 17.6852 127.231 13.1922C127.658 10.0062 127.384 9.18325 125.575 8.21525C122.449 6.54225 117.51 8.43825 112.609 13.1943C107.396 18.2533 104.473 24.1003 103.774 30.8662C103.117 37.2342 101.251 39.0583 89.9795 44.3443C84.0685 47.1173 81.8555 47.6203 75.4635 47.6473C69.8155 47.6703 67.2225 47.2213 65.1415 45.8583L62.3625 44.0382L66.8495 39.2412C72.3985 33.3092 76.4445 25.5063 77.1645 19.3503C78.4695 8.17726 68.1106 5.55827 59.3146 14.8393C53.0186 21.4813 50.3876 35.1822 54.0486 42.2602L55.5906 45.2433L49.0005 48.3272C43.3625 50.9652 41.5485 51.3492 36.4565 50.9812C31.5675 50.6272 29.9526 50.0252 27.4186 47.6142C22.0906 42.5432 22.0336 41.8463 26.4296 35.4073C32.2946 26.8153 34.6845 20.6223 35.2515 12.5523C35.6955 6.23928 35.5106 5.18328 33.6296 3.30228C30.7416 0.414285 28.1955 0.633268 24.2355 4.11027C16.8955 10.5553 12.5176 26.3202 15.2856 36.3432C16.2036 39.6692 16.0535 40.2313 13.6505 42.4773C10.3815 45.5333 5.26152 48.1783 2.61452 48.1783C0.00251603 48.1783 -0.834495 49.6512 0.940505 51.1242C3.0075 52.8402 8.73858 51.4593 13.9916 47.9803L18.4866 45.0022L21.1216 48.1343C28.0166 56.3283 38.9665 57.3863 51.3125 51.0523C58.0655 47.5883 58.2505 47.5533 60.4495 49.3343C68.3475 55.7293 84.9276 53.7273 99.0906 44.6673C102.091 42.7483 104.874 41.1953 105.275 41.2163C105.677 41.2373 107.21 42.9962 108.681 45.1242C110.613 47.9192 113.517 50.0623 119.129 52.8363C126.589 56.5233 127.308 56.6783 136.975 56.6783C146.283 56.6783 147.541 56.4353 153.537 53.4843C157.105 51.7273 161.301 48.9573 162.861 47.3293L165.697 44.3692L169.549 48.2213C178.871 57.5433 194.952 55.4162 211.515 42.6712L217.485 38.0772L220.245 40.6513C230.152 49.8853 249.075 50.0682 261.525 41.0492C265.637 38.0712 265.736 38.0532 269.617 39.6062C279.297 43.4792 295.229 39.5742 310.54 29.5772C317.712 24.8942 321.114 21.6713 319.763 20.8373C319.283 20.5403 315.091 21.8742 310.448 23.8012C293.47 30.8482 286.021 33.2973 280.078 33.7873C271.37 34.5053 270.982 33.8853 275.06 25.7823C277.97 20.0013 278.505 17.8892 278.505 12.1922C278.505 -0.327763 271.957 -3.78272 263.99 4.53428ZM273.109 7.73228C274.265 12.3363 272.906 19.8193 270.021 24.7403C267.431 29.1613 267.125 29.3783 265.878 27.6723C262.411 22.9323 263.469 13.7512 268.12 8.22324C271.244 4.51124 272.275 4.40928 273.109 7.73228ZM31.3055 10.3343C31.6735 14.6283 28.6615 22.9372 24.1315 30.1222L20.7366 35.5063L20.0366 32.3203C18.7216 26.3343 21.6156 15.6443 26.2476 9.37528C29.2176 5.35528 30.9065 5.67527 31.3055 10.3343ZM225.81 14.6313C225.5 16.3073 223.849 20.3453 222.142 23.6053L219.039 29.5323L218.183 26.5462C217.047 22.5872 218.844 16.1193 222.18 12.1543C225.196 8.57027 226.738 9.62226 225.81 14.6313ZM123.506 12.9823C123.506 16.0663 108.63 33.9813 108.551 30.9933C108.428 26.3883 113.994 17.3453 118.877 14.2163C122.256 12.0523 123.506 11.7183 123.506 12.9823ZM72.8855 16.5573C74.1475 21.5863 68.7436 32.9342 62.1796 39.0382L59.6415 41.3982L58.5195 37.2303C57.6145 33.8713 57.7066 31.9993 58.9916 27.5793C61.8726 17.6673 71.2895 10.1973 72.8855 16.5573ZM176.496 17.4283C176.486 20.7223 173.031 29.0223 170.147 32.6783C168.647 34.5803 168.568 34.4562 168.538 30.1712C168.52 27.6932 168.94 24.1502 169.471 22.2992C171.699 14.5322 176.515 11.1933 176.496 17.4283Z" fill="black"/>
</svg>
