<svg width="26" height="222" viewBox="0 0 26 222" fill="none" xmlns="http://www.w3.org/2000/svg">
<path d="M0.523926 12.5346C0.039926 6.49465 -0.142127 1.20765 0.119873 0.784649C1.18287 -0.935351 2.45487 0.222606 3.39087 3.76561C4.54287 8.12361 7.07088 35.1425 7.95288 52.5155C8.92488 71.6475 10.4059 86.9605 13.5399 110.275C15.1489 122.242 17.5909 144.067 18.9659 158.775C21.1329 181.955 22.4949 194.948 25.0039 216.364C25.9789 224.686 23.2539 221.351 20.2469 210.541C16.7259 197.889 15.0209 186.07 12.4509 156.515C11.3029 143.315 9.29396 123.965 7.98596 113.515C4.94396 89.2135 3.77294 75.0166 2.46094 46.5156C1.87894 33.8656 1.00693 18.5746 0.523926 12.5346Z" fill="black"/>
</svg>
