<svg width="33" height="200" viewBox="0 0 33 200" fill="none" xmlns="http://www.w3.org/2000/svg">
<path d="M3.72839 9.76027C5.79139 7.58627 9.95339 4.45032 12.9784 2.79232C17.1894 0.483318 19.5324 -0.163715 22.9784 0.0332845C26.7264 0.247285 27.4784 0.624303 27.4784 2.2903C27.4784 3.8633 26.6234 4.41133 23.4784 4.85433C18.8194 5.51233 12.6034 8.55232 8.00439 12.4223C5.09939 14.8663 4.81839 15.5623 5.29739 19.1333C6.33439 26.8633 10.9804 30.6043 23.3944 33.7063C27.6724 34.7753 31.4494 35.9283 31.7894 36.2683C33.3874 37.8663 29.9504 40.3283 25.3754 40.8623C12.3474 42.3843 5.60438 46.7943 6.16738 53.4253C6.60838 58.6183 9.94038 60.7813 19.0944 61.8143C23.1554 62.2733 27.2664 62.9533 28.2284 63.3263C31.0184 64.4073 30.3824 67.6533 27.2284 68.4243C23.2564 69.3953 14.8514 74.9643 11.6934 78.7173C8.80238 82.1533 7.5884 85.4813 8.1394 88.4613C8.6034 90.9653 18.4364 95.7903 23.0764 95.7903C28.0464 95.7903 29.9784 96.6303 29.9784 98.7903C29.9784 100.815 28.0654 101.79 24.0924 101.79C18.4554 101.79 7.55238 111.254 5.40838 118.009C4.23538 121.706 7.84637 123.866 17.0974 125C26.5464 126.159 29.7464 127.973 26.5374 130.351C25.4694 131.143 23.6234 131.79 22.4354 131.79C17.0194 131.79 6.97839 142.906 6.97839 148.903C6.97839 152.685 13.4984 159.329 18.1264 160.263C24.1484 161.478 24.9784 161.901 24.9784 163.75C24.9784 165.692 23.1034 166.79 19.7914 166.79C14.8464 166.79 6.99239 176.734 6.98339 183.005C6.97639 188.13 11.6284 193.336 17.8324 195.145C23.8324 196.894 24.0174 199.179 18.1924 199.599C9.57438 200.221 1.97839 192.448 1.97839 183.008C1.97839 177.013 3.5474 173.38 8.5064 167.891L11.9204 164.112L6.94939 158.954C2.47439 154.311 1.97839 153.343 1.97839 149.253C1.97839 143.885 4.45239 138.685 9.39639 133.664L12.9664 130.038L10.2224 129.486C8.71337 129.183 5.90339 127.875 3.97839 126.58C-2.72161 122.073 -0.7966 113.53 8.9804 104.384C12.8904 100.728 13.8394 99.3173 12.8254 98.6743C12.0844 98.2053 11.1564 97.8143 10.7634 97.8053C10.3694 97.7973 8.45739 96.3933 6.51339 94.6863C3.40839 91.9603 2.97839 91.0113 2.97839 86.8823C2.97839 80.9273 7.12838 74.0423 13.1024 70.0903C16.4624 67.8663 16.9364 67.2273 15.4054 66.9843C11.3414 66.3383 7.35539 64.3603 4.22839 61.4363C1.42539 58.8163 0.978386 57.7303 0.978386 53.5443C0.978386 45.5403 4.13539 41.4713 12.8234 38.2753C14.8334 37.5363 15.7794 36.8993 14.9244 36.8603C14.0694 36.8223 11.2324 35.4343 8.61938 33.7773C3.10938 30.2833 0.0343893 24.6553 0.000389254 18.0013C-0.0176107 14.3993 0.579386 13.0793 3.72839 9.76027Z" fill="black"/>
</svg>
