<svg width="55" height="262" viewBox="0 0 55 262" fill="none" xmlns="http://www.w3.org/2000/svg">
<path d="M22.5196 27.8271C21.4226 17.6521 20.2687 7.14511 19.9557 4.47811C19.5207 0.764106 19.6917 -0.270915 20.6847 0.0570849C22.3307 0.601085 28.5067 27.7801 37.1067 72.3271C46.0107 118.45 47.7327 129.299 47.2467 136.226C46.1937 151.246 33.8997 148.192 16.2707 128.53C11.7877 123.53 8.36568 120.089 8.66568 120.883C8.96568 121.677 9.97868 125.027 10.9157 128.327C15.7457 145.33 24.0377 169.973 35.9827 202.827C54.9217 254.917 57.0887 262.484 52.8317 261.65C51.7057 261.43 49.3537 256.393 45.4447 245.827C42.2907 237.302 35.4407 219.302 30.2227 205.827C25.0047 192.352 18.4067 174.352 15.5607 165.827C8.51867 144.732 -0.670338 110.884 0.0386619 108.65C0.373662 107.594 1.56866 106.827 2.87866 106.827C4.52866 106.827 7.63466 109.793 14.3697 117.8C25.6437 131.202 35.4507 139.827 39.4167 139.827C41.4057 139.827 40.4937 132.27 35.5177 107.5C28.9117 74.6191 24.9387 50.2661 22.5196 27.8271Z" fill="black"/>
</svg>
