<svg width="48" height="260" viewBox="0 0 48 260" fill="none" xmlns="http://www.w3.org/2000/svg">
<path d="M29.9959 137.914C21.6899 91.0429 16.1909 47.662 13.8779 10.75C13.4169 3.394 13.5409 0 14.2689 0C15.4729 0 16.1349 2.812 20.3899 26C25.0569 51.437 27.9239 69.0859 34.4679 112.657C42.5609 166.542 42.4909 174 33.8929 174C28.6839 174 24.9269 171.62 15.1289 162.109C8.68287 155.853 6.46686 154.183 7.01986 156C7.79986 158.563 22.3359 195.061 38.4429 234.899C43.4239 247.219 47.4989 257.907 47.4989 258.649C47.4989 259.392 46.8919 260 46.1499 260C43.3099 260 12.6059 188.327 2.41687 157.915C-2.97113 141.832 0.485863 140.804 14.4379 154.343C24.7919 164.39 31.7459 169.583 33.4409 168.536C35.0829 167.521 34.8079 165.069 29.9959 137.914Z" fill="black"/>
</svg>
