<svg width="69" height="354" viewBox="0 0 69 354" fill="none" xmlns="http://www.w3.org/2000/svg">
<path fill-rule="evenodd" clip-rule="evenodd" d="M27.657 3.25C24.544 7.382 22.0029 14.927 22.0029 20.035C22.0029 23.794 21.843 24 18.933 24C16.322 24 15.912 24.336 16.183 26.25C16.425 27.95 17.2639 28.574 19.6169 28.803C25.9299 29.418 26.066 39.706 19.808 43.297C17.721 44.495 17.0029 45.671 17.0029 47.89C17.0029 50.504 16.6119 50.912 13.8519 51.187C9.3079 51.639 6.7319 55.597 6.2009 62.946C5.7929 68.578 5.94885 69.1 8.93185 72.082C11.8169 74.968 12.5069 75.1981 16.7989 74.701C19.3859 74.401 23.6609 73.4611 26.2979 72.6121C30.9419 71.1171 31.1169 71.134 31.8609 73.145C32.4409 74.713 31.9409 75.908 29.8159 78.033C28.2689 79.58 27.0029 81.6811 27.0029 82.701C27.0029 85.0421 29.7249 89 31.3349 89C32.2719 89 32.34 91.095 31.631 98.046L30.7079 107.091L26.0449 102.046C19.8309 95.322 17.2639 95.26 13.7459 101.75C10.1639 108.357 9.42488 113.136 11.3789 117.053C12.4989 119.297 12.6739 120.747 11.9799 122.042C10.7129 124.411 10.7209 135.531 11.9939 139.968C12.8869 143.084 12.7019 143.722 10.1139 146.462C5.04586 151.825 3.70086 156.698 6.06686 161.119C6.88886 162.656 6.66186 164.073 5.06186 167.379C3.47786 170.651 3.13894 172.714 3.61594 176.194C4.01494 179.101 3.83594 180.985 3.12094 181.427C1.86194 182.205 1.74294 187.476 2.91794 190.482C3.42694 191.785 3.06092 193.497 1.85092 195.482C-0.824079 199.869 -0.569062 206.09 2.41794 209.314C3.74594 210.747 5.92684 212.194 7.26584 212.53C9.20084 213.016 9.60288 213.639 9.23288 215.578C8.58188 218.982 10.7049 223.572 14.3479 226.637C16.7419 228.651 17.3809 229.934 17.2009 232.366C17.0739 234.09 17.3789 236.123 17.8779 236.884C18.4839 237.807 17.9899 239.853 16.3949 243.029C13.5629 248.667 13.2958 254.995 15.7188 259.096C16.6618 260.693 17.7868 262 18.2188 262C18.6498 262 19.0029 263.147 19.0029 264.55C19.0029 268.134 21.425 272.403 25.084 275.266C28.163 277.676 28.1839 277.75 26.6039 280.805C25.7229 282.508 25.0029 286.073 25.0029 288.728V293.555L18.6439 296.325C7.89189 301.009 3.06295 307.39 6.40695 312.493C8.45895 315.626 11.4839 317.606 18.6909 320.535C25.5319 323.316 25.9679 324.21 26.7149 337C27.0199 342.225 27.7149 347.063 28.2589 347.75C29.5879 349.43 31.9839 349.327 34.0009 347.502C35.5099 346.136 35.6179 346.26 35.2289 348.913C34.5899 353.269 37.316 354.33 44.407 352.483C54.875 349.756 61.8739 345.204 59.3999 342.73C59.0679 342.398 55.2119 343.448 50.8309 345.063C46.4509 346.678 42.641 348 42.365 348C41.885 348 45.6739 343.279 52.8629 334.921C56.8669 330.265 56.4999 328.427 51.1449 326.324L47.2859 324.808L49.7459 322.347C51.2449 320.849 52.0159 319.157 51.7179 318.018C51.3629 316.66 52.03 315.817 54.157 314.936C63.39 311.112 68.0309 301.691 65.9879 290.921C64.8099 284.712 62.1339 280.764 57.6599 278.642C55.7999 277.759 53.687 276.324 52.964 275.453C49.317 271.059 40.5169 269.649 34.8929 272.557C31.9139 274.098 31.8389 274.071 27.7999 270.033C23.3749 265.607 23.2279 263.458 27.5849 266.886C29.0629 268.049 31.359 269 32.688 269C35.496 269 40.0879 266.808 41.9309 264.587C43.5699 262.612 48.7819 260 51.0849 260C53.7519 260 56.0029 257.221 56.0029 253.929C56.0029 251.381 56.3709 251 58.8289 251C63.3639 251 66.3009 247.029 66.7899 240.236C67.1509 235.219 66.9009 234.187 64.7889 232C63.4609 230.625 61.6179 229.05 60.6939 228.5C59.2259 227.626 59.1719 227.05 60.2669 223.931C60.9569 221.968 62.7359 218.917 64.2219 217.151C69.2279 211.202 69.1529 200.814 64.0249 190C63.6339 189.175 61.5339 187.133 59.3589 185.462L55.4039 182.424L58.2708 178.471C59.8468 176.297 62.4079 173.713 63.9609 172.73C69.9969 168.908 70.4849 159.975 65.0749 152.3C63.3859 149.903 62.0029 147.04 62.0029 145.939C62.0029 142.662 59.38 137.377 56.886 135.631C53.525 133.277 48.4499 133.524 46.6229 136.131C44.7139 138.858 42.0029 137.919 42.0029 134.531C42.0029 132.728 42.5389 132 43.8679 132C46.6249 132 50.7889 128.339 53.0309 123.945C55.0069 120.073 55.6919 113.544 54.2179 112.633C53.7859 112.366 53.4979 109.302 53.5769 105.824C53.6799 101.314 54.3339 98.496 55.8579 96C58.6869 91.368 58.7809 82.445 56.0569 77.106C54.7479 74.541 54.4418 72.961 55.1198 72.283C55.6748 71.728 56.1709 69.787 56.2229 67.97C56.2919 65.546 55.5949 64.046 53.6039 62.333C49.8189 59.078 45.5559 59.293 41.9259 62.923C38.5049 66.345 38.2709 68.268 40.9519 70.949C42.8839 72.881 42.8829 72.903 40.8759 73.54C38.4939 74.296 38.3329 74.169 36.1649 69.829C34.0509 65.595 31.7869 65.281 22.9969 68.002C19.1779 69.184 15.1429 69.862 14.0309 69.509C11.4609 68.693 10.5459 65.092 11.6849 60.275C12.8829 55.208 15.265 54.9429 19.365 59.4189C21.911 62.1989 23.4149 63 26.0899 63C30.7939 63 35.9929 60.009 38.0929 56.093C39.0519 54.305 40.5889 52.01 41.5079 50.995C43.6399 48.639 43.064 45.514 40.485 45.452C39.395 45.426 37.3779 44.669 36.0029 43.77C34.6279 42.871 32.2949 41.839 30.8199 41.476C29.0819 41.049 28.3239 40.327 28.6699 39.427C29.0599 38.41 29.696 38.3009 31.037 39.0179C32.046 39.5579 34.891 40 37.36 40C45.44 40 50.8559 31.853 46.0029 27C43.3149 24.312 36.5979 24.34 32.1399 27.058C27.4959 29.889 27.1369 28.898 31.7269 25.917C37.0159 22.482 39.9659 16.788 39.9869 9.97302C40.0079 2.89102 38.1259 0 33.4969 0C30.8389 0 29.575 0.703 27.657 3.25ZM34.8249 8.94604C35.2449 13.231 33.5919 17.0761 29.8018 20.6331L26.7469 23.5L27.2419 18.8409C27.8219 13.3799 31.722 4.74201 33.365 5.28101C33.991 5.48601 34.6479 7.13505 34.8249 8.94604ZM42.339 30.6689C42.706 31.0369 42.2619 32.1619 41.3499 33.1689C39.5999 35.1019 35.4459 35.567 33.1139 34.09C32.0359 33.407 32.3729 32.859 34.6139 31.645C37.6589 29.995 41.216 29.5459 42.339 30.6689ZM31.3069 52C33.4019 52 33.3909 52.066 30.9008 54.556C28.6108 56.847 28.0639 56.985 25.6499 55.885C22.8479 54.608 21.3449 51.157 22.3969 48.415C22.9159 47.063 23.4669 47.213 26.0819 49.413C27.7729 50.836 30.1239 52 31.3069 52ZM49.4209 65.6071C51.3229 66.3371 51.5509 70 49.6939 70C48.9739 70 47.5119 69.334 46.4439 68.519C44.7639 67.237 44.7049 66.9031 46.0029 66.0341C47.8049 64.8281 47.4939 64.8671 49.4209 65.6071ZM51.7379 80.079C53.3639 83.265 53.2889 91.04 51.6109 93.25C49.4909 96.043 47.4359 95.338 42.0789 89.981C37.7399 85.642 37.1399 84.5669 37.6449 82.0389C38.1669 79.4319 38.7839 79.016 43.3659 78.183C49.7929 77.016 50.2249 77.114 51.7379 80.079ZM38.9059 93.3831C39.7909 94.4501 39.7049 94.9 38.5289 95.3521C37.4799 95.7541 37.0029 95.322 37.0029 93.969C37.0029 91.637 37.3649 91.5261 38.9059 93.3831ZM46.5009 100.999C48.7069 101.838 49.0789 102.521 48.8159 105.249C48.5209 108.311 48.284 108.493 44.7299 108.384C40.6059 108.257 37.0029 105.708 37.0029 102.918C37.0029 100.274 41.9589 99.272 46.5009 100.999ZM25.782 109.75L31.7669 116.5L24.1969 116.388C15.8619 116.265 14.5239 115.199 16.0389 109.889C16.8439 107.067 18.8489 103 19.4349 103C19.6339 103 22.49 106.037 25.782 109.75ZM43.9959 114.07C44.2749 114.109 43.6029 114.502 42.5029 114.945C40.4239 115.781 37.0029 114.593 37.0029 113.035C37.0029 112.515 38.3639 112.53 40.2459 113.07C42.0299 113.581 43.7179 114.032 43.9959 114.07ZM49.4859 119.214C48.8559 121.723 44.5499 127 43.1319 127C42.6969 127 41.7229 125.846 40.9679 124.435C39.7919 122.236 39.8029 121.739 41.0489 120.95C41.8489 120.444 43.2209 120.024 44.0979 120.015C44.9749 120.007 46.5099 119.097 47.5089 117.994C49.7029 115.569 50.3069 115.941 49.4859 119.214ZM23.9268 125.172C26.7188 125.816 29.0029 126.734 29.0029 127.212C29.0029 128.997 25.11 135.581 22.756 137.778C18.412 141.831 16.0439 139.069 16.0169 129.917C15.9969 123.419 16.0898 123.363 23.9268 125.172ZM36.9679 133.75C36.9999 136.722 36.7389 137 33.9199 137C31.8329 137 31.0099 136.596 31.3739 135.75C31.6689 135.063 32.4758 132.583 33.1668 130.241C34.3798 126.127 34.4659 126.059 35.6768 128.241C36.3679 129.483 36.9479 131.963 36.9679 133.75ZM54.9679 140.934C55.5369 141.998 56.0029 143.144 56.0029 143.481C56.0029 144.356 51.0719 140.654 51.0339 139.75C50.9689 138.18 53.9789 139.087 54.9679 140.934ZM34.9769 144.567C32.7229 150.498 32.2309 150.926 28.8018 149.942C24.9888 148.849 22.5059 146.614 23.4339 145.112C24.2319 143.82 29.4329 142.216 33.2279 142.09C35.7499 142.007 35.8809 142.191 34.9769 144.567ZM46.5089 145.006C48.5829 147.298 48.6699 147.17 43.9319 148.784C38.4449 150.653 38.1389 150.403 39.9779 145.565C41.1549 142.469 43.9919 142.226 46.5089 145.006ZM21.1729 152.299L24.7658 156.597L18.2039 158.318C10.9209 160.229 9.36884 159.664 10.4168 155.487C11.0828 152.832 15.1679 148 16.7459 148C17.2039 148 19.1959 149.934 21.1729 152.299ZM63.9679 163.083C63.9869 164.504 63.6989 165.971 63.3269 166.342C62.2999 167.37 60.135 160.211 60.756 157.837C61.289 155.8 61.3299 155.806 62.6159 158.127C63.3399 159.432 63.9479 161.662 63.9679 163.083ZM43.6579 158.829C40.0089 162.861 42.456 169.076 49.214 172.936C53.908 175.617 53.9719 175.718 52.0709 177.439C50.2749 179.064 49.9499 179.076 47.8419 177.6C46.5859 176.72 44.7099 176 43.6739 176C42.3529 176 41.9739 175.519 42.4059 174.393C43.2669 172.149 41.3909 165.763 38.9659 162.68L36.9359 160.099L39.7188 158.59C43.7898 156.382 45.7629 156.502 43.6579 158.829ZM52.6429 163.556C53.9459 164.962 55.4599 165.836 56.0069 165.497C56.5729 165.148 57.0029 166.034 57.0029 167.549C57.0029 169.958 56.7359 170.151 54.2529 169.534C51.1319 168.76 47.0029 165.271 47.0029 163.409C47.0029 162.368 48.1599 161.433 49.8879 161.079C50.0999 161.036 51.3399 162.15 52.6429 163.556ZM29.3519 162.756C29.6089 163.171 29.5759 164.78 29.2799 166.331C28.8119 168.781 28.4049 169.067 26.1768 168.508C24.7668 168.154 22.014 167.168 20.058 166.317L16.5029 164.77L19.5029 163.43C22.7949 161.96 28.6139 161.561 29.3519 162.756ZM36.5779 169.758C35.5619 170.774 33.7229 168.262 34.5289 166.959C35.0799 166.067 35.5329 166.196 36.2329 167.447C36.7569 168.383 36.9128 169.424 36.5779 169.758ZM16.8159 170.5C19.5539 171.875 22.2909 173 22.8979 173C24.9269 173 24.0109 174.479 20.6229 176.673C15.9009 179.73 9.4139 178.928 8.7009 175.2C8.2009 172.583 9.7159 168 11.0809 168C11.4979 168 14.0789 169.125 16.8159 170.5ZM36.6859 176.188C36.3669 176.985 36.1299 176.748 36.0819 175.583C36.0389 174.529 36.2749 173.939 36.6069 174.271C36.9389 174.603 36.9749 175.466 36.6859 176.188ZM31.9179 180.187C32.5289 181.94 32.6858 183.631 32.2658 183.946C31.8458 184.261 28.8029 184.289 25.5029 184.009L19.5029 183.5L24.5029 180.32C27.2529 178.57 29.7959 177.108 30.1549 177.07C30.5139 177.031 31.3069 178.434 31.9179 180.187ZM9.42294 188.13C8.63394 189.406 7.0029 188.185 7.0029 186.319C7.0029 185.047 7.28091 184.986 8.49191 185.991C9.31091 186.671 9.72994 187.633 9.42294 188.13ZM47.4349 189.389C50.2599 191.306 50.6149 191.877 49.2299 192.276C48.2799 192.549 46.7159 193.097 45.7529 193.494C44.6169 193.961 44.0029 193.76 44.0029 192.921C44.0029 192.211 43.0249 190.587 41.8289 189.314L39.6539 187H41.7839C42.9559 187 45.4989 188.075 47.4349 189.389ZM26.0119 190.489C24.7629 191.994 23.0029 191.673 23.0029 189.941C23.0029 189.423 23.9578 189 25.1248 189C26.8918 189 27.0409 189.25 26.0119 190.489ZM18.4199 192.643C19.3219 194.994 18.5869 195.332 14.3149 194.531L10.5339 193.821L13.0179 192.446C16.3229 190.617 17.6609 190.666 18.4199 192.643ZM36.4489 191.618C37.3339 191.957 38.4909 193.043 39.0189 194.03C39.8189 195.525 39.2129 196.273 35.3779 198.521L30.7758 201.217L28.6718 199.113L26.5678 197.009L30.0349 194.045C33.8209 190.809 34.0839 190.71 36.4489 191.618ZM61.4769 198.95C63.4569 202.779 63.4109 207.15 61.3429 211.782L59.683 215.5L59.032 211.5C58.252 206.711 55.9989 202.212 53.0399 199.534C51.0059 197.693 50.985 197.528 52.688 196.856C56.884 195.202 59.9119 195.923 61.4769 198.95ZM17.6029 199.868C21.1379 199.651 22.3239 200.014 23.4819 201.667C25.0569 203.915 24.5899 205 22.0479 205C21.1559 205 18.6689 205.896 16.5219 206.99C12.7629 208.907 12.4859 208.916 9.05991 207.24C5.2199 205.362 3.77685 201.182 6.03085 198.466C7.03885 197.252 7.62491 197.27 10.1899 198.597C11.9109 199.486 15.0509 200.025 17.6029 199.868ZM45.9699 213.75C46.1249 214.938 43.5879 213.385 40.7719 210.569L37.3409 207.138L39.8839 205.24L42.4259 203.342L44.1819 208.421C45.1479 211.214 45.9519 213.612 45.9699 213.75ZM51.4139 205.504C53.5299 208.733 54.7919 214.605 53.1519 213.592C50.8549 212.173 47.1039 203 48.8209 203C49.3439 203 50.5109 204.127 51.4139 205.504ZM17.1969 216.804C17.0279 217.968 17.3819 219.839 17.9819 220.961C18.6869 222.279 18.7159 223 18.0639 223C16.5289 223 13.9339 217.343 14.6329 215.521C15.5089 213.238 17.5639 214.266 17.1969 216.804ZM34.8879 215.908C36.9169 217.193 32.9119 219.099 27.4059 219.471C23.3499 219.744 23.0029 219.579 23.0029 217.384C23.0029 215.173 23.3839 215.001 28.2529 215.015C31.1409 215.024 34.1259 215.425 34.8879 215.908ZM48.7319 219.604C48.3999 219.936 47.5369 219.972 46.8159 219.683C46.0179 219.364 46.2549 219.127 47.4199 219.079C48.4739 219.036 49.0639 219.272 48.7319 219.604ZM52.3189 226.155C48.2609 230.213 48.087 230.279 44.834 228.994C39.793 227.004 39.2019 226.003 43.0529 225.974C44.9499 225.959 48.3029 225.096 50.5029 224.055C56.5319 221.202 56.8749 221.598 52.3189 226.155ZM23.9829 232.524C23.2869 233.362 22.5119 233.842 22.2599 233.591C21.5669 232.897 22.9759 231 24.1839 231C24.8479 231 24.7719 231.574 23.9829 232.524ZM59.7799 234.557C61.0179 235.423 62.0029 237.168 62.0029 238.492C62.0029 242.056 60.2379 246 58.6429 246C56.6139 246 51.9469 235.852 53.2389 234.25C54.6029 232.56 57.0969 232.677 59.7799 234.557ZM41.7529 240.26C42.9899 241.409 44.0029 243.17 44.0029 244.174C44.0029 247.498 40.2199 246.426 30.1209 240.24C28.2209 239.076 28.0189 238.595 29.1209 237.862C31.2769 236.429 39.2589 237.944 41.7529 240.26ZM25.1009 246.818C24.4969 247.946 24.0029 250.023 24.0029 251.434C24.0029 254.854 22.5309 254.689 21.0459 251.103C20.0509 248.702 20.1319 247.652 21.5139 244.978C23.0009 242.103 23.3469 241.915 24.6909 243.259C25.8599 244.429 25.9519 245.226 25.1009 246.818ZM51.365 245.5C51.681 246.325 51.5039 247 50.9719 247C50.4389 247 50.0029 246.325 50.0029 245.5C50.0029 244.675 50.1798 244 50.3958 244C50.6118 244 51.048 244.675 51.365 245.5ZM40.0029 254.962C40.0029 257.178 30.7159 258.963 29.4919 256.982C28.5259 255.419 37.1438 251.872 38.7238 253.184C39.4278 253.767 40.0029 254.568 40.0029 254.962ZM51.0029 254.059C51.0029 254.577 50.5529 255 50.0029 255C49.4529 255 49.0029 254.298 49.0029 253.441C49.0029 252.584 49.4529 252.16 50.0029 252.5C50.5529 252.84 51.0029 253.541 51.0029 254.059ZM47.0029 277.5C50.1409 279.294 47.6609 279.294 43.0029 277.5C39.9229 276.314 39.8029 276.147 42.0029 276.112C43.3779 276.089 45.6279 276.714 47.0029 277.5ZM39.7119 282.093C41.9069 282.914 41.8979 282.955 38.3689 288.21C36.4149 291.119 34.667 293.654 34.485 293.841C34.303 294.029 33.1669 293.869 31.9609 293.487C30.0069 292.866 29.8189 292.263 30.2359 287.929C30.9849 280.13 32.2989 279.321 39.7119 282.093ZM60.8329 291.65C62.4909 299.427 58.6319 307.599 52.1029 310.133C50.0549 310.928 49.2899 310.583 46.8929 307.782C45.3479 305.977 44.0659 304.119 44.0439 303.653C44.0209 303.187 46.2089 300.822 48.9059 298.397C51.7099 295.877 54.5929 292.094 55.6389 289.565C57.8299 284.268 59.3919 284.896 60.8329 291.65ZM29.8969 306.75C33.2339 310.463 35.9729 313.993 35.9839 314.595C35.9939 315.197 35.1169 316.492 34.0339 317.472C32.2979 319.043 31.5079 319.113 27.3369 318.062C20.8709 316.434 11.9848 312.117 11.2708 310.257C10.9488 309.416 11.1319 308.002 11.6779 307.114C12.5849 305.642 21.5979 300.079 23.1659 300.023C23.5299 300.011 26.5589 303.037 29.8969 306.75ZM38.5439 306.067C39.6199 307.808 38.3949 308.177 37.0229 306.524C36.2339 305.574 36.1579 305 36.8219 305C37.4059 305 38.1819 305.48 38.5439 306.067ZM45.5029 318C45.5029 318.968 44.3259 319.613 42.1809 319.819C39.0699 320.117 38.9309 320.003 39.9989 318.008C41.3009 315.575 45.5029 315.569 45.5029 318ZM46.662 331.325C47.115 331.779 46.8148 332.542 45.9948 333.021C45.1738 333.5 41.8029 335.69 38.5029 337.886C35.2029 340.083 32.4249 341.569 32.3289 341.19C32.2329 340.81 31.9798 338.025 31.7658 335L31.3779 329.5L38.6079 330C42.5849 330.275 46.209 330.871 46.662 331.325Z" fill="black"/>
</svg>
