<svg width="19" height="354" viewBox="0 0 19 354" fill="none" xmlns="http://www.w3.org/2000/svg">
<path d="M0.254121 6.26653C0.630121 3.47553 1.15108 0.833602 1.41208 0.393602C2.29908 -1.0974 4.55804 1.80056 6.17404 6.50456C8.23104 12.4916 13.3121 58.9256 14.8801 86.0616C15.8581 103.008 15.8151 114.661 14.6471 148.061C12.7321 202.834 12.876 245.364 15.05 266.966C17.795 294.249 19.9491 353.435 18.2141 353.916C16.7191 354.33 12.0381 320.15 10.8131 299.884C10.2251 290.153 9.00004 274.992 8.09103 266.192C6.12103 247.121 5.77904 204.522 7.09604 142.192C8.04304 97.4104 7.4181 80.2085 3.7031 48.6926C0.142095 18.4906 -0.435879 11.3805 0.254121 6.26653Z" fill="black"/>
</svg>
