<svg width="40" height="286" viewBox="0 0 40 286" fill="none" xmlns="http://www.w3.org/2000/svg">
<path d="M23.057 146.398C14.63 95.319 12.286 70.764 10.586 15.75C10.175 2.433 10.323 0 11.55 0C12.347 0 13 0.796973 13 1.77197C13 4.71497 21.865 92.539 23.572 106.5C24.445 113.65 26.523 128.725 28.188 140C29.853 151.275 31.279 164.852 31.357 170.171C31.481 178.57 31.224 180.212 29.398 182.662C26.492 186.563 22.13 187.618 14.622 186.235C11.255 185.615 7.488 184.806 6.25 184.437C4.876 184.028 4 184.194 4 184.864C4 185.468 7.54899 195.083 11.887 206.231C22.555 233.647 31.038 257.243 34.991 270.5C36.795 276.55 38.731 282.082 39.293 282.792C39.999 283.685 39.955 284.445 39.15 285.25C37.286 287.114 35.54 284.431 32.481 275C28.818 263.707 19.201 237.603 8.61401 210.212C3.87701 197.954 0 186.607 0 184.997C0 180.704 2.34801 179.896 10.036 181.544C19.096 183.486 22.643 183.357 25 181C27.845 178.155 27.611 174 23.057 146.398Z" fill="black"/>
</svg>
