<svg width="25" height="350" viewBox="0 0 25 350" fill="none" xmlns="http://www.w3.org/2000/svg">
<path d="M0.586248 12.215C0.0242475 6.55897 -0.167778 1.49597 0.160222 0.964966C0.489222 0.433966 1.59618 0 2.62018 0C6.12318 0 7.91418 9.859 9.61518 38.5C11.3962 68.476 12.5343 80.438 15.6013 101.422C24.9293 165.243 26.8212 216.738 22.0502 277C20.8322 292.391 20.5743 304.042 21.0173 323.75C21.3483 338.511 21.2242 350 20.7322 350C20.2512 350 18.8312 346.287 17.5762 341.75C14.4682 330.517 13.9552 308.93 16.0422 277.319C17.8562 249.859 18.1203 206.194 16.6173 182.5C15.4483 164.086 12.7513 140.105 8.63227 111.5C4.10427 80.057 3.7252 76.081 2.6352 48.5C2.0702 34.2 1.14825 17.872 0.586248 12.215Z" fill="black"/>
</svg>
