<svg width="100" height="86" viewBox="0 0 100 86" fill="none" xmlns="http://www.w3.org/2000/svg">
<path fill-rule="evenodd" clip-rule="evenodd" d="M68.8318 1.10286C68.4198 1.76886 69.1407 3.05878 70.5227 4.12678C80.4607 11.8078 90.2067 31.4997 93.5377 50.6307C97.2017 71.6667 86.5018 86.1188 72.5388 78.9958C70.2078 77.8068 68.4608 76.5199 68.6558 76.1369C76.3428 61.0469 77.1078 56.4848 73.3108 48.4078C70.4998 42.4268 67.0218 39.7597 62.5338 40.1417C59.7368 40.3807 58.6167 41.1468 56.9807 43.9408C53.8927 49.2148 54.2188 60.395 57.7078 68.884C60.7418 76.268 60.4848 76.9919 53.9348 79.4929C50.3508 80.8619 48.9747 80.9449 46.0277 79.9729C44.0647 79.3249 42.1918 78.3608 41.8638 77.8298C41.5358 77.2998 42.7947 75.1749 44.6627 73.1079C51.5937 65.4349 52.1768 53.6237 46.1648 42.6517C44.2938 39.2357 41.5628 35.7658 40.0968 34.9408C37.7258 33.6058 37.1288 33.6077 34.6818 34.9547C29.7728 37.6577 27.9617 43.0639 27.9847 54.9409C28.0017 63.6129 28.3908 66.2898 30.2188 70.3178C31.4358 73.0008 32.4318 75.52 32.4318 75.916C32.4318 77.456 23.7607 80.4409 19.2877 80.4409C9.59672 80.4409 5.14872 73.7649 4.63172 58.4409C4.04272 40.9929 10.9047 20.3047 21.0067 9.0677C23.5207 6.2727 25.2928 3.52472 24.9458 2.96272C23.5828 0.757721 20.4217 2.15776 16.2247 6.82576C10.4647 13.2328 6.18178 21.4258 2.82178 32.4678C0.41178 40.3878 0.0817218 43.1429 0.0117218 55.9409C-0.0602782 68.9819 0.148725 70.8429 2.08972 74.4409C8.13872 85.6499 17.1338 88.5239 30.0238 83.3669L36.4568 80.7939L40.1898 83.1008C45.6348 86.4648 53.4528 86.291 59.6388 82.666L64.3177 79.9238L67.9747 82.406C78.0837 89.266 90.6428 85.8889 96.2028 74.8159C102.298 62.6789 98.9287 39.7928 87.7917 17.6658C81.8067 5.77585 71.5058 -3.22314 68.8318 1.10286ZM40.3848 42.8748C42.9688 46.5038 45.4338 53.3198 45.4258 56.8168C45.4168 61.2748 43.4747 66.736 40.7467 69.978C37.4077 73.946 36.1247 72.8298 33.8647 63.9978C32.1567 57.3178 32.4348 49.0988 34.5778 42.9508C35.9018 39.1538 37.7188 39.1308 40.3848 42.8748ZM66.8027 47.9698C68.2047 49.6368 69.6487 52.58 70.0107 54.51C70.7827 58.624 69.0978 65.408 66.4248 68.947L64.5417 71.4409L63.0117 67.7819C59.4347 59.2309 58.9297 51.7598 61.5847 46.6908C62.8677 44.2428 63.8737 44.4888 66.8027 47.9698Z" fill="black"/>
</svg>
