<svg width="66" height="101" viewBox="0 0 66 101" fill="none" xmlns="http://www.w3.org/2000/svg">
<path fill-rule="evenodd" clip-rule="evenodd" d="M15.3253 1.85429C8.95826 5.73729 4.1333 13.3894 1.3263 24.0514C-0.0497025 29.2794 -0.251752 33.0314 0.250248 43.9914C0.967248 59.6334 2.42522 67.7543 7.30622 83.2873C11.3742 96.2303 13.9502 100.991 16.8852 100.991C19.8832 100.991 20.3632 98.4353 17.9412 95.3573C15.6392 92.4313 9.75125 74.6954 7.36225 63.4914C6.54025 59.6414 5.58427 51.0914 5.23627 44.4914C4.55827 31.6204 5.77726 24.0094 9.77326 16.1784C14.1763 7.54839 21.4833 2.76329 24.3723 6.62029C27.4243 10.6943 27.2262 13.8255 23.4422 21.3205C17.4642 33.1655 16.1943 49.2614 20.9023 53.5214C22.6873 55.1384 22.9863 55.1433 25.3303 53.6083C30.8653 49.9813 34.2452 38.4815 33.7182 25.0705C33.3892 16.6985 33.5212 15.9905 35.8682 13.4775C40.3372 8.69346 46.2833 5.83732 51.0593 6.18132C55.0273 6.46632 55.5413 6.83427 57.5573 10.8293C60.5343 16.7293 61.4513 25.0884 59.9323 32.4914C57.8363 42.7094 53.0183 52.5553 41.7163 69.7223C32.6673 83.4663 31.0452 86.4994 32.0762 87.7424C33.1432 89.0274 33.7863 88.6944 36.6663 85.3644C42.3503 78.7924 56.6153 56.8544 59.8433 49.7214C68.0983 31.4774 67.5463 11.3801 58.5613 3.12114C56.2753 1.01914 55.2473 0.79833 49.4843 1.16533C43.9893 1.51433 42.1523 2.1512 37.6033 5.2852C34.6433 7.3232 31.9722 8.99138 31.6662 8.99138C31.3612 8.99138 30.5442 7.62322 29.8522 5.95122C27.3922 0.0142188 21.2053 -1.73071 15.3253 1.85429ZM28.6132 30.7414C28.0082 39.4244 25.2512 47.7744 23.5512 46.0744C21.5362 44.0594 26.2322 22.9914 28.6962 22.9914C28.9482 22.9914 28.9112 26.4794 28.6132 30.7414Z" fill="black"/>
</svg>
