<svg width="132" height="85" viewBox="0 0 132 85" fill="none" xmlns="http://www.w3.org/2000/svg">
<path fill-rule="evenodd" clip-rule="evenodd" d="M20.474 1.23284C11.613 4.39184 3.23499 13.8478 0.88899 23.3378C-0.96601 30.8438 0.207896 47.0019 3.2419 55.7249C8.2209 70.0449 24.9659 88.414 29.1899 84.19C30.0719 83.308 28.4189 81.0409 22.3249 74.7669C17.9109 70.2239 13.1019 64.442 11.6379 61.92C5.73989 51.757 3.2339 32.4677 6.5489 22.7397C11.1049 9.36867 27.732 0.592841 35.633 7.38884L38.404 9.77287L35.0789 12.5707C26.1669 20.0697 24.48 23.8127 24.477 36.1017C24.474 46.4677 25.4539 49.0059 29.4599 49.0059C34.5269 49.0059 40.953 38.4197 43.604 25.7057C44.419 21.7937 44.8349 17.5878 44.5269 16.3598C43.8859 13.8068 44.768 13.0668 49.807 11.9308C53.439 11.1118 61.1619 12.2469 63.9739 14.0129C65.2059 14.7869 64.7019 15.7069 61.1479 19.1689C58.7689 21.4869 55.931 25.1299 54.843 27.2629C50.515 35.7469 51.771 47.5099 57.208 49.4209C61.17 50.8119 66.518 46.1887 70.974 37.5187C74.043 31.5467 74.474 29.7997 74.474 23.3227V15.9377L82.447 13.4179C99.225 8.11489 119.298 7.88587 124.353 12.9399C129.996 18.5839 121.731 35.6889 107.474 47.8709C99.972 54.2799 85.7339 61.5349 76.2309 63.7879C70.4029 65.1699 68.9869 65.876 68.9809 67.398C68.9749 69.11 69.534 69.232 74.837 68.678C83.43 67.78 94.288 63.3769 104.107 56.8089C118.289 47.3229 127.429 35.5877 130.58 22.8197C132.141 16.4928 132.13 15.9947 130.347 12.4037C127.696 7.06573 122.602 4.72586 112.55 4.23186C102.624 3.74286 86.625 6.07667 77.708 9.31267L71.041 11.7328L66.239 9.35686C61.005 6.76686 53.1849 5.97078 46.3139 7.32878C42.5719 8.06878 42.0869 7.93569 41.4749 6.00969C39.8379 0.851691 28.67 -1.68816 20.474 1.23284ZM39.4219 20.8337C37.8379 30.3097 31.9449 43.7239 29.9179 42.4709C28.6019 41.6579 28.738 32.5267 30.135 27.8637C31.443 23.4967 37.6419 15.6828 39.0889 16.5768C39.6089 16.8988 39.7589 18.8137 39.4219 20.8337ZM69.743 24.3617C68.925 31.6207 62.1789 44.0058 59.0429 44.0058C57.6939 44.0058 56.8069 39.0499 57.5429 35.6279C58.5189 31.0909 60.7729 26.9538 64.2819 23.2558C68.7029 18.5978 70.355 18.9317 69.743 24.3617Z" fill="black"/>
</svg>
