<svg width="45" height="41" viewBox="0 0 45 41" fill="none" xmlns="http://www.w3.org/2000/svg">
<path d="M8.80396 10.636C3.96196 5.68099 0 1.26196 0 0.813965C0 0.365965 0.55398 0 1.22998 0C2.85298 0 13.4259 6.45102 18.5909 10.593L22.683 13.874L29.062 7.43701C38.645 -2.23199 39.824 -1.09504 32.094 10.361L27.188 17.631L32.844 22.255C44.057 31.422 46.101 34.256 42.498 35.639C39.762 36.689 36.569 35.1479 29.649 29.4399C25.885 26.3349 22.457 24.1789 22.033 24.6479C21.608 25.1159 18.7089 28.987 15.5909 33.25C12.4729 37.513 9.54401 41 9.08301 41C8.62201 41 7.72995 40.3799 7.10095 39.6219C5.55195 37.7549 6.72303 35.031 12.707 26.572L17.609 19.644L8.80396 10.636Z" fill="black"/>
</svg>
