<svg width="54" height="35" viewBox="0 0 54 35" fill="none" xmlns="http://www.w3.org/2000/svg">
<path d="M22.346 7.20623L32.7039 3.64324C49.0169 -1.96776 50.995 -1.18371 40.139 6.59429C35.428 9.97029 34.6009 11.0353 34.5829 13.7513C34.5709 15.5063 34.059 17.2523 33.445 17.6323C32.81 18.0243 35.289 19.8812 39.195 21.9412C47.098 26.1072 53.561 30.9972 53.561 32.8102C53.561 33.4982 53.1329 34.0602 52.6099 34.0602C49.2819 34.0602 39.602 31.2892 30.775 27.8102L20.488 23.7563L17.775 26.2862C13.557 30.2182 10.894 31.3092 8.56097 30.0602C5.36497 28.3502 6.04999 24.5522 10.112 21.4532C12.769 19.4272 13.588 18.1212 13.362 16.2682C13.113 14.2222 12.123 13.5103 7.66803 12.1723C1.31803 10.2663 -0.737972 7.93122 1.74603 5.44622C3.28203 3.91122 4.064 3.91417 12.872 5.50017L22.346 7.20623Z" fill="black"/>
</svg>
