<svg width="45" height="47" viewBox="0 0 45 47" fill="none" xmlns="http://www.w3.org/2000/svg">
<path d="M19.4364 9.273C20.9724 7.198 23.3844 4.24401 24.7984 2.71001C27.8684 -0.623988 31.2644 -0.574914 31.7444 2.81109C31.9394 4.18709 30.4204 7.90101 27.9944 11.986C25.7514 15.761 23.9164 19.164 23.9164 19.547C23.9164 19.931 26.5394 23.0491 29.7454 26.4771C38.4624 35.7951 45.2955 45.021 44.2525 46.064C43.1775 47.139 31.9604 39.915 23.7084 32.834L18.0004 27.9361L16.3134 31.2181C14.0174 35.6831 6.02142 46 4.85842 46C4.34042 46 3.91641 45.2771 3.91641 44.3941C3.91641 41.2511 7.10439 30.554 9.37039 26.096L11.6724 21.565L6.30142 15.2341C0.991416 8.97406 -0.887628 5.11006 0.381372 3.05706C1.80537 0.752058 5.3334 2.256 10.8544 7.523L16.6444 13.0451L19.4364 9.273Z" fill="black"/>
</svg>
