<svg width="48" height="36" viewBox="0 0 48 36" fill="none" xmlns="http://www.w3.org/2000/svg">
<path d="M30.883 7.44306C34.478 4.93006 39.1389 2.24299 41.2399 1.47199C50.1429 -1.79401 50.067 0.245014 40.962 8.89301C36.796 12.851 33.5389 16.181 33.7239 16.295C46.2009 23.946 49.654 27.926 46.08 30.539C42.855 32.897 38.043 32.1331 30.236 28.0211L22.816 24.113L16.9379 30.056C13.0129 34.026 10.397 35.9041 9.06096 35.7141C5.64696 35.2271 6.19491 31.65 10.5159 26.223C12.7409 23.429 14.561 20.6561 14.561 20.0621C14.561 19.4671 11.4069 17.512 7.55192 15.716C3.69792 13.92 0.351939 11.771 0.118939 10.94C-0.115061 10.109 0.0069119 7.62902 0.390912 5.42902C0.936912 2.29302 1.578 1.35905 3.356 1.10505C6.375 0.67405 14.3199 4.59404 15.0419 6.87104C15.3579 7.86504 17.58 9.42904 19.981 10.345L24.346 12.012L30.883 7.44306Z" fill="black"/>
</svg>
