<svg width="53" height="44" viewBox="0 0 53 44" fill="none" xmlns="http://www.w3.org/2000/svg">
<path d="M23.2432 11.2929C24.7582 8.6569 27.0852 5.03693 28.4142 3.24993C30.9062 -0.10307 33.2361 -0.93807 33.9951 1.24993C34.5391 2.81893 32.7162 8.11789 29.3352 14.7879C27.9012 17.6179 26.7282 20.0969 26.7282 20.2969C26.7282 20.4969 28.8662 22.1639 31.4782 24.0019C45.4562 33.8339 55.4312 42.9999 52.1532 42.9999C51.0582 42.9999 29.2162 32.1549 26.1282 30.0779L23.0271 27.993L18.1972 35.4969C10.4932 47.4649 8.8342 45.1009 14.3412 29.9999L16.7122 23.4999L12.9701 20.5129C4.25911 13.5579 -0.603802 8.30796 0.0601984 6.57696C0.970198 4.20696 3.69217 5.16097 12.2282 10.842C16.0782 13.404 19.5112 15.6319 19.8582 15.7929C20.2042 15.9539 21.7272 13.9289 23.2432 11.2929Z" fill="black"/>
</svg>
