<svg width="99" height="72" viewBox="0 0 99 72" fill="none" xmlns="http://www.w3.org/2000/svg">
<path d="M63.0526 24.317C71.3816 17.465 82.0277 9.20101 86.7097 5.95201C91.3917 2.70401 96.0097 0.0260333 96.9727 0.00203328C100.693 -0.0919667 98.3887 3.07503 90.3247 9.14103C85.7067 12.615 75.3877 20.858 67.3937 27.458C56.3987 36.537 53.1486 39.733 54.0416 40.589C56.0776 42.54 88.0827 60.958 89.4357 60.958C90.1437 60.958 90.7227 61.858 90.7227 62.958C90.7227 67.523 83.2327 64.486 59.8307 50.434C51.9997 45.732 48.0837 43.905 47.1947 44.539C46.4867 45.044 38.6536 51.451 29.7866 58.776C20.0846 66.791 12.9857 71.963 11.9557 71.764C7.68971 70.943 10.2487 67.915 26.1907 54.926C35.2817 47.519 42.7207 41.156 42.7217 40.787C42.7217 40.419 37.4357 37.431 30.9727 34.148C19.9617 28.555 13.7277 26.248 4.29872 24.278C-0.364275 23.304 -1.41131 21.34 2.03469 20.03C6.71669 18.249 17.2307 21.403 33.0647 29.338L47.9077 36.776L63.0526 24.317Z" fill="black"/>
</svg>
