<svg width="39" height="42" viewBox="0 0 39 42" fill="none" xmlns="http://www.w3.org/2000/svg">
<path d="M18.914 7.83124C20.095 7.07724 23.536 4.9542 26.561 3.1142C32.99 -0.797796 37.862 -1.04976 38.368 2.50324C38.599 4.12324 36.864 6.20321 31.368 10.8952C27.349 14.3262 24.013 17.1822 23.955 17.2412C23.896 17.3002 23.567 18.8262 23.223 20.6312C22.668 23.5472 22.902 24.0262 25.33 24.9262C29.345 26.4172 37.557 32.1681 37.559 33.4921C37.564 36.3141 28.1509 36.6792 19.3129 34.1992L13.434 32.5502L8.71295 37.1992C6.11695 39.7572 3.24699 41.8492 2.33599 41.8492C-1.15301 41.8492 -0.440995 39.5522 4.52301 34.7922C9.464 30.0552 9.61195 29.7602 8.11895 27.6282C5.90795 24.4722 6.18003 21.6901 9.12103 17.3561L11.681 13.5842L9.24993 10.9661C5.86993 7.32613 3.173 2.90417 3.893 2.18317C4.79 1.28617 10.4069 3.84924 13.7969 6.70124C16.4469 8.93124 17 9.05324 18.914 7.83124Z" fill="black"/>
</svg>
