<svg width="1502" height="39" viewBox="0 0 1502 39" fill="none" xmlns="http://www.w3.org/2000/svg">
<path d="M1346 2.60857C1356.72 1.99057 1373.6 1.13861 1383.5 0.716606C1419.65 -0.824394 1499.06 0.299622 1501.14 2.38262C1502.87 4.10962 1492.09 4.63063 1433.14 5.66863C1402.14 6.21463 1376.29 6.96665 1375.68 7.33965C1375.08 7.71265 1329.12 8.13063 1273.54 8.26763C1170.29 8.52363 1144.09 9.29755 1112 13.0366C1095.71 14.9346 1017.87 16.6637 948.5 16.6677C918.8 16.6687 884.375 17.1366 872 17.7056C831.016 19.5926 651.167 23.0387 590.5 23.0997C568.5 23.1227 535.425 22.9157 517 22.6417C482.709 22.1317 432.064 23.3546 373.5 26.1056C341.356 27.6166 332.853 28.1637 295.5 31.1257C258.873 34.0297 227.56 34.9196 191 34.0966C136.679 32.8736 129.219 33.0636 106.5 36.2446C89.512 38.6236 83.338 39.0347 65.5 38.9747C42.741 38.8967 16.376 37.3465 8.27503 35.6096C2.89903 34.4566 -1.08697 31.3306 0.630033 29.6136C1.27303 28.9706 5.89903 28.9816 14.029 29.6456C20.858 30.2036 39.283 30.6797 54.973 30.7037C80.544 30.7427 85.417 30.4746 102 28.1216C119.634 25.6196 123.393 25.4576 182.347 24.6656C250.338 23.7516 253.709 23.6256 305 20.0936C347.773 17.1486 392.505 14.8636 431 13.6576C446.675 13.1666 468.05 12.2266 478.5 11.5676C493.5 10.6226 506.789 10.6436 541.627 11.6686C569.138 12.4786 595.495 12.6886 611.627 12.2266C625.857 11.8196 666.075 11.0827 701 10.5897C775.774 9.53365 835.888 8.21258 877.5 6.71258C894 6.11858 953.625 5.45162 1010 5.23162C1070.04 4.99762 1116.02 4.41261 1121 3.82061C1136.74 1.94761 1185.07 1.52267 1256 2.63067C1308.01 3.44367 1331.61 3.43857 1346 2.60857Z" fill="black"/>
</svg>
